<mxfile host="app.diagrams.net" agent="Mozilla/5.0 (Windows NT 10.0; Win64; x64) AppleWebKit/537.36 (KHTML, like Gecko) Chrome/131.0.0.0 Safari/537.36 Edg/131.0.0.0" version="24.9.2">
  <diagram name="第 1 页" id="8LN1XzwGYr2wP4iB-K0g">
    <mxGraphModel dx="2040" dy="627" grid="1" gridSize="10" guides="1" tooltips="1" connect="1" arrows="1" fold="1" page="1" pageScale="1" pageWidth="827" pageHeight="1169" math="0" shadow="0">
      <root>
        <mxCell id="0" />
        <mxCell id="1" parent="0" />
        <mxCell id="ZTzG8vazDqK2p4vOw7QZ-1" value="" style="shape=image;verticalLabelPosition=bottom;labelBackgroundColor=default;verticalAlign=top;aspect=fixed;imageAspect=0;image=data:image/jpeg,/9j/4AAQSkZJRgABAQAAAQABAAD/2wCEAAYGBgYHBgcICAcKCwoLCg8ODAwODxYQERAREBYiFRkVFRkVIh4kHhweJB42KiYmKjY+NDI0PkxERExfWl98fKcBBgYGBgcGBwgIBwoLCgsKDw4MDA4PFhAREBEQFiIVGRUVGRUiHiQeHB4kHjYqJiYqNj40MjQ+TERETF9aX3x8p//CABEIAtMCJgMBIgACEQEDEQH/xAAxAAACAwEBAQEAAAAAAAAAAAAABQMEBgIBBwgBAQEBAQAAAAAAAAAAAAAAAAABAgP/2gAMAwEAAhADEAAAAP1CBz2AAAAAAAAAAAAAAAAAAee+B6eeHXngdHPp6eeHRz0B56AAAAAAAAAAAAAAAAAAAAAAAAAAAAAAAAAAAAAAAAAeHp4Hp54ew9xEdVPnzRrs9dVpepM0kcZnOH1OP5lsx1IntDE47AAAAAAAAAAAAAAAAAAAAAAAAAAAAAAAAAAAAAAAAAPD3n0CKpjTX5nJ442WXWisZ86iX6Za+R2z7Lovz9rk+hIJVxqm3zmyfV2Xw/Xp9D8y7IfiCwNzwPQADw9PPQAAAAAAAAAAAAAAAAAAAAAAAAAPPQAAADzg9TWvkJTXZ2s09T17RLaR0DUL1kBJBGoGsqlmOmONtmpdYFuMNZ8yhPubX8+XU/SNH4HrT6ZqsGJ9L6zDgv8AgHoAAAAAAAAAAAAAAAAAAAAAAAAeHvge+B6eABCe4XHfNl12N6prdW1KQwigCO5bulNQ+BDCytFes5VEJHKXZl1Y0najk8mqA3to5zb734jqj6nvfjusZ386pkSnPp6AAAAAAAAAAAAAAAAAAAAAAAB4eHvgBEHyTUfCylQ8ialX83CH3R3jG6dnwX13ecLfXr4Tt++0QJNfXXCRbhQZovoybyn0vvscQ27pXy48xLBPo+v+YN0+paX59pTdWc1oks9RSHoAAAAAAAAAAB56AAAAAAAAAB4AHgYXT/AwxFhW17VtvRc2rozXVUHpdoZeBWVhUyNNXzdpND3lKBs2Hz6Y3M9fRmWQamuZOi7gKC+8uW85ruUV2VTota2pKNN58bZJ9r1PzvcI2756JDz0AAAAAAAAAAAAAAAAAAAA8PeT3kQHzT5FUptTRrtCMEd3KLerUQu8rheJeOS9HSlLUEEZJP2ySi9pxpqm+JtGxiWVC0iaWTH1tGvW5sUjxPnV2jGv0x18s2iT8eKzUtX2kT1/l9qkl+vYPTz0AAAAAAAPA47A9AAAAAADz0PPOuA/Ov2P8pLRr90VlapoVsqpK6yQ9Rk1yLgg478CfnsqyE5chpt0l1GgmRRnaVU1OgQfWjLNNE+T4Wt22fWuJ3RllGzSFNym5N0hsIjaff8A8+fU0+j3l7lOZ/OwAAAAAAAAAA89AAAAAAAAA8jkXHyH4hvMO1SXsFRHEcNdw2q5F7JIXqFqsedT3UrDhUlLieyvH0JRpUjUaX0z2ocbhKrTudIY2y8+T4fR4tqbc5j60Lfmn1bKny2u7ql5TYomn+sfF/sR9Xb077MnoAAAAAAAAAAAAAAAAAAAHgeZzSYw/O6Bkiar0rqxfZJ+iCpcoEcsIs3Mdwdd+9swe2Wgl+mpPqxbuL7qT2nInHXdEtwTpybCVfmC195E/WRzgaya1LMxPlaLf/NV68j4Gf0n5nsz9TW8prGevQAAPPQAAAAAAAAAAAAAAAOfQ8yeszp+R1LxA13BLGt+KeolZXNE0RyyE83Vxlw2l0gvTP8Ag3Om+QTp9jh+XB9opfObRsY8A0NQtzdsxUc6laNO/aFzq5rTPVfpvz05zLa+fNur1Mr7BDqD7X9Cw24ZkAAAAAAAAAAAAAAAAAAADwPAQP1h+PUelStL5OozqCPha/cfax36LlJCRgj/AH3zzQGgVV+UVY7ZKlzk23VFIirmtv5pkaexXronzW0orB9GwHZv6vyhYfZVHyKQ+gsM3sjGZT6Z8yHOjQ7M+6P1bVmQAAAAAAAAAAAAAAAAAAAPPOvDlQ4Un5PQbnHtLqLRWtc7pLL5yHemQ6VINXXnSGNjwLmHmmHmyxuSTfYL51VX6pTzDQ5t1rhqbEb1M0u0y0wrHmVa+/TtT55kvq0x843rR2I/l/6Mw6fMvomH+lL9stoXzPoAAAAAAAAAAAAAAAAAAAHPoeRS+H52+W/oH4O1QSPkxUhsCxSz8He3yf0NLFBnRJ1k/pJXY5Mhceb8+apPowYbVtZRVpFjMs/RchvEyib6JnhCp1NgxNiwHGhR6IuX5GSLFWwSnwnUV0TX3/R5x8zZAAAAAAAAAAAAAAAAAAADwPAAPnn51/RP5yVRVucLWoXqatFV9YP9zht6kvjBqZk3HCfL2/0nowPL1QW9PWsjqJa4FEdewOeKFg0UBTK3UFckraS6fP22nrF18s6SwhKYs+IfY/njX2Pb/n37Ezr/AHjsAAAAAAAAAAAAAAAAADw959DzzqI+V/nj9AfB14oX0q1Z7EixL9AlH28x28SfaYfXI8i5dka/RUEyOX+nKlxtjbwGbdPJDCKL2GNLpvmmgPpLRP4W85r0BBtvllw+sKrcSJY2FU47qrlV5B+kN7usJ9QS77z0AAAAAAAAAAAAAAAAAAHh74HHfJ8v/P36m/Oi5lYxtqwg1URk8/qc2avR5bWhosxZTeaX53ozde4uyjQrWyai66PKd3PHy9bauqon1HzseM/ls6/ROMfQPpNb5Nsj6XrPkOvTezKm6Lcbo84uemNSOt8oeJ36AAAAAAAAAAAAAAAAAAAAAc9eCv499wxR+XLerzTWsqWoDMrHNQtaRFZNHTa0U9tqOV1TnFuU1z/J6gczqBIs7Y+XrmmC1MtdBZlXhxV9SRXe3Jjvu+T+vJjc79l+WGgZY26M1PqYm+k/M/pxrL1O4noAAAAAeB74HoAAAAAAAAAAAAAAeU7vhjvln3jGHxOzFaaw2mxmkEGuz1o+geVGKKIH9IpWJ05qNH84fGy7yvZ78t+o/PzNQXxU1i64EdHc3BL90oxJt5k9NNTnLCwxC7Wo1VV2NsofT8Bqj6VbgnQAAAAAAPD0AAAAAAAAAAAAAAAAAhXtYj87pvqWEVeg+oUT5yPbC9uqNpIbC70nrW5jO2LtAcMkjY0OA1VETaKN0LajRKXa1zIH05d811R9FQfPuT6Bn87Ia6HJ6sae3KhU22X3Jou45EAAAAAAAAAAAAAAAAAAAAAAAAAOO+TO/KPtPxUcIbNZU/THPmjsUrZDSZUyfjvwpLLFQtNRiMFHCAacZquu05wacfK6sA/RxRlyVs8MrE6mE20yzw+oqe06Ovovy36qjyaOQAAADz0AAAAAAAAAAAAAAAAAAAADz0K2K3dU/Md37j84XCI3eaXaaLBbhJa/dUYwSQFMl5G6zumJ0DfDq4izMw0WsXIh3dm+UXtHo1tDJypom2dYhldGiGK2OEZfc/iv3VGXfPQAAAAAAAAAAAAAAAAAAAAAAAAAAHPEvJXqMYjIfFf0pmD866qska3FQgT3pVKTlCsrGRRKJ1zeyUBzAUb9WAeJlVMvWVrwlW6u2ZTR3ZUkldJxJ3KGl+t43XI46jkAAAAAAAAAAAAAAAAAAAAAAAAAAAADnzvwhoMoT4784+9fKVosMw4XjyesnSxkKhiuxEkZ4ez2fRdW0cZlfNx2QbrMNk0azsCmyXHGccZAuGf1a/XWvz3ZM6W0ivl8jkAAAAAAAAAAAAAAAAAAAAAAAAAAAADyKbkWYj6LVPkWX+201+F03Cta7PPWC/WtxENiOcbKvL5SbVK429RRDrxGvNoywUJso8R2bTF+2xj9UECM83FAfTm3xxifX2PyB+n02TNtRiV5CQ89AAAAAAAAAAAAAAAAAAAAAAAADwjhmgIF1z5wYtLEsadqHi8h7r9nfnMZF1x0XJ1HAzT9VTix3ZK1nmmW1s1Ms/e/jP2sX5u1fQja5cTaRI2L3LNOWnuYnPqDn4i5T6zLj9EMeqXZbK3ZMcdHoAAAAAAAAAAB574HoAAAHJ7EUSarlPnowwtIa9zz1CaFopZFAYUiGvcqh116Vq8tI9IICxyXipNLWIa9tcfRdmltJHtVvAqTv8sUZa3qt9P8lgPsMPylwfSol9lLkqtoSXpfB69wXSfSpfmbo2gtslk4CYAAAAAAAAAAPD3mOmW6eKyZvcTnFK3EkqBZFtmEdJWnJauLHJLUnkKhbsFCFusFadtQKM8kh01odHqr2oUG9bSmraJmiNelVwkwj1AvPUvBWiZoDQs2LFMDT1tlVD+2qTTOMS0NrLmrSNVrFsZNg5qgAbUAADw9AAAPD3zmEmgiTFv5znc+vfTjso1Ga4RqL6dZaVicLUUZDrlV0kvQSJzJBUVhQ9iKC28qO/K/pa5msC8kjO2iNkbC6rhG8qOAYHs6TVhYT2ufoZIstrRQzTvjKPI6JrXHzyqfVesHpB1WrSGisr7yekoaA9AAAAPOYzuKssG2d+c5A1uej5WbquDXqvwW0syNaq+6tByntl5Nr0A2p1+h73n2JarHJLXt0ystseixtegKdSJgVIGXhzvZu0W0nOJOLam8tyemuGUPG1NC96VIkIJiCRfdGY99M1wzgErFwvGsFfRnDFe2RoVw1QAABzzjzR5fGLxnmL6xaHHt9ea1qinMkHS346dopUJqpXTsFAwihDc1lF4TXorJnbEXI3aZq+PUbCMkn6qkCvr0laU5g0FNuNulqBLuceL1Vdz9lWtN2X/tSdunmZfYs8urtGZhrV6NvOjZHlJxUK1+g1O5eHJNJPKkI0C4eAVuMGVkjamtXxhwIFLpWQzMloplpWFhsetRfXa0RPRn8KqtwqF/ElUuu8i+VpZWs0zldqmJ5o4jZ6XL6AWILtImo9VCwxVdmilyzEbSDIjoS2UR02/q19xY+gIsVOskSYvSY40GhzusF63YJS/fUtB5At0aLajBoq8aX08sRBKTh6r9UC+oxgE9t1VF1BpRVXTtOxLl9JkBeWOlYS2+kowMYDM1tCqWFfaoiGveCn7KvLd5NOWvKXZfUWKxp3+AeluqKS5RpMRpBwyLUvtkf+orBaUapcmZ19D60OIqcqV02hXLis7pEA/0eR2BIueLjq912ML6h6lSRpCdQyMyhanlIj0FlRjWF3Es5BXZ1hEuaKlLzLKiTNtoCF3T0ARaFWZ+OfgUl+IyED9MqTv2c4pOYhJLdqEEN6mVuLkZUn8FvJ+eyy4gaIvZythLFb6INIhcF+yl+uDStbzKPU1DPG54yehEaBhTLmwxmsG89iZFVyyFp7UtFiGeQjkPDv3z0ACmTBRrswqo36kT1LDcpZpokXN9csC65Q6csItFnRH3IFKlcCrjfo2LXORXaRJwvrjCHzoh6hlIqdqqeNl+vMW2qaAnu3Zg47pFHueicJ620Pou64XsoE9ioqyC9KX78bEzPDxIQ6/L6c07Kg5TiBqvPWdcL576ee+enp6AAcedBxzJwUFzRWLbEy0VpXyBa1yqzIHcDA9QOM8U+Y7QqvkhUSMKBjYGSVY6F3krQWODyzC/FNXQKx5pUsxRvQWSaWjeK9szZdxrmcWfes/tEozW0JAsJTlrU5NRVtUThHq84c6rMawb6FI8SWveDk9mOO+ezw9AAAA889DyKaIrpmdUqp7cYmSaWktTtxEXmlG2lDLskKwWC4UFDtOWs49rGdRX41QzSzlKi+VEkyfXCmw5QF6rOlPdhgdOa6dXkz3zjVkummbox4c5Y6V3ahzUvB343uEcTWiWMVu8mR6xLsjthXtIy94kOJIZT30AAAAADwAOeohNN6uK1+zAZby7MsHDDtLdafwTqtEgVXQnqBWc9CWqxD5/RfLlmpulotUsmJWaRKiX2eEVULNcjvRWiZI9YF7fd3ki1UUpTX2oClxboHvnbosuJbyZ3jqU8Rtu1q6hXo0qXIL513x2e+gAAAAAAAeeh5BPSPKbcIKDdUUaTPgp2epTmb22ZpQ/qmNaWlq0LNngprtFAZDFbnLq9yV9SOiwqIKLBONK1O6KRnVLPULskitcGg3HxXbp9RrlQuZ5ysKzOWUWahRpUvLGPor75siy1JaI2qZydzcynMh6AAAAAAAAB574B6HnnXh5VtRC2NhAL7QxOZPexMm0KgU1LshnL92gspTumYwf0D5mtGGxVGPCrgYq7i0u2KlompSB2+pXBnnuIiza8tk31D4p9WGNobMo3UbgqtoHJGuYcFKepbI+5YiFoubHnZ0egAAAAAAAAAAAAeABz0EFa2EE/kgHoK1jimLvbicox6jDndmn4uKzOqRqlgv8iIbpjs87Pb9rsVzMKpJDaUAzosSrBttOZzbdskZeT3Up2bdooMKbElpSBRv+9kdVh4Q3OOw656AAAAAAAAAAAAAA89Dz0Dk9Dw9Dz0ChNZ8KEfqkpwP5xJitR88Fa9tTVBJNAqyywmEEDSAd0fbBUm6rHudbznv0HjVp7LC3EOg8ZpPcsdnUXXZFZ69IlzSuT9gc+9enh6AAAAAAAAAAAAAAAAAAAAAAeenhzBOtIeqTs6zZ83Cne4VZBbuGSQPUavmlRkmfr6zOLRv17h7SsylXSWvoZFRsiVntd6njCK6ee9hGSeHMnnR50AAAAAAAAAAAAAAAAAAAAAAAAHnoeegeHoeJnPBBjZcMRT8MFq+mVL5LYEyTS0CszVPCwg0igrTSIj3Wd/QS1wy4RTYnlPGkTQ9Ow497CPoD30AAAAAAAAAAAAAAAAAAAAAAAAAAADwD0A8XgfNVoKOAMR6AztgW1wGcuAM0ICx+C/V+gZY8gSdgXbgHnoHoAAAAAAAAAAAAAAAAAAAAAAH/xAAwEAACAgMAAgIBAwMEAwADAQABAgADBBESEyEFIjEUI0AQMlAgMDNBBhVCJDRDYP/aAAgBAQABBQH/APz+5sf13/o3/mmsUTyiNkIJZ8hUgf5OsRfkLmCZWRpc6kxbVMB9GbBg/wAv7moxVZfljRuZyrVQUUBq0pKhPVmPVYtlF1Rr+RysaynLoyR3sq24D/li0suCi5ysuzsUTIy7bD+ptCea5ouXyf1rqafkHYVZCWrd6HrePkPYFyBKL+oLAZ7nkH+SuuVBf8iXNmfo35Fpt8y7Ham0WdPtD+oOlyrFVLWlOWSaMxGlqlZRkIkfOqsK/JWeSnLe2C5uheBPKkrylJB3/jdy3KYLflNfa7GW5QADlz67Figm1RGrqI5o2fLtrrxFscmu9ayMjoKVUq3Td180Z3Mr+UXSfK0QWY+QlmOyyrJsqZMhT/iyQA1ilfl/kltdryAbCxRHsY3JQRe7r2YHClsgrGynKvbZukM7dmsqWaB4rMX8tjK3lnd6hMy0D9T1Ksq6tsX53LWVfIV5MQPXKrbgteRWx/w7MFmV8lStmZ87kXhm8pasKPJs2ZNgg0VNrGV1mWUiseMdOCoSkmEtpFMJmn5RUUdBSrpGupgQOTpQhYH6NZTd90ubmjLFd2lsCpr/AAzuFHyPyz22W3Lve55uAbSW9wKUldT3tXjLttIQrtDVk2MybZcY+Tl2S+w2QATSCeT0byXXpTsQtqeT9s2bCkNNmUX3arua1cTN8cryaWIP+EZtD5vOch7SQqgFrAXZuiA4nDCeLq2ukBGq4BQJXob+7114irP0oVL/AM3U+wDCIyFoECFn9bM3sByrVp3Ncmqy2K1nVeQNUuDVj3q0RkEVnEVwf8C7cr8hmcLl3dkbc5FyBHLJWtZYrUN20DQCq6XIoOQvNuYhaijsApXKiqBrPolEetbIaBLqUWWs2nYibbf4/ofcqb1bzAhIrvyVNOajRgajiP50X+yq7UUjkH/AZubs5+Wxd2+zvyKFLu2GfIvKtT+zWlrs+TeI+T9bb21Qm2845F3MrySCcxnY5BaLb+2cgTwpzbjjT48etFmzsryi/wB4WJyQo2Vp3KLLBMSwIKw+Pbj5VGSvJERfX8/Lv8FF+UzS5gGDQdWHGUILMrYS7dt1zlareI+S9lhtINNXks8sa7YGtNkKJ5jsZDLBZkXHD4pn7tssrsBegkWAaWsasbZ5Mx9vXRVud8mvRVKarK/0ykF7EFOT4ph56WrjXKx/n/8Ak3yC68hjWiV7Kj6I95WXWDpT9Wb3bawpH4XUNiw2EjYUNc7QbJ4MRIjUrKsr7rk7luQWZxsMcdZdZZbODvUwQ0xvocjtbKrGrGFk1kLb0Le1mN4e3wMmhq/kspDV8ja6A3sVW3+Z8jmJi4uRfZdfY3JLeqkKpZrnvZM7gO45Njsdn8CIQCff9KkYnx8rwCCvurHYzXjas2KLQ7suOZXQFj1lGav1i68eV9Me3e6SZiXeK6uynu1x4ydT4zLW5Lfj6bZjULS4r4Cn+WZ89ntZcvtmeV7e1rgq227/ANCfnXI/6mp+ITEQsQdR7i7VUlhThFhkBMcI3JrsLTFp8tdeK1jJS9jZyCvKoq7s7HOS/wC3Yu10RKh9qLv/AMglRXS67pusxrsa8W1hA5rQrCu4P5JnyeX+mxMqw73qe9oeT1D7X+mtxPUf8wCajCcwHQJmPjkzBwtTIy6q5e/b6MxsXyxcfyKaOhTUir8vWn6j/gWt/wBypDcl2M1RuqGq/TISLLPcBPNIa+j4K3vHQ+x/LY6H/kd/Uffbr6WHc9bG+f6CVj6BRD6GtAJNajezKKfI2NQoWzLE8TPFwV6xPi/K+L8fjUw8xK4+1HyIByM29e03z8XSGNlIsS2goGXixVafg077+PsK2fEgJfWgAX+XknVPyNhe47h9z8DRJAh3rUI1F/LHS+4ixK0JKhVtYRFLTxEynByOF+GuleCizkA0YXuqshfGSBXNS7kD5K8JbVQ1zPjdPiY4rlgas56FWyq9W1KTa7EkBgy6RvjTu9FIg/l/J2c4txLJv2d9NqFfda7jgRvX9N6Lt04+zqu5rUIJiUyuo9fGfHjusKIBsN8bU0p+NxkgopEAWejCoWNcEnyHyKVpYDZZj4arVjYpW7VCTIcMLS1ldiPoOFr62a5W6hvi7/tSe0/l/MMRQ1jT/wCTzCPf/f8AaD+HI2JuAbighxNe/GYqJ4sHEXdP9p2srY9ViM+iGUj8WFvVt685eeJZZabPjsapS+Sa4cpmAy3Bqzq55cOyfJMmrx9l3r3APJMCzlvjbiV/l/Kjqi3/AJA8b+4AdFQAUKh39/1rEQbbxsgxqxDT0T3l5FFCAIaxNDS8rKr1Eyr5Vf7yMjRXJBXIt+tw1Z4+ZZc6w2WvPLpaO7YaQgbhJRjK0+SxhyKga052F5Px5AOAt1X8zM/4r/8A9g6nXrYhYa6Ef8ia9BfaASv1cakZMLHTedZ5XXnGH64qVz0B/wDdLWf/AG1TlfkE02bW6W5hEW7qqpvvYyiZGmByTz+TV8dk3RPh1VqfjisfE1Xfi2iV2NWVPlgBrIYmP1rAr8y/G9hB/LzF3j5IPn59IfZ9EncYqI3uDUEWOvK1b3jkGVj9mvFVEercyE4W0exqKdlCQFyng6NdNxA6hf63/eb5mNS4lfqvtEg+Qx0j/Moqr8lQz2p09Ce8+sV2D6sidj4kAvjAKR/Lyv8Agyjt/axwoja0CI5mv61D1kfhK+Rjjhjmnxi92DZKCMA0GNZbE+G2H+L9+K2osm5XYwVN746B6QLWY6qjLYZf8i6Br7bFf2CLgldgsmKx0hAHyNXkGzurfPxFRfJo65H8vLfVecSLdkGzU1PZMJ3P+k9mtTyK/LdaB4q9iONk2nnHpYsmDU7CumgZmVi0AfIY1h6x7JwobkBqgC1HKx/G0RuxnKqJVdWqmnHC49X6p/02PWPkRbetVPDYzkWrRtfC7LmUGjIqH2weq8itulH8u1CR8unGUgBrs9LPXX9DEWLojGxyst1qtAUvU7WkF1spEOd4VyvliBbkG602oDVYQf1IeK/Z8apMY1a8FbAKFtz18krr8KeI2zGwsiJXnBcj40Wmr4ypR+gpsvTCvUjG/b+WxPJVTsW11qLsZtj+W3sfP0EW1/m2bOz/AGgRBuESr84yED8KR1EDRrOm3yOmUNe974/xtl8uwhjsaLXfx2U0V105RpqWi+ylbBip9qawa7KCpevtv0qMv6p9V2FilNonF1kpwCsSpVGulAJDpps1Bj5dDdLht0i/zP8AyCndXGizemGjz6cRB9bF5OOm5Sgn1I9LCwlf3Lr45kG644mDeJVquZOMl7H4pWTIxGsCfG8HPx7GqxWbx0o+8VwZkopNlTI2+I9NV88GmZSBTZopc7REGgJxoXgdfPUHw/E3qRj18Ip/mfNDqq8wkglepqE7lOpYd2YvpqzNjhta/SiM6Ip81grxnREd6y2R7pyLyExXtjtWoH2nyChJiJqEIFpuNbPslut2hDKW2t1RJ/c19A1dolDNpfQd41m5m1jIorR6bfjc1LqVMH8v5cHxXFfJr0fpHMA1Eb1+Wxv7qR9UCyuhnH/re0/RY4KYwSWopllY2EXqh0WHL9IzvFcIvXTizkC/qL+VsPLlp5Pa/V6vY8IYtjVtBiJUyMqq2SI9haMpmQ2jfWPNi2tjW/HXm6sfyjPm7IxPkr9y5gD7MCkn8IBMMe9ESkamPzz/AHREO+dA0Ai6p61Nab0INCUUMwsrARuQbMjUpt9JaGlbe+QwahZkoEbFzgy12q01sXE67+2gSv5LpzcdtaP36cYXDDxlpT+UZ8tyy2Db+wrWbPDEAcLYuq3/AL8Afb0q1sRKn/bT6ilfRqJh2CbLBGxksKYYCHGpV1Qxqpm/Rrre5U4mJb91uUynIUNk3VBHNNpv+MtR8PNMqt2LDsvWDGQkH0XsjEd5nu7BLkJvQ/lET5pdVMfs7ekTcqpXx+Dp7FOrf+XEX0dys6lD/Ut9qrNDybh5li+64d6FJJROZe/K/JN+5+hDxfjXRvKKImcjM137aG3m696hR8qtkvetbsfMdD+p3Ffc1qWiX+5020rNk+JTdKn1/L+Sp8i59DVWr7lajelKuAots9N7yKj+1P7jXYRK7jqu0EDIi3OQ1g5FgRV00Vfbt6ub1Y9Qyai2nzKEXKzMWdev1VizFzGmfndFLbWfDrsyX8jVmm5wtVuwW+txlm4B6x6D48Srxrr+ZenU+bxhCNFIo/ZtYhXQ8H3bYnIxbPJWy6H4iW+xcUld2wth3UwY1oIPwxADttszKGPSHYh8nmu/K9F2MXvWvLRXWwHjZilWh/49g+On5PE3MdmlVgAFqx23GfUX0Pj13iqR/NInyeN5Ez/jnQ0owOKdDJXUYyyk+Gu0304ZZGYejX6Ieb+yH0jNuphFsGvIds8e0CfNZR8VHuvIA7ZCzCgQsqjzgzb2HE+EybVX/wAcyDZjr4KrEF1d+O2Pd1EuML+3cmFz4/jj+yg/nWp0tmKGHyGD4WoJS/J9m5jvxr+nqPjtACuf7An1ev0i+yPXUqtMFmotwEa4iWvY5+Q6OQrug7BjN7rqJnh9eMT47FIbE4KlRF4Bb8XKHl9ZqOzW3lINmzOCU+P+tifz2WfK0d0OwAyVDVWemTIDJfVqYzNqht1gmOvooTCoAZiIlmolu4LDsXS0O0ygpbmCjYXHaVUGfpT3R8cWbGx0rTH3XGtAH6xFb9UpW20RtFHWt1Sr34G245nxpd7kHr+cRMisOmVjkPSx5GGhbIxREVmUVsExR6PXXk+6lIdiWr6ZQZWxiHUqAL2c85FTGV4iGJhoUOHWkFVcespFvNcryO5YtzEXYyoGp6tbgPlbiuSqkFmq1CntlBHxeMKaR/gCJ8pjcXCtQ6qFFjokZyxpGmSvk2LCPStqKR1YI6rN6IIEQ++gzWrqVciLZpLLfW2nkpsGTnVLE+QuRR8rXZjCwWD9eEb/ANy5htDhMnk4+jWGBr9gjW8ffC/4HNqFlaLqIheX1FbbaPHK/Tjcb8lNkiVn22+nYTrUG3n3ATSC7Wzf9TldBcjqZOXXXXflGwpaqM2WpDXCLbdpOivBi2KJ5Qj4dxKLrxm0RTs0b8a/4GxdzODY+Qmeqq1/ka89r9kZGBnWow9N+a1AlhUBh9uNzHqBa5dM9w5su3C2yfcbKdS3kcnxaDIWtsqMrR2sr+EzXn/oigsw7ECfC3vHw7Kzj+SspYv6Z/q6t9sb/jH+BInyWF51tqNNi3ALbktu3ILTDfyV+tQk7WW6nEVCpqOpkMS1jGWW/f8AUBS2R3HuWGxnK0vMP4fyj/0wD41NNEqzCyWmyxvD9q05mTUrA/WLevD2bctqYqcVD/AmOoIyMSm4XfAbf5DA/TxEOsW3xtWfRJhOyjQsWbQ6PuKwMb8XP6udhFrZoKouIdU4TdHG5C3+N/1tYsuvq6GWVYZjkrkgwXgDygize9bgExv3Lq/wP8Cf6ERkEzcRcim/BspZ1ImHYXRjsn8FoXE8npm9o3uxvrc3oY/c/RDla1SCKdxrTLPs7WDqu/27gzt91l2YbMRSpZNGzURQB8KC9qHcH+E1GWZlCsubUUOFZzZ1D6Lk7Q7jn2zeg3s2DTAMax769dbjDROwr2EFrSxSoua/j7DKvj+IcNYMX0tfJVAtdzQ6Yv6nxdIrx0MX/DXKSPksYmeDRpcaaPOeYyywEz7TRIKCH1FDQ/jltsCQ1LaqxXaYmMoGPUiR1ECJvxCeMRWHF86ULW4tenQVTFP+GP4z6t121cluklV4eEpNxeWjAGH8QAwKTFQCKqmHjRUGVYx06yvca01wZfrye/MNWWGBgJkX+zY4nx+M4SnIah67keCz2HEDf4QiWV9LnYXSfoCy3/HsiLZ1GZRA0L/Uwgf0T6sCnN1XtPwGr094ERga+/bXgitjrpFj5I2ciWX/AEZyXwcVri2kDuJTeaLasyqxRb7F2its6m/8EYyiPVL6NplVePItrfXTxWM5m/exN6gf7Kwjzo6Jnn5lmSuhc0GUyz9TZs3meaNezzFxTlWU01013Zf7q3WWOutIKtBrkld+Ruj5HUrvreAmAzc3/PMM1LNdfLNq1GBFlYjAAq+oXWdCeT6kwPBZ7BUwkasMXqGV1TSwounIWUIbHw6Kqce+8cUY/lnhWtRUihrHR68gOPukF+5UQTT8jekxs+i+Bpubm/5phIEZ/rmfI7OS/kXHsi2Ai1TtGCnUNbT8jjcFaxq2EFjCM89kj1DZVtrPr5twv60DMNDZY31puI8mApsW1w61r1Y1L2vViqCaSYaSYBSYaFMal1Wn5O+mVfKY1kWwEbnU6gM3/IJhYR2UD5X5rtgTzc3qo6fZg+wdTsxjo9T7EH8lyIzCdqZ1DZuL1ConPrcL7nxY1L7OFSm2+wrXj12vy+Y3a9Zdc/V5CAfI3qas5LQzrYw7lHkAttHX7OwJ+rzKJX8uWFPyFLol1ZgO/wDRv+FubllgWX/J1IMvOvugGwrabvbufsrHmv0rj1vc1CDtToe9MDCRpm9EmKsRCYy6h+xudUSoEvgVKlfatK2/T1vtjdWN5NVFc7UwniO5gFhPZWVvlC2nKS+txileCxro4iIjw4a7/TbhqsRa7LBFz7VZMmt4LFmx/BLajWgDI+SqqmTlu8a33c/2ZnIRz5QR3ljTY43SPS7JQoAR7UKSPHzCvolBGb3qan/f/wAuYzcQ9O2Mh6LuKMWryWEnlO1n1qryLbsi8Btmt2UBNudT46hml1twW/8AV1ul9/a2nipgjeSwxb4rVsCqb5BjBQfGVap30WtP+/uWWBRkfJFTfn2uDkaLX2GO4FLG0zXstp+tLmDdWCxNfMGjNbnMUGPHEdDpgDORFOoNadyI9rb5OuNTBXRQB2Su16+kZttfd8najFF5XmCjslOUt13iY3GNk07x8Za7KKK6q5Y5tlfxdNj/APp0rdMC3SUXIF86xLzpVp5ZKzP2zObD/u7hMutCDL+R8ksvZ2rW4xqQDZWqy/fBb7e5+HX+6sl1o/ace153Yv4UzuHQG9mzUZvsTAdzqaZhz6JBmtCp3VaWAnms2LtL0aEVNqq7Pt4fqGVnmLhCy29GVrVdqsL9tr6yD5bJRkAxb1UVvSVeJsq2OCqKFeuyqeQQg6/2twtOpkZlNIzfkbco7YxVrnQ0X3Lm1LD7B2CG14vuw05sbu1SZWdL631ubLRrBN+22ZY0bYm/eyWSnUYoY3OyBNrMWt8h/F4l4Ji/32XG2xLNgdbtyFQG6VnuYFIqrt+9l7gCsAFmDy+oAmn1X7R8iwHG+SIiNYR5dyngFOYAWnJX/ZJAnUMy/kqKJZ8tfbLfJaeINNBzrtGgAUWmNohQHtf01Cq6uCks9SrTorEReRNCHnbHuaOmVtk+7AA3DGVpxC/oz0IR3MXDfJNNBrjck22DHWtt11d62VjWEhn7lQNjYOKqrb/yPcgttYGK3K1iwougibsDVVy2j1+n+uO7q3COqC+k12u4AuBW3n/WZ1OhL82mkZnyV2SdjpD9e7BH3Kx9WZopEtb6uWgXSb059HHcLYRWGyk5isAbV2acgMi3EAtuK5ETqNrXbMVp2FUy0osY7n/yyfWihrmQJVRshPoou1dczlxsKW61sBhoj4rF8hqHId9QL+4CSQXlbh7efG1iskO3Sv0/PQ8XMrxsjafZWRg1ZtIFbf67bkSW/Iqst+QymLsxjTkCFdRdCWiK/vYnUvYiEHbnmE6f8r0VNbh2v/cVn1BYQbh43SwiLZ9aSGjum3Pmi17H1EtfSsj81VHpvpFqLSmnla+7I9yquRbfebWCMKWK+TluvrrcxsXz3LjpTRbYniyfqyM266/rcF1iryiuXoUS5U1b4bYjXsUpogZdFWY1hSPHog7/ANJYAZPyIEayy0vCRq0whiK1EuPqsHTBiTWEikkde72Jnk+1jEhhFaWfii3Sb0l1ZDpwyXH6g6m9GhuJybCaAQVqqXqslvH0PGs8qdJzqmvYr0ILHWXWm63qrh6grHZVFbTlBK6jr4rC8FB+wsYXNkszW4e2srTmzJUlQ7ivAJ4XeuSw/TX1zw2NEQiN0oqv0DZWZy0BU/6LLFRcvOa1t7OmacoJaQIRtuAZ6FVtgMLaC7LePb8GCuOgI/DMGhEB5lplL/b76uIV0stK5aFXTcPs/gY+7CQ7VZD6Xq1jzyhYg71K/rFtO1sraXPbfYEMCSxsdVCkhqrN14omBgHty9bXGosCl9l7buwD9nC1y3H6Bo7lapQUHVvFXTctGfSobGH6UqFqViiaHqbH9bLQoyLWtPA0VhQxlPN2thPaoFSw+gQWYpKxAAsJ9PtSzadv73U7ddFlAX1DqV2bqDFRS1kzyOh6h1KyDcPq235dQXVkA+pJOiCoHfsXbighl27PXYo4MWoKLW+1I1Pi8Oy0shEb3bl46chUjns4e2sekLeP2zXZ99G2K/NVXkyJ4lrgRAQVibaFRryLOWeeoSBLLdS1yxb1B28NXjXjUcSxQBTV0bQoGSSIvajZMqVhCrluYUAFyfaxjPswsr5dlmvXWoxZZ5jpMrk5VqWBNMlgAjym7oGz9prOndmUGxgNtP0xCfV2THCBa9tUAhawiKq1tezytCZ8fQtti8UpWfdg6Wyi1C+zVXSluVhH93K2l9qoQVBcMvCVE2LqpgrMbK26WqdqJ5SSPIYA0AMZpYCYfU44SqrxKfsWLT/qwln45W9ht3LNr601bZPUIECgxlOrF01qsET+2wJH8ZAKtCvs9w1ssIJjVTiyudNC3UpYArZuFzO2H9EYpOrLJUa1jPsDIJn6lli3XLK1JS26tTVRnfJW4uBTh1n9yWdBV8nVzuZl2Kj4zdXUO/6i3hWGKnDVO7VITHt+v019mAx2hpO+SYlaovM/6EAMO2IAaIosZj0WBjD3YfWPXtryAbrPXJgUmUVtpkIH/wBH1G9o4O1QkaOnrQRgnNTkG3bRkDwEqOnndkYuTysesgnqUvw7Nub3EU7StgSwZ6/cY9M1rbUsteJQwOXmMo+O+O88r8aI1j2lHCy3KseyrKWtHyC8ygpOF+yq6OSHDFLJpePszLSA1CCxaAArNqKk1B/oMZNqQbWb886j+g0f8pX40vPq73FUEospripHrE0OdR1INR0cpdWsvr+0pqAkQBDHBmzszQJ9iFuowiL1Xtt+NjK6jFq9Iq8qfre7QU2Ba/IXW7mrBo8+Qq+NRS6pcjO99BEboGhLlstsrYW0hq0rClFJuC7THr9trtqiLf8A5PKOvtgNf69TUYciqvSkS3bM/IFFO7LW+zp6ffdSaihZT+PcuDaccgxjshftbVtHHLupgJWdCNYoAPpzqdbA9ltTr2X1ML0+/tWGICkoQqoqjbvbrSorua149Nc+Rb8fifpqkqSlL3quexwhYkysOxx2fu96q3VEtZlAoorYNSV8COd0D1dX9Vr6qAZqEYMv+vU1Nf0c6BGhdK6hWlzcm14fZX3bXX01YWdLvLdpZ7BO5yocaEcBxk16IIJsQbb1GbqI2iWYz0VDLGaERKmZsavgX18ZtdW5zoitVDuzS3ehUY/jx5dZdkn4TEdnrWrGUs7y1vK1hj/210cmrxsz1U144Yk2JrFUpv8A/jVovWPsy7Cemq911ryf9oxvy291L1Zc5II9P0Yi9sBpKg5KK4Cj63n9xtmws3Kh3laHh2MyE7jNqA7lgPTDRB1PtD7lVLOGpZAieSeJFFCL+nzakNvGyE6JFQUkCBAqWZW1b2calsq7EWrGqb21tZeEIsP3etlLVVDuu6nx2ryKqR4W758R8IHOHToL+H/EsGoonMHv/aMYS88hB461Bm/qw2UrMZErSgoJ7cuu2tH35G1AhrHjr9M5Gy7Ocqt1b3v0IQdBeo4KxB2ynce0hcVCApLQPxDZ3UWMLdBVcKQMcW3ve2hoUPYcLDFYrQoC8ybvozjXit3W3Ep7ZxXWBYX8ppYY94jlWisXSk/s7/oVBCfiD/aP9Oe7rmn4e/sVuAqpUSXp6ehQya1Lvx0IFZ29iH2y17VkXeSpVyykX08TWwtXoVARlO8JkU3WcSnCssQFUB61YwKUXBbKFDSnHEe6jHGRfZmPXWZjYPZSpDMepeL/AFGLtLKSAgWpWDsRU5A6LolzSuoeTPc+Ff3Wt/NSarpEX3T/AE/7/wBy4gLSOUscd11zJ9sgDXVqC55aypm4YPq88DTkV9Tw1qX5JLmeXo5CDVoIiXjlwQVVoftD6gYlsPD95uQXTkgHWy5AsmHkPMr5OtRvtv7pi0qZWtiCjHHVh5VEbd3Ch3a2wgEKGDsPtiYp1YUFaK1lmcAq01y6okIh4oI8qDQH9CIP9y07a46TgtFUKhBY/bX3ComgqaVtucj7x+gAjLW1iMwpLrbYIo3G/tt+s4JLe4PSBlVnPkbEoG7cglnXpT7DtyFcggkLWShsqNgFgVsHAvugr2yA2X1IK5fYOiGifnnsm0izEDd41Bd2O5ZigW0k/qLl+1I0XU2XMoVgB50H2H+834VR1aXccfbKfkLjhURACViKJZ+HHAv5RLW4S0eSKIQRX+lGrgwihlmVWfIpUnGX7XAJaFLvViCPsN11Yq/Qd6tH1RyGJQxQsr8tJamq813dKqJvHqFYYyo6lzcyx9CtRPFRWmFUGCKzuVpoWy43XYdSpZY4AoUBQn7jiL/eP7h/vNEQcCvbqDLtdEcqu2hUytNT7GBJlsIQSgR7SqpWptDHTMpxvKlqeRvkQvKDcxK666G/duTHQF3BW/WmJV62ADECMFIPqfaV1+0DcdabHvKthMWjN9nXdvXkK1dWb9qNty7SoMVUeOtkYHwr4OtqEPNY1X+LLP7SPYmv95prQ1/TXb3rAIdT8zXcK+r03OSRbfUgVXtAQdaa2Pswjwj5BP2aRuu6/wApSwi6+0qavu1m1lilmLEjXaJXzLdMEQykHtyyR7azCyqcHOISlwV8m5aRXSE1QgRZyGRENljEgL5Gjqqrc/S+Piu1AUYL47PVy/ZB+B/D1okbaMdCtNBQACJYP3MxLXCYlNa3W9OE3CBWtYVQoF7Zy+RbO6VI3DoSxnsrS88sRFYGAjpQonk6iV7KhomgbSq1u/R8f1qDh7Mq/HsqCudW23BfZB8yg8YqsKcZDw30Hj81lo3afw4GrdcnRbQCj+IRCIRFX2B/XWy9yhrDZoYg0xbbrZD+7HYTNPC3WEn2ktXS+cimu07dyVTcPuVqWJGjoaUDnyzdhKK5NcJKJ321BdMKkJXVUipXjIizR5K+lHCc9z8RWNlx9wrs2/gDt9QfxTB9v6D+hlvpFxaK4g8lt9qgBC0us21ZJcFK5mXPdZYnowtpGolOjNewOn/MQcT3pV1PNojng8bRE8b26gxcm04PxLvZz0q1gNlVNYqJ4ggsJQ9WbLn/AKB+tafZV9ASz3FH8c+5qAf6PbW2dvYwOqgbnuVEpbpRp5k9qt+gz1/uH8qg1cQCivWzdA1L+4agakCsOQJztCSsYxIE7mH8X1Fw0RmYouEFApXpSBONzkBa1MCx/sH9JWPpPwuhB/NakFggWWtyqKK63Y5NrbC10JUma/TWfZvydaGvQBte5fsqDgLwUBIX0xJgIRn0tY7d66bCcXESisDhadlbB92YSqsmAbIjGIuv6a92wD+h/wACxLW5LMWrxuF5RZnZIqVnZgR6ealrAKqenp7TnuWAAY34PMaseQji1lQyupC+Bh6HOmtXaKkfGpIoxtTU/EEA/wBAT9z/AAJIEbevItFGPSUhmXkisX2tkOAe23oVkrYoQ7L2IpgLLLq/E1taylSrEGN+3FoZ3dUU4mA9p5Am9ysFrF1tK/ae/wCmpqb/AMNqZDrERrrbHCLdlmtb7WtdQu1r2zqOWautHUtaqcmpEriKpe+sW11HpAvMddrUoZgyzC+P8jKmo/uOi8ogC1poheoB/QD/ABL12teiLWuZm7e217nTYBrG3Irbyfb+0XBxLW4ekMwV2csdVrVxc9ZnJ09nVuFgeQIug344EWVV7IBeAQ/4sz5H5EVgrpKq/QXo2PXS7uLTTXyBvmxB1kYyrEXxyvkWU8lXOgl6S24u/wAd8WeVUAgaHMC7ITbAdRR/jbRMkc5t35Yny5v0qvO76/tcP+YgCqsDyOoJIEPqf9f/AHZ9LcOqt81/UT8rLI35YaVPx/O//8QAPxAAAQMCAwUGBAUEAgEEAwEAAQACESExEkFRAyJhcYEQMpGhsfATQsHRI0BQUuEgYnLxMDMEgpKishQkY3D/2gAIAQEABj8B/wD8hzPIEqzv/aV8/ghedBVT9VubHaHjIjzU7RuHhGL0W+8A++qG8OyhUGhUH9YuqlXwty4oxDWWLyhgZP8Ae4T5LG4Enll6IFryM7keSmjlYg84KGAuHoo2zCW+vXVHC+oPVFrqaKDfI/rGqxbR8c8lYudSNUGkDDFgpO0niM0CXGNTbwlf9pI/yP8Apbh3cx9iUA680pfqVEg0qOaIIlk1asey72Ex8sxlAW/BdGSg00RaTUdkgrep6fqVXAL8MYdkJl53fVGNoScor0rmp+I6RO9OV81MYnEnPXMoECSa0k11RgChmmR4qXfyjvk+ijFSK8Qnfhj+7d+yo7CYIBFRPqo2pE2xRTqobaQWoOa8NmfFYxFrQTbj6KpdnQ5rGGRrvFHceOKMz6eqOF8aoB1D6/p7sLRoMR+yrtd2pO0iOvVNDA4AUxZ8aZKh1rmhvHQD/SMViAIsP9Ldwk56eKDPikD+2/mp+HhH7jUow0HjZYmsE03iY8FJJ5q9MtPNC1iIQbhgZhUB1BF0XyLVGotktpGHOPEosbEV+YwFL2OFLkUQv4VCuOa3SYOn1C33bv77jqq043B/TJJhsTW6+GO40/ypqzDOcnku5HK6Da48m3KwtMuirhlyQDGw3Pj4KlYGqgQLmiLyJtWqpsmXpdb3WU2sJ4ICuBposOc0QJcMpJMLC3aYWkWVHgV1Tu9bWirtXTSxWL4kabynZl3MUVXh/MI2Y+lzIKd8PEDmzSeGixtGIUkZhQThd+00/SauoIgfwiGbjbzMlDpzJ5IHaECbgZBNMQMh9SsLSJPecjFa+5UShidp0XeypnKmcUQjprFEHFpw3KbhoDmbdFutmu8TYeCsbxz4LuECKmEN4OJ8PFHeHSsKS91OvmiInWfYhQLeSEAE+EoB1Av+0g5iOPFBrqwN02TY3sPiOCtS0KqEE+v6O9myJjKM0ZhxtWix3A8UTPmqCT7sjAPRHG0qBW09FNcNK0+6IaK5AXREOn3dYTGzAuSfd1hZGpoi1skg/wAJsboiTnT6LAwQwWGp1QCqTlkow390UNGSL3PgRHNBrhAzqpjzQpnaUBXrRDT3oiac5ct3ENKkFDEWl2U/cL4e10yMqA+uhofP9GOza+K1j6ow4A4anNYnSnmSeMRHFAVid1MLXVsFtHftz46oYd/jlKAxRJgUuowbtN75vAJ5+GAawPKqwisX0QYy2cVlVPP3meCxbQkSJgAT/CwOo2kgWJQNptIRgR2UmMqRK/jsE9B24Z5I1cBorvmnzBAjGXaYY/2mkwWjxTTs3/EwgTOSDXt3gatv5qGuLK2yQJr+hEo1R7pzJWQhBouvhj5rrUzYUKwxLrQEW3PCAOPgiwgHDm3VO2uOru4L8LIl20yNss1utpJia+KxYqG5m/FYWkVyjL6ckdq+JrJBnLJB8Bs2JH815ougd67vdUQHTcl2ic0uLQTzKAkzplzRtpyRvxquK3pRoVyCIUgZoxPRAtcZHC6H/wCRnnHnVM22yfPEFb7JZHJwK7+IZZdBmgJ/9Of6EWNdn6ZohpKcMXBFb0nMpgbfC2OtaowZgHDr4oGJedMvunObtDANa1nggzFEzPDnKpYABoFLK9efqpcaa3UAAgUJy6fdEwDS9wEXYQb3tVOMTNnGIhb1ALZnzUzgaY4n7lEMcROZqSqtBIvX7LEa9ViJbyFUS0EaSoEqttVGqAhFxB3b9FuCamiljTyQH/x/2vhn4bmOsITn7MxMcjz0QHdfm021UGXRMH5oQOKf0B+0kUC3fHUrvTxVpiy5ibKHDMDiAi8y7HUW+bVbR80vdPnOgE2Ql+60GvL3ROeTWnlZXqoceZUAw0DJAZDxVf4VAqmc1LaJxxG1aqm8f8MXrKozI1Jz5LDIw5umnRCHlyEuyroEHeSInwt2O1utoINndICr4Jr21cDVv2QMYqbv9vBSCf8AE1RtbTJMLmgsNgJpxCGF2IeYhEayR+gbPYseIuaqDlnZGutlAN3InKwPJPaCbAIgUEqSakhEk2+qAJku9OyudkGtmJvquGQUnwV6adtVGEgcpKENMc0Pw2CTmZUBmzBdFcOXFY9q7dpQZ5pzo/8ATcdSsLQQNNVEJybBn3mhjG6WxyRJsSSsbLaap2EHCePdKIMU9M/BG/Ef5IsfZ1iseznFWHTBQ+I0zkYwofhuHHECpG0A5ifst7aA9I+v5zaPLoMURe4mSsEyETmpzbwTASAIJ5zzRM5mnp2ZIBVUZCip2SRPBV7LKZBKB1ygogSa8V7HqgI3tZlTbic0HPcSTYKKdclIkz8wIqiDfND/ABKo00/hMrWSZ4WCvki2sIzOCswtq0XLJDgaSKQsbTX780HwK3amtdkJE6FTgEr4b2iPlOQX4Ypp+ddhIwNJg8liOSNTCY3rGWqJBuaLkIH9BTn0vA/otTs4IgHdF+KtTRGfBCRAilJVG75sNVidWbIknnVHbObuig1dwRxS5gysJugWgDQ5pzR8tFB/aVtYNz9VJ0EG/dKOuS4hNnMLYtMwH4Ty6LCa7zgffNGYjXJN3935euSa7ULpCiaafnHuziiPgF0KMdaIkftITa9Vf+grDpf+i/ZTsBOdgpeRMWWFt9f9JxJlDEIQlwwUkapsNLdmABoXcgsDW4G6ICOidSspzs4oqDuhbJmDNymKSiZ9lMkSmkdIW2p3TZESaVQEbzatRxXmnh+dkprAeRRFBnVP4BVB5o9h/oJBrZFQislGEQL9kq1AsbiBzoFhY6KKCwhAXLteahjQ79xiyLn1igB9VDYRx2OSpBHOETmFgERmjGfmbLEdCVgoYTpndvyQgoVhbZ5pP1VrhYcWa22yBoaj8688FixUAEO6K9SnRcx6p3hPaF6dob1QCkhbyqUB5dgwi8AKGxe+SxPcYABgoztnTRYWDESacEC98usgxrSM1GkWV1ARrCfGakg3qtkxgJtRRNWMhUEg2Q2mAxmmbSuEhNBs04o96p2UkKaiqY+oErYOlp3cJjWn518Z0UmmLMI1qDdHovBUshTqjB7AiiUFZUU8KImJPuyALanJN2m1ZXT3qgGsaT5KPm92Qnd/sBlTHRUaqFE+alXi6Oc2GiDRJL6nOiDRHEjMobR3hyRI2jRqpDynMeDMUci03CreVXNO5Ig1DvVbNs908xFU12v5y16JmJ3zaKhzR50VTosuAVfBVMUVP6BGtCihEyqjdqi91P2rEXGJEaJobQcEZaPupPkrkqOwzKkJ9bVCGBkuKLnYi53mvibSC8m3FGgqURiMRTJS1srf/wDG4k1lHDtOfuF8Nhknh6qtOSnCjwKn5r81sHWih6pzCLGn5zaCO6wlPvRxQ6VVpOiadIlEC+qrTjmjea/0SuqCsEAaMFcRFEzZsnA2KxRAUgUHsIV4K4J41CqQDnVGKoEKC6FJNIIoiMSoeBRzM1BzWIwXnSsIwc1V5QE1Q7oHgU2PMLeLi5wMUgeCdj2mKYjXgpZ8vonHPJBpF6JzXXFE7ZvttONjqtmHCR++ZrY/nNrNjROg0xUlclfNbxRcTXRTNb9shcrqq1lCL68ETk26Gw2IFeHqhstjl3zefFSDHRAl596KL+aALXYeOiaKcwZBTwLK4tUIxf3qrUVqqTPFEQB6oyPRAk4W8fsqvcUN63RUqto7DvZ0hXRBrec7raTmYXJMdxLXc18OgdNDasRRAG06yJ95/nHck/FWqiCoNlMSu7yXTs4dnHsJ0ghcaeCIbTinmHS+uK/RODRhyjT7qIrN7qlFU9nVRN16pzZvxVzksuaIHG5ordEXETPPxTQSJGkfSViftYjjVHA2eJ+yseiBnK1lSxmCq1TqHVWKczIinNoTL5V/yz8US2zgCPzm0/xKdUwXFNg5zyRgToeCveyrUKn9Fk2Dmgf7Wo1PBREI5A31QaxOJBivFbjaJ2LdMZqjgoIML0QD/DgonxVZK5rFMypimSvQKGk813zCmLIv+Hui5WGzsoWB8CqBLqjhCc4XauGfiryQZCGzLRNJW9f84RqnyRIP1Qd2U1USj/RcrZtmmayurrGaLCBwgZppeSGprMJ1GnmmihcM7QEfiEcgbqPlm5lEMcDzKBGEHrRfRU7N7VYYNtEEaSfeS+LtqmJDLKXDdFlDdmwn0RBIYRRzbCAiT8otxU4M1SToM0d2q4Ot1Qj5Ux0Zw4+aB/OEnonyO/X6FNsYQdHNBZ/0BdEXEVuU3TNAZ81bVA2GipZHD3+OSoQXKoL3ZItc0tIKxAHoqVpZRZHE6Au+eqJa3FxuEAGABACCK1W+38QZcURtsYdOmayaNCt1ocOaBwOa83tVBuI/3D7lHBkKFEB4jkiS8zHJYw2Sz0WHy4WQLCNU386x/NcOVk6dewnsK4KizqomluQUZSOaCOSCxOdZHeV41KLNntSHg3T9rtnziqXL/wAfaNnekwpDgza5jVfjurot0G1YQbAC7uSnDCE5XQ2jRvsuCtoCwA4qobo5yv8AsEHVYfiUy4Krp1hbooh4VRqUYEzQrBGpmcimOsQgfzulU8QU6ZPYOzmewLCjTqrX4qvFUIAXIV4KG7OG+7rEdm4jUVUPc5ulIRuDPeKJxinCAmtxl2EQIbA8EHfELnjwWz2+YMc0J/8AcjLIOuVVQURVPJUJmKpxoHcESwruE+aAgcrLCBHCVvFRFOyCm7UEywoNLqoD866LgJ1p5dgCpl07CamnZTp6KapxhEYSgYnmVDbkTRENHMqSOZXz8bqYjiLoN2bT40TMZr8xhNYLLdaCSIjmtg2+E4j6WRxHPWyohdTVWlGIBWlFnTOERhKtWVXJGPPsv2bRmakCyYJ3hn+d2mpoEQJpqua3hxWEDmhKcc0UNUDFhKjDKOFDG4gUtdYWC+d1OEE5KgFskS4nqqnVGAE1rR1RnyRi6xupJuu9VGBXRRKAPire+qiIM6oVqgCjK3pCgW4qezgrZ0QkUTr3rqmwTBNZCBh452/OXyKdXPouGa3eygxI9lRByXWChVTAEKInqtUYRilVVpiUamZ1ogLrHThlxWLIW4qKT5IgX9hHjdCNF6KsLNTF1EkIA3CHHs90UEQpCKytRGcl/kPNXugBHh+ceYvRGBMoxFMkYW6KKIurcFUDWibxQuohVwkgqnGVMIenYRLVUMLjoYVgOIC1Pu6poqo/aVUmpryR3uqFaTqbqDQ+7qX2gJrg4INcZEI7TY7Sf7XUKrQyhy7JQKjgUZnxXeqsdbBM2jLOAJ0VvzjoWd6ZKiJIQnPonzH0TWgfMU/mmcqr0UoScrdgzVFCn/akG+i3VPn2cOCY1t3RzW86KZckDikcUTYZZ3W66tOSNTQIMPqFIMRdYdoBztRYtm+WuQqNUCVnHHsxKxXH2E45vMeSwGeHCfzopmPuntyMkLjzQCAFKIlNgeyjXigOSFd7ggKjjZV48FfyWap6Le+yB8dVx7bo31onbUt/xqg6aKJCOCQdZUtJF81EEZLednayaxpmO9mFvG/BDYgiRUdEA6c7LvTwK9lQj9f5Tu6eSvXMLFWcR/PM5qlKKt1RMIrRURmqxatqmAHRN1F02kc0Kq+SgDlVSq/ZTF+yEUap7psIWLjTJAYg0fXVUVSruWKADjgwiUXXOaBmE/8A8qCXvty/lYwI/cFyJUWVHfSUBMLU3gKq2PEBR+etZAsGic3w5osymk1Tr0RHKZWNGu802XAmoUqmi5WXhCkiCtSGoW/lGquEUSTTMprZufJAYleiPBST0VGobkLD5KtBS6GLaNAvmmbNsgN80RSdVOGCjiooIQhQVemQTWZtA/PkIiEXxEottKIsqEjgg0x3UMxbgQsXlmgcORRzRgIEiUbzAt2d49EOkDkobzP8q/VAwRFNVvZWTomuitC3RlHZWytdYnNgZqhd4qjlER17C1/dUa+CFc9extpmqYIiT5ras/QTqmOaE1w8VVNYXCwzV54lEPkxmUQY4T2XHsLVHkI9V36q6FqKhkq0+a9eaLxBwgAK9VGakzwUqs2R/D1ug2LCyYAIp48VQ8gjXmNEaeKKGVaIRTVvJVFkJ0VclnQGf0EhbRloJTtkeiksHVHAKZoMcBiHig8WBrqpgoUtbihuhCa0NFh4GpojWsq2qqoPSUMxN80A1s5ALkdEziaKAw5VhGmpQgMvyhHHbMqBeUHKjIlwosD32F1Qzoc02fCVl0QrK4G/NAeawpwacjVDMmpP6F8UCjqHnqiRwlVRAZNNFEVThSuV1LaCmSNclIohXyQrx8SiI04ZRmqzxXeNEK5eCOGtslQ2ouA1TeF03OooiCG9KozPSvkjjUbIZmvBd0gxRPcXw8C2QWLEZ1TokhYSBCBxjVROeq5lA9EelMl0TRw/QnNOaNLGq+UIV71FNOaCyugPJRZdVl/tTzCNbIDNTqazRRMVyVakZI72qCvSnipMHqgSa2iOi76Jv5pxM+RlRGaKjEgDCgGCgWklVCBCuh5pn6G8G0yDkreaBGUVVSOSBndsqSvPVFCCpK90UdVbNGlBkqesoDKEK1QhTVZIl5qu9XghDTCMNKGDZzWix7RpaNf4UnaCYsrKoAlEICKHqmCqiDICEHVN/Q5HeFkQ7wV6o5SoF1OayVuzROjTsjlVH0WaohnC49gOKYy7LqHOE6Qgz/6pwaBinvXQM8CFu2yFkHUJ9FM36LEda8Vc2KrlKGip5JnIfodQsLmDwROz20IRMHW648UbI6+KOeiKBPCiqTS6E6o8MpQpWF0CNTGSor9slhhUaI9/ZCtQBnog4RQzRCd7EMkcLYOfEoSbhckIMLlRGOCMBXC2bP7qofotEWFOlGJTbSDBQ4dFfwVDFboG5n1RE+BWXNZoVpHZJQVBdDwmFDTz9V3q6z0VXVbKkUGXZM107JlVnndYqyjimM0OKmU7aZCyB/RzuSom+qwGd7yU5cFeJVlACoKIRRUpqhS6p5KR4o5usoPko11RgL6jssuOS3myhS8oYeiFOiNePNRxQOlkQhS9f0i6PO6coJCyqKI0ziqJMq1ewuPZQqpQ580KZXQgURxegV1JohqhuchNFlxXdqjxRmU6txxos+xra33tEB+kmiIisqa81BjEiCqEhW05r2KL/wCymLdtWyjNdAoBKoEJCC0VHc80JnmrLkpFc0dVdFtr3R2jpE90lQ9sNUtcHDgZ/SCCFQVlVFdEYaZEwR6I3+6MQUDJQp1WSm/FdMlZCb5ZLE3ysqqcI8UN4ZK3XJeqyVJwoAun3KNTdaBQLZaaok6WQe9hwyMrprYKO4EcNg40OiaZ8UP0e3aW618arcMt4otNwU2WiyKN6rJVhRmoOi3VzUQomkVKESqomqJXso1VxGiwtxRmgKQE6o0hPioNzkgRIFo4KjsJCAxnwcmtxv8AJRtxhOoW7tJhX/RQFas+UoFFXVUaiFKvl2XV1dFdUFamvZRSQjQoNsCVAEAXRgcZlGTUm9lh0Pini8z4qAIJ7zcwg11eOq/DrwK/EX4bxPAoCMY81DXQ79pof0Mn5UWbLqVtHG4K9FCJimiqpVOw1VCpmkXQ4cUKqboF2iA81wCuq9FLqJoAuU3Zg2bU8kRiEgEuP0T3TFYpaAjEUvwJzQxA70GKxAzTtpiiXR0HFU8EBWVvBSTXipm81b9k25AsaIYt9nE73RVOH/KikH8/vGi+FsDQXK55fdOAOS4qQuMaqFE5dhmvJBCY6KV3cl3bXRNlSV9yjWdUMqKnVBgXxjMrBNSABB8kNk3NwmR1KDGNkDrdZhlYluKc/otptWg4XANAmIi6Gy+KYA4KpPgmuaQ5ulvFb+zGKPJUbfjpZE4rcSao4dpBru1Pqofsh4R5ruTnRsH0QGzcQMxEEdQqkuMkd6bIY29bV6qfqu+3x/NGKlHG7CwGyoIF9F52QprdM8CgoGqJ7L8yjzosvfNDemEYepWikR2eiy4ns1Oik3KYT3fqsQIJnvWE5JoY3fgRpGZTtljeQaUvXxXwiCC21ZEZJjIOrhNCMqKYcRlQ2Q72vsrdJF+q3i6prAAUHav6uRLcZp+4lAPknU5IAW1F133RHEJpBkZZ0Q3jOv8AELEd7iqEzGlVILjEXC/7Cx2Un1QD2SDx+qz8Ff8AKQN52gQxOvkpJJr7KFcvNbr51p90d6SZrK14z1R0oQgV0yQkCbI03dFx4q3WVJbJVp8lx8OyysFZbqie0ABNH+oUviGiaJ78BF4OSL3xvNEAWRdtaOmZ/d1TnT3ptWFLnm9oUmgF9V3HXyuqMubTHitq95EN1FNVssLb2IsMvRE7Jm7aaKXSDmRWnRb3/kOBpUj6Kn/kgjjQ/wAoEwRnSPVCp9Qt7PNbu1IOQR3j4UTvwyZNwi5k2ip8lEkc8luv2Z/yB/I4WX1NkRinVPOAknVOyHPJPPC33UnPIISf4VZN5Rw0wtCa6ZIMeAUTwXH7qJsuaPmF91CFTXJHzCsPBXVT2U/hUnmpKujWgFUdo4SKgewu/Fc0wFmKKVP+k3ZtMBufvRBjLNoPSVxKxb0qXkNABot1xAyb7Kw7OYkTX1Wza+e7NdSmuAiOuUqH10BUFjRz+qwNjZiauw+id+Ntf8wBmh8HaknWEP8A9gGltEMO1LddFuOHQwgNox3ktxrRNYRktrfNDctnEjzRDWsA0MH/AJyZgZlQycAz1hHDJrfVftCMk3rN0I8URrCor+GSjgVawqn7N1bkVui02yWce7Lu9V58lUQ4aoAtdbl0RkQJ6K7VGFWXvyR3piar6aruw1WVAOEInB4KBG9Fc0A4gmkBFsERWRmnuxtJ1itTcqYEvHeQJgaKAaDzTg106rCSBhqS4yU4A2G9wCLYkkwIT8g37JzBX7XR/EFZmVD+MEr8WTwTQ7aFvC1FA2jId3tfFVMgDOylrjh8QsWNoGc9nH3oqhwJyIzQwsPVf9Q/5t4otbu7LPmso8kDjCGiOSiB4rhWqgCZTaHVSJyWKYBOX9uaBBl3C/JB0/MRi1TaGJocqIQQamiry50UOfEa2VeqiigKC4kq8LuzzRht1WPqrevghXyQJJ+6pXUoBjJrUlNviLYH2Xek0j2VJeQBeAE51poM6NT90xxO9yW8DE+KDLf45cBqoZTrmg2oLhWKkhA6nnwVPmBHCyLXw0GonREcudls3CasjwX0w5oQ9seqb+HUaAoYKaN5fZS7FavNEiBHywocBpdW8kY2ZEcFlyVXu6f8dSsN3aIicM5SJRc4kiVWYorcwKoU3uNIQAHM3VU0p2Z0nsIjonT+4eCJscb4ymBRN3YmBwlYDNR/HqqtI+63kafRcMtUTFeFlEaIbk6IDCE7EOi05o7u9nKvZepQmykmmamANmM0xrQWsI+UoRWwp/C7m+5sYYsiS4ctETSTSlxwUCvu6G/Q6ZoYRRtygAL2P1Q4xHviE0AyAXDVZcTrUynbp0kBEzGIm1RZObjMXninOwl+ZcM03cIEI4nO5WVhBtJFEKl3LVS4GPlwhBza8VZUFRqUMTj0VW9R/wAN1JM8AiGvLG5gVQqaE+6ox1QA0pkgMRtZUmdOCwlA51XeqjJ5BAE+aNOZUgrDMYiD5reIjEa8FJ+Yl0jyWhMEQE57BDxdHEVka+yiBaMvVNw6oE1gKy3RAVq6rDoJKwtxQKnJWIEI7i+itu8dF3sMU4LERHCpQPwzekmPVF20dDR7hBsjnmoiOAUGkGwTpinWCpeSGid3Xmjtn3yankmNMlnvWNU86uoQn1IpOaA9TRNnjY5IMwVd+5QGxCjFfgnYnzhsMlRjdf8AadiaBKxMdTOteigkOi4z7KwqOj+upR9JVDAXePqoBnVNDWygEd2UaZIEaqK6mFCDTSFaTcp09UOI7GGbOujUmTBEZYU2AJwGMuSayKg94Z5IOzj/AOJTMJuFUewt5GtInWiPvx1UDugxOpQAaMlAiBzKguBJ4QjfigcQgKKzWl0b0Rag0fLYRTmU+jQRNZnzQ+nsXWFjhQ96M04ufuyIUSLVUYuZsmieQQ2bZJmSUAz5G0qg08+iAJsQoFan7wnbxBM+SlxdE5eSefmrCDwSaEcJWJ3DObI7Sc7WQY1u+L/7RY4gD9yxOfjM611VGVyCaRsN4fNPoq97MXUhWI/pqiGeKEuzRyBV57LRxQNeGi3dFGt1BMDgsuFUGogRFgm/ROP9tVMLr2EcRRAtLpxHomvzpmfFMqb5GqAvRbOTUEt+iuZjJTMGUd+l0IoLkwgGNnnRbzyDpH2UkuE0+ybPxIOaozEZ0W9IJNhZGaUi/qi99ucI5Dj9EXkjBPj1qpwGNLSU0OGM/thYyAHaCsI4m2K/C2VNT5qmI80ZYRS5unPe04nDw5JpYRWrjr0WFzYLaJrIrjMVhbRzsrxyTJ0PnZOH8AFO3R/OiOyncgG0eqAZvOxECtIGaP4dmxBi6DseGvP1ssQdleyIo5vHJACqyXHheqEiR/SSSi1pOHgu6epVbIkK2aeEN3n2YYVf9o05Ii/ZH1UK1HfdSRzlGdTxXRTpErK8/Vd0WM1/dQoFkQ4DiaqImM47yNl3kTXmr15psgYGwIsg0Q1uLxUMAymFNxnVd5rd7qeSdv8ATPmhUE8RKMVd7yUk80XvkbIEnOXcEw0gGGMyHOQpB8p8PujvwZFhZEC4PXqtw01ddbzxlzWN0nickNptZAHdaFuCjrtz6LGzaAOz9bInFG03vLUaLC/agUJ56I4Se42wppKO0fTfjFGZXwmmTgl3vVbAMbQmpFLVRecR36nn9kTvAl4EEFS5oEZKpIboM0BhPJYWgYclOS3QTxyVuynbKBkxkNeKAHVFoI4qLAXP0HZrJUe6pqvTJCqmbqgRWRTa9E0nqqaogwjM2RrYg9nOMkAcReDIjNMhhbBOf2RxFsXJzQIMznyQQ+62d96FgFa52V/uFvOgAyu4T+2RMcShhBmBSPorRbdQElDD5ZIMAua69EMbZPyiaBVq7PghgAD9eCOJ4n3kgQw1zP8ACwxb3NEXO6SY9U3aPwYW2b9VGI8gu86goE8g726PE1hPIEBoqD7oqtFGmYpKOG4BGUxP1QfV7aCDqn4j8gmFtsFjER/KaWtBDpvlzQ3AXNBGKMslDnD+/KSpNFidPitAtB2VodFUwOH9A8hqryc1gY051QaGVzICmI0CJK4ok5WXdWH93ZyQzPuyiihWEKvFA03R/KbUUFVWIV5IRMLTJB1iB7st4tmZhCt+GSBBJIOsr7p/QopprMIQUaSeau3FTzRqIRi5Qe92Gcr+awtNMuKnG3Oc/RcZPJRjGLRYWGZu4GUWvc0ze+dFDndL06Lu7SOcBNa0kjMmyDGouMknoseBpknwC2YNYJdhlYmuAbzqONVB0r6ptJOCBW8mqFDDcERnx6IvOIyNQmFwdBxNv0UFhMA4R0VjBEgzWESGd6I5lS50uOQsqHEsRr2Q0T6I5HyVT2TmqmkokjJOPzHNS4ySsRRQcVhvJsgrlOyFgpK1qs6LRErqgPBYq0upL5TmlxOdStKT1RvWxRoiMloVNSeast2YK7isiPBeqoYzKjFIzVEIgfRbzpDcv9KcAm14HVYoBidYQECuiIBtMhNaMElFziBX+FL3QM9Sg1jfh7G81tzWFp0lxz8FFYuZQaH1JoLoAOBA4J5c5lqJrh3X99bV4nCXGjvBDDus0IzbnXROsSWSMI0TaScIk/RAl8AZBEmO4AXU4oQQ57HGaLE1xLmzXLkg1rDxU4zPkq7RywtEakqAP6MR7C6aZL4jrNO791Yqiia5lYYpCLog/RdCi7X1QEofdSKKyMi6dZcckDontTmkoEChajSeKO7PHRbrSKxPG6GEDdphVAINP9KYCgYVL3DxV50VuwVCLieSuqAx71RMi9HarfecOiBwmNMgFOBzozinNER0ThgA95rG8CTZYQa6DJDa7VsgGhK0HqsPw8LRquP0VGGIoQnBzSDVMBlg43KOATuHxUz+6JWzJJuZvMQtnDD3yOCwYSTQXTYA5oMxGAQ4GcjN0DWHHem/WicyaYziVlRSb/1woqG5rC2wHac1hzzrVcVQzKgA6Jxzt0RJrE+Kr6KqdVBC1U4HVXKnIiURCJpnRYWg91NDow50hREFNcQDlK/6zyGfmpNB/aBVEiTzVDGpWJ3mgi4XZXojKrREOxKYOGYlDDssXGKIfhB0Wi3WiGsUjuzzUBgJ93VXRHgnOkE6lSW4gD4oNluKKSaIk7XOZOinGWyRz6ofjuE0JnIaLDsqUz14UQk4q2mqh2zqck92IxJkWtwTIcA2SJNoutkQSS51WXjOUDap8FtXEyaZcFhvH1WMtFYpFfFY5qAEwzfNOy/4jAQpXM9kZImYAUkcSoAmFzMxCc6UyKk1GtE2OM5ypM6Qi7yTpNE3eMIaJyoq1i/YTNLIO4+wszNlfeCqb3Vdob2hGDIvVckN2EYXNQWy11wiCbEhDCDpOqaQT8M2pomjaNBORNKcYWIW/cpFGxQGnogbxmT6Krq/tuvibZ5DK3KYzZtMUAATG4JefUrfDcRuYRGzo0VkGihzzlUmYlA7R7jPy5rE4bXCTRN+G48Zk+KcMUwCXDuj/SawOkRMAX8UAIJbiIJOYstmXSK9d5CmpkZZp4kN3ZhGs8VIvFUZFE3kgf8AlOpQaDOH17BOvKURc2lRhM4hVSBQSEXVgGtU1rTbsADYqh4IYanggY5oEKIjE2qtfp4ItupWgJzWYOag1CxcFoju81xQMGPVRWAtm/IPgzULbM/u/lRxlsoGmGO7lLk6tr1TNwjgQr1ms3CvLj5KXnG6sN48UHP6NGSG1gGe6ibuiY0C+JtKtuBnwhQG4TG8cVeSHdrnMD2ECwOMUBym2acdptHgBvqsDJMkCT9E84YkiDf1W1+FA3cr9eaFN5w8k0NcDv05YclDafhnFGvBMMGHAR4IUoiE6BcAoAyo4/8ALKmKCa8U5g6lGmV807JYnZXThbVNwmP5QBgBEzJ5KpHEoBbrRe8oGmdR9kazVXjRE11kIjUq/IK9/oiG1VTRXK4aI4cro51qQg0GppyTRPy9E48yKLY7UUkQ5chqgXEjlRYnNECQ1tUC4bx7rV8TaO/EOS3acVj1TWZC54JjGiHwL0gIS2XG508lvTDQCYKY829FicKDojDZIpWTHBF20qU/AJpSl0N2IB4eae47Q1JltDkqAtAAt4rF/wD0aK6QmkNBo0AX4LZz3RrcV7cQyRR/5q9USZ3iaZrE3dGGiJaDTVCszJKEZmUKVViAq5ZKGR75rCHGR0R1PCwWGTuwiLAt5oYQ6agr4dBSicT3bIRXRG9MlauZR0CEiqisXcoAi26MlDLDvaToiTT3CZBHuuaaD1R2fzBwIQ093QhtB5o4gSYo1Ha7bvOsPun3woUxUvCEtJFOgX4fesXGleCrnMppxE28U3ZB1XGXX6qgeT4VmFWKMJufBGHAzWgWKb5oveOlAnd3Dc4pMZJ73RAmKXnM3TNiKSesxkgOcDJMsa0kXTgT3XGTOSY7l2Ef850CDRdZnDJ5SmNmpiYWH5nVi65eiDXE2481w7Dmjv1rdd4inEGiBcbXTmjuwmurlnNEZzWIc6VRmcOdEHsnD1Re70Xj4KJtmifBbT4jSSbQtwFuKlbrG90MCAF6dKprWu+W6Dg4E3qoOkdE5jppV1MkXRyB/lVALkXfKBynksArpSibeffgi1rTfePFB2G1GogSTpW6ILAOE1T3kRIhtZpav3RmXGitH1QmarcaJrmtpjcKXA8U8umoqgyL3OQGqwVdtDSTZbJ0wTtG5pmuKi22EXiPBNA5eHaf+Yk+aLjNFBniq+Wic/gITjkn9AEKdVkiSIHipPU5ogCJdVEuqaVKa6ga2TlCfIA51qom0LF4hUNdUW7SdETBwzT+Viw1IVI8lHgpHSiG12xmMk4NO63IZlUuRMyoOdDlqg/S6kCiaY/EZfixNwGXFq+JtHAyKD6lXjINWKMUCgVGjGbcCsFdTX7IQYRdNMhB8ZKDGOa5xknEZ4JuBoo0hv3WGeBinmEasvYCYQE4qaU8Ap881tYyzPhUrZtZSYJM3hDZsbJqUZztyWzg0nlVRHBPbOS2gzxHtn/l8lCBy4ou1QA7oUDVAJ2uSAUWaPNYflESjXSynE0XUhzeZFx1hPkgZf7si0vxR/taZ+KIEmLpwNa01Red2qGyNRGV1WpsTdFvjCjgFiy+qwtpyrVBzqxYTKfDjYYRos7T9UesyiPlzQI56IP2V8VW3VoI+VfEfujMnPNDZWAmc50TsJloMVBThnomsABOdU5ziIb3YGZ0W0PKl6cUAQYvW6fRuUdMk9zsIrS0+JU0LdeSOy2f/qP2Td1lDNrZKR37RoPoiwDKSQU4rZtjogIvCbyK2mn5AmKQhShoUBPFBouUd0EwjSuvBTCbwCG9EkBANm+XFHMyPYWDCTNaIMw0vVbxALjb5p1spIltcOdVugAYpIRMEAiM5PLmnh5pmVMgtiIRPPmiYJHJPqDUm+tFPosTiDWnNQHQIjwCBa7PmYugWzY4j9ETo3VCL5qoBWJzCu/TOTTgg8CWxaYumPLd+anXwTNm3vF29wT27Ib4qHYtVU92nVONwnuEkmxOZTdnUgHegkIAjeJ192W7QfKdf9ITV3nqjttp3XGjSE4B0N0GSFgiZLWgb325rbODSOJuVt3XEQFiucyhPBAoVyoj+RMtpYKTdckSUDZDmi7wQcSbmAsRM06IVjj0ROQacXHgt6A3C6gp6LE945ymYDc6GqIM4WgzpRbz6XFaItijR5qQMUtyiQFmTwT9riH+kXum6af4lOLJg2HksNHGaUoUN4ymyRwvZNczvT1W0aBUGii+YPBQ6Tw4wiWg4kdwERUD1qu5EVgqQC04afZWJsMRN0GtjUrZtIoKlY7MaDTVbQugVBaNf9JowZyTF/crEADhyFuUrG9jd6gByg0UMrApp5ICa3ROZvqVJgCtMtFulteKiIpMJsJonovRA/kCCCgO3go7cIVQI7GgAE6c04Rlco1AIBhCGUGZvpAT4jLEUMmD5deawh1lMHinvdAvhBoSgMs5RMUAoE0n9wqo4+qBdA1RdOI5nMqUDoNUTIByPVWmXXzssWEWyTcSG6Sa84Kl7xBzvCih5VlACWGSmxc+HNTipmto8fNRuaw4squ8pqsQ2bWAurrzKdhdnc6C6bJJ1QZi7rdDSUxrBRac8lOlygJw7KRXXkoGVE7SI5pnRE5dg/KyrLihrmUAB2BbJrH4d6vJAvJMZmq+Fst2k4oosAa4CJ0vwVoyCGQanEgfDGUVKh7YaMp8JhYNZlENaa5J49yhtCIBaAKypOdL+iBvP0Q0KNB/CL92AaGU3IcPVOpRWpqsVqZSiONB91RhPn1Ro6eNUAaO1CZLqXI14FMIs1AN2dYjEaCOCAyaLcVs2zAgyDog1jYFalS8YaV4IOJ1hSgXd1thxTRSi60CY3xQOhCIOoVEPy1lNP6HFOziiL3nCBYFYyYcRX1TpbDbBNcThJsEzZtg9JHigxsFraGNdEGtIlpBd74K5iw5LIzdUxRNZz/0jsnTAO6gQYqJAQyz8Vh4ogiwWCsZn6ItA7uWSOicbkdYVYLg3ksT89AhQ87IENbzn3Kc7aOwN4rGRugGE3ZtxYy0Am8GFvUc65jVY8OXMk8UZO8a5SrTKg97IZJoOQV6ImaLg1Rxr2jz/MT/AEhouVjIHPmi/DuC3EqJMVkjghSk72s3hOw1MwNAgaQKAnMCtkXugCd0HJqsRswhZYn5/REAE+/qsMd61UxwvZ3NVGhRoBqOKMiNNVTJGGc5VG0mpRDSKi679Ncyhn6qMFbzFUIZvQpIJJtNE34jxu1jJMaxsZnkmNDe7H2WEQAqWI5IExRTXC3wK4dhPyp5rU9obqZ8Cp/OnQLA0wAN4rAKNCkd0T1KcDn0uqb5xVdx+yc3CIxiYPkqmMoGSDWqScoXIEBO6e6pzjFe6Muac0mazUoGeKvwRyNyjW901mUeJR34yjVBzsxEeVFvXpEqpPP7IAYjh6VRdtYCEC3vNYfmdoFtXEGBYkrH+5Cn+u00zNeyF5IElcOyfzxIcWzeFRWnRNmBArkFDKATvTl0W12ex2c/JvWAjzX92qnIERVYoTuRQonwpOXgmOBuMJ8aJwzCBE6H+UTh6IjPyRxCb7ooi4gklqIJkyQBNPYQbAzug0VyJnghrFEKLGbuTZtTHcIbORhMklAmgiymOwD+gTyQH6HAsAhsmP3zfgFBccqzU80YAE3RrC84VTmo5r6woaL31QPNce94KgIzRIoZkJwlQ0145L4eyOInyUAYj+5UmgkrE6Rs+FyviECs0QHXkhNTPZi2ldRqsT55ZD/gLvD9DJJgLERU2GpyTnvj4j+8ey6kiBNEKq7RUKmiEnKytE26LDSNEAB5IPmjr80cpqjSMXqsHiSmwWzqsdImhuSWoOMNGTYqdE1222dMUhsevZKkjlRSg49FOWX6WGExmUHOG6MkSq945aIkPzgnI8kA35c8lOVUYNB5LonTKLa51TaeaDpEAXT/ABB0OSbqBEJ2so5UQxAkTyJ4KgOmHgvi7Rs6TbswgXVuzE5SbZfpkxQtUBENghp1z/hEbwFZ1KwhsWF1hBJqZ0WlKhQM76KTJfkEA0HhXzTDrTqU5hMxqngQeqbREgXuiahAnODHALxQcaD1QAFlAXopKl0QswP074eyIO0NOUreJnOa14qrqXLrJmCjQjhjiUXOtrqF8R4Mnuj6p8PINyVDKi5zqi0zva+KaCZ/cUaVIon7oQfrQoTWKrCLC3Dkmu2rehzQp24slOSiKZ/pwTgLBkhNGrC481s2fKQKJhbSiw5B4pzW0n5W7vBTnH0QcLwTPFOEWZ9FtZQOeNvmUw5kmVzDZW0GXxSOiOH930lbPE2apsIc+wDiEBxVP0D/xAArEAEBAAMAAgIBAwQDAQEBAQABEQAhMUFRYXGBkaGxEEDB0TBQ4SDw8WD/2gAIAQEAAT8Q/wD8+x3PmMuXANia/ooFcUMAs8/9yodTEwd3/wCAHG4TVg359GPTb3HlkpFg1fkMLiX0sjjoi8AfqGG8VsV4fB/bCiM03W31ZjvKnvWvkwEIiPPnBFYJ+m81/aEfXrE/Ieff/bXONac0242/6jhbh7SR/wA56cTzpeh3mheuPKGrEuPUounARk4cduqxdfkJPz4wQRt2LvXq4vNZdMLfeaijyN05anM1aUan7ARwtFpJILnE0Nh/cTPXxv3zL6dPky/9g/1j1f6Dubnd6MJtU6A85GB5KyD5uvxhosNefXr1gyB8v8aJPk7kHcNjadyNcvCeY32IQGVIt4f0FF4xHHkVCSa5JrxvI1mhv7CRfi4q8g9gLTNAH4uDimmWIYItU8PnyfOHqADy/S8+R5ji+lqkZq7kd8xvfcfY5a8J09Y+y9jzAtC/b6fOCJr/ALFjwK3we9b8eMPDlHLknGjLSx3NnteyYvW0XUXHCbwIbLit2ro78mUifobPVq497RjweiPOPyZCzfw24qJV0U4+B9Ga7q+gFI2mKePweZrz9/GdSiAkn5cbcd4x9Mc1m2UEut+HLlacXQ/qaQaY6O9PtB473iZyBNGmc6TSb4mFzIaa/LgW0/Ip+tBxJ2hI8fo5sXucT6RcACIj/wDR/wBOgxPOjTSqfBzl0OomBp6BAhcXA+VELWo2+AySfSJjsfu5x2qhd/eDb9kJPd1fwzS2mM3r4fhNGa8DabEYbxDCiXjdeyYgHEDqPwN/cwAgDyI+YmPA4Xp80ep3Y3EqpU6umphZ5pCgXbXv4wdxPBr1J5vvKy5ZZSyAvz+MajSZQDabczv6Fr1An5x3uds2Drhi9J0bB9auR3QuzSHsf8ZqDk0Ol+8Gb2N7uvIdwUBbQ3b48/y5wfwL+qMGn/VOlQArigpFcQ+xkxLMUMjsK/LnC/k03WhrhjwrwDh8/LlHLSWzrY3x8BkwNHZPjT7G9rhRk8Dc7qg5hxNIQ5Pzi5VSBsny18YEErsQievTh5gdxXPUd4uKZsfLwyT8Y1KB8aht5OdzWCfaaE8Hn1gAsGtgF8Ufx7wx0Vbko/GRypoWHinDPLFJOieLe4Qs50BFu0J940hXpA9d3+vcFxl22LOq5qoLaVKXS7HvwmQA+n4+TVMDTlw2M+sAeohpV8TCq0Mnb0oO7ZKhxcfcRu8HWHyn6vf6cf8AphK4+bLsjUei78Y/+sQGzHW3oumTyLPGjHHquyF4ja6xQxEnbttLfzisYEpeymIpNdpuA3EeU+MhAbRx/VniGqOpm56+cVSSOn+zc5sys6PVAQ5w9kM1VEBJS+/TcYfH8RmwraHW7zt0RBo7p+HcEQdT0Pz0s2YPr0DFvbT98RBB3gDyOExheA1v6lmCSdSmo+1K+e4gXQbEj9R8Howe6HQhtcY3ugaHxVdZAxnRbz1O5LkLdBza/Tzkdu+Fb83mKZbtrwd7evHDCBqmtuO7u34xigRyCUktdv1v/TUCzGpjqt0tcQzBA1tesk45rEcQ9r4PK2YKNq6ejmpiYt6g2pCRiNVnjpvrQbwRieKst3MD300HDrFxRegVTRzBVgodQPg5Jjrva1rDxBd+IZRXwRV2xqqxlaNpxSmNCVk0tNtA5qFKwXYXXkK4YXagnqrpzFzljTwf+PvGCI4WNF8Dgzy5Q6U1iMDwhCw/fDxJRq1oHKxT637veCgI0Gq87iS4bbbt9HHXR33EKL96N/K4qujVUWbuBdHyWBQJh2NxvSiTAyCVBI+KB/GGTYlUiG+zeMpD4kJ8Q5Vy/wDRm6uJUD1Sj4x00AIQ+ISYb1B97+DNPISvk6eNeLiSwDB1F1ObwxA3Ob2/O/OWAq6K9t9A4Mp4B2hHo9ZObeGydeznXNcQmBKX0DNt7zKRDulFE+kt93LuJtrSv82aPjI1xNY4HTFUbax01o9dsb54gpyG9suAokjawc6GQDADlEdWXmCVLdulQ35sxqppDS2+wP05hN0AEUGahRl34ZLard+CHzg8ABkPN/bL3hAnvj/O+5/IP/xkmkWmwc2bedx1ALdon6Gt5Yx64o+OJmiIYjxa8XT3igKgiTbU3XJDAB3Xmm3nnCvOV1R5AD37mSGMMP26Qj6waAvoncszSKb+MF/sD/m8/wBPgYXPp+Tiw+KmVjTaHdNzUsywQAV7Pj/TiD1dpWGjKjGC9XWzvMoZTdelhTzjkDGIEXSe9GjeF1ydlhCQB4aNZZWUNwdH3kFNxbg0USOvw4GkWlb1+Td4aoGFbHaEi3EokP8ASGofu5FAXDpue0j0lxESkgwvHYYDQxHKXbKPpEyJGNxxo4SDYDOp4b64MpInRNan+ct3o3sLNvzp9YwBEnHR3GSqOex8cty4JdgJy5NvAyDKn3ZkUjhOeDeKTethkkeUiHk+ddmUeBaa990TnrGc6Xh5l0IKGiPZNuQZE1C6wnod48uJSTfv33zgIunQ0ruEjjNRL4tsbog5xxztoAoAwu538Y2g7hp/fOOEmkQp4stHpzigT5mvvGklX7Ab/dc6cNU518ZWKdS0V51csipGx129M2KPnHZSPyMT9aSQe5au8OU326qD/gO8Y6Km6bL+rLM5xDw6PpwCFieC/UOcq7aFUGEQuzNl8gk+HSfnCM0b7kX4f37iTRVKB9L+3DJXrQGz+NYurQAD9zy7kgCzbpfqaPWI4hk/egzXrFqpBsTx8Yaxmk4yCT3CaytGBnyNkrh4U9e3quKSVO33/vENFT12n1feFQOcbxvcfipcouVoPkTwem3CoC7ZqfHnuGwB8hoC4iKPh3N/Sfw4vGClwvyfvMIG3AvTxcrwJla7hI8T4GaJWgyhfOXOtOnHHT/OD/e34wFg5UpXnMCE2zY69d9yfAgXzay7c01oVhpt+bzBsLFS1uv8YkpFCug+fpxx6XQUfD20ZqnVT5ByiurhorqddEmvQY67M2PmvHbifVfQ8OPWUhQaejEBIO6Hn5XuB0R/jrPGj1jasSl6vn57jNTEiy7e3zmkKHCa/eX84bAK9b3jMKG0fM/fE/otOk9YRsGyiZt7o37DIkTXoQDj99kMsSh6IZys6LPkiAVvrfMvkoJag/bfvDs6ukOrqvJbnjY+PRvEVsEfZ0wbxpBUgHdOEzKyrdS2W6cfKfHoj/GVGgLbGasePGGkBpKq9HSmKkbemRP8fOXSgi7FfCt27wHdSlV2jX8OawLfv9MYMV2oHrtN7xw9YUm8v925SQnXhMA44SLtyu5taGhMjOsp96TK0fFG36EtmbIku+D8Pxgo+kC1hoqWzHLghfMMRKQiU1hAIo7dDYYwpp6cKGNxS+fm+MKLA3nfqxX3zGxWZs9aNOAup8CazUr8o5TPBK8xE2PNk5cgnJpiV143mhS3cttO4BXl2KNMEhWTxhs91Jt9tvj24FIijzblT43jLMjno45oztB5HNaU/wBLiJS4XtOPNUNzhcZAtQvjzrKKNoOyWn7nzkHo655C9rKYAO0C3a/bkmCmKfLZoxEERaKPmpdLhuT7+Y4rTTWNClibHZwLq4eKuWKPCwJvT6crVhQKGO5jFqs4MZxcRfEo1XzzDJ2bAd/GmPR+hYn4wUNy/wDLu8wf+N/oSYY82vNY283U0es8UsqXf/65o2hYLruF78n2dfy4oImVRGi4SItt7E1hwatdRPONFu38GEnkev1h2viuFE6QP1itILr8YMYPjuBNVs8FMS6teMXKDqeTRfOQaYdHYB9uDBpOv5G9GEoeSuHlFpuXp+cdr8jY15wt5Gq1UYyv75rHAyELlqGkA+Q363np2GwXiJdXBrhIh7d93c/Xq8KuSqEeX0rWgt1gJnPWNgt+vcYW1OFtMPvCLDxgdE0mqBkRbVsuBOju4DRjais9ptbkottA0CF/Ey2FBlt0DhOj4suH9pa7r9+/ZjFFnz1D1eYF9PpP6H/HMlb/AMqAxu7jluvPimI3LsnomdyyfD5dXOaJVVoG+EC9c0fp97MejTfzfGXVVqY6mjzj5KYb8mrgZEdPn6xdPbtcW+MNB94ABb+RBn9CynlvxrBEQLjSIBQ0c2YqWNBPgy0KQND86zRzSCnWq4qHo0dlfOrowWMb0g16zn3KbE8Ce8eIGPf08vJgzzYFRPPDU5gl6B6YCcCj6uUIK2rFoBxkhpNARRnMGYXSD/WL1IenBWtFYY1BKqq3PA5rHTC7Pbpk8I/OFLY6H0nHtkzemi2eDHAFuhzZNlR94WkRyOfGvGQFmt4Id/45/wA3DgUkbN41yI4u7Vh6mL35y1PR5usXQEhXB5mJ28Hi3TjfDXa9+MajUtm89e73LCz/AFglLgADaFp5TmMj5L9vnBQy+D1DXF+c3WOc9fHMRo/K/wCN5AFGcy4Bwzzvr7vnFHsChRfMwW+unbQ9w9XOG1IGjy3/ABiVMVUbEX2awwkg1oE8iGrXeMVDAAcP8NwRKBpd151iySJMu8CAS5GlXmSSk1fDw5PO8Jjd+9qJTya+MrpnVPDgNsTd1K8ZHMoJe4sqt+UjiXUEX0WDwZsMMQlgR7e4adrXDm4GOThKfQOOL/jmwOH9xf6CyQOuKhNXWwpcpEu0UeLP3yTVu3dIuIFVO300QxiqNhfveCInjb8ubQYSfeLNHvpjcNF9Y5P6Ijtdhq+tGUV46/LnBdO8qwa8P4wUA+ji6HkDsZiOmr5cCui4t5/kcliUCvJ/OShQzN78aDuB9w7XQIet24Ms5nSX8nNXgiodeG87tihXtfycchIF1PXiHnHRAPYrvCwNMkiHoMHCR/Gvy5sWF0tb4w3CPiu2kfvjC3iB4DEk7ER8uHJXgnQ5ZtoYzyJkTGlY/JyTfch8hwgCp4sxgHoPd34zig0vv3kDyBmsJdwQmB/cT+jmCxaMbC9sa1tHKMaG61FLMqMo/ZecRV4avab1ghPV1gRuSBkwTItv5Y6vj3hAWRd/MxxE9mbLMUHMd89Z1VzWrhTQNq+C4vVPgfeIkkDjhf5cWiloc94TdiByr6zmThu8XChGwOt3pXWRe7TNePWsl6WelOWSa0MqLh8T5e93Fz3CaOvnBGEaomp9Y96A195Q6J9+MrlodM0O9uJZl/J+8106K1b6t1m9nYElbzl8ZJ6TxfhMQK3AECzvrDODYs5O4EKOfVk9EwI2KFRBWuAgQ1fGzWbsYheR9YJdhTbVX8OalxE5/dsRRmrJfOQLzXR3WPokO8dXIxNm0993lY03xlltB1J3A0bXrhuVuWULXxrSEwwU33LY9YQZY79azdn4CGtYUGvBhh1Zl+lPR3JWwvk8ePxl66CrvnrNCG0685stZClNdYSYQcPI0etPrCZu/dH1qhcZQfTyntybWsUYKBXzWpnYqSG8EvEz27oxi3Xt+cGeE2fjBE24C/kY+scQqt93lxK/ESXmQ87VMhxPZq56DraVTxpM0JHRq38504iH70yVdmvFnu8uKvHa636rlM7Kt5NrW4tCm6t3qt1gpGkHIMkCHZBRm1wdLphh/cuanRS/JioCQaAbV8S4bFi6NrX4+TFSPXd3u5AbNaXF0Up0Dy81ikF8Af32YQGttrr+HHWqXV7rJ7dm8+hv08xtfeW3JIYNe3rsxsilNG8HqQFW9mA7rQmp9v3id1S9p+cCnENtbDxSdMW4AuldmqrGhhagvXYh6Hxlz9QmHyw8WGa1qnPWLtIQ/PzkHtbAPeSSFD4MUFGGpIeXAN9oPTD6yc6w9BvXxjXFR8Pz3eHhuC6Bubsz5nbR8fIOIIgtCofJ8YFUlsJrXeA55wKVqDovyPDiDmBJBv24VbhAO3fMCWuoLPeSwhDFn4nvPdw+Nim9+MZ6N/q9/Rp/dP8AQbh0Nm/GBaMGgeDEFe1RgljSnwwHAbPZGOA3pVSav+d8zTNsV+D6+8ghsRsrMtceyH4bz+imLy3VYU6D+twPGUlT8rnMse5kLNM/lxSPPx25pHaec0oEIuoejSfneTWzqLTd8aMGCUNiA57Jj1yQBG585HfdveJCm+YHYcSQ384AWJHT49SS+cclGjvx8XfxngC68MrHAg8gE0av/mBIvoVUDpMUR72PXxi5cJs8EzfIr9b794AtArNJdTwtMLOjY6m6u6v750m2oG+hfwqYMn6gsXj3nhwthxGrT1hYIQrwTdZJg3sQZor516d5t0L5cT38Zs89/Y3k7nhOw6B09cuGzD+6l4aWegzXRWpHg9swDdATd13iwykp1wNTf8YV5CMT0eNVzVTZCaMd3ItSz1+cdkVfN1Vwef01jNFHLx4+y4CUG/JcgQKXJ1P9mBNUXTx+AXHLJKZar4x3MiL4HlRpDIuVpYAnxePnC960C3vy47R7Y/mNTGTUoKawsAPFbrDI2E86+FZMtlGyNtO5H0VHknjN3oH9+dwECvQeigbX2mb2muP+nARE/KSaO11cgMkB1AfJvBsNRgVR+2esFVl35V9MCiF7P9dxtAiKSj3PeXkSjYlKfTnJSeJfiON0lQ3fIUwhNUV4defWAhg0TnfGKU81PHdXeXTAbe/tr37w0YSbtiB+RvNjUTSIfLvxrhwQP/p/s3+jDNN7+XD0Ne/hN42BROT15MD3E58ZLmE86nxhJkXQS8zUSkM94hN5dZAU19u4Cc2nvzhV9LazXxrFB3OH4Y57SuLmm4uhtQfC/wBmriBPyBO+5eH5xegSpWzmi7x9d6Ckh3fKb+MOU+wmWUiHwQ/gMAOPx7wdL++e5AtpvWmZqcNIGn9HGbzZ+ZZ3mGpiA8tH8/WaoUeq6Zu/v+MmwQj4Cd1LgRQAJbV+MWhN0+1feDemKVR2MJsM14fIbN4qLZWOxPjNgvwj7wsPrQX+cJsFmlF+N3ARWxcDe3FDG7v4hqjc0mUQ/fiOGATEoenHcRW6QKr9xymPUi6lP0IwWUIOBe/m5yP92wdFiTnDAUUAfW9XGwIQD1WIHuuyV4bhBgQ30/TOMnkObyr5A3Ty4ervBFKU8mEu/wD85Mpa6t5cDBGv14zSvsPcwtc1Uej3Zgtrw9LvBtk0a8lndBcEvhBTUevMIfEVetLK4L4LCGNuKY6WZGHd6k16cfoSUbPnApmyA+9mNOoCDHrxjhY47e5sHHTQQXemkPfvuBGiaMO+9uR0TsEdeckUq17T9nGp1s2xp6vznkfed3fHHKx4DlHArs6e+ctcLBGF+3NuBLWgvzjKkKoOk+CG8tk5Co16wPsYHhw1z6JYGFE1dn0C/uUwLQK5PDr45hJNuqfO8P8AcuOskwKEmUSxXfivbvHrRPHiYNnSjL1njHbTdJHhiD0BoPvGWtXw75oz4wE0HrKbTnDpgRHy7cIuW6B33gKKN/r5rBIVNGxtNZ17wlNJlQJ1A4GIDwdEevf+jLFzsHbMOmlRCBZ3q6uIPYhrV2ThuZV8wsFH8OVeBR/iZaqJ+T1iAQQUFp9YXTt6+f8AXrCooDxkbnlHhpOV9uPQWlbIU0GDKfjpr9MbZ5mjWv8AeKGlx501FnGukGoHmXeA7Q0Eh+jltzbU1Bp31yYlfOCg/SYS4mnpVPBl98inq+rhsgOBUBzSHMBSlHZsjj6EagTgycdXvQaWNs4YFTa017qq+bgkeS/3Z5njY/RkE0W3qGjmDlQfSSrlUtNKyplIXf45nRam8t3nWdLzAUDLg8rv4mFK+OPr/eSmTfJ3hrDtNS8eTGcLRDgu3EC6xE5897mtQ7lgQl/FyOQBles8uH5hyvTIsva1he7ymT6HbfjIF7I7RPeDGF3YBDzisRpB8F+caLbBK1GkOj//ADDlaG/Kz1rxcBg12tHwSmV8t1HQ4I2GKbdf4hvF1Kko0D1hvoajxHkNuTkHVART1lUi8g18RuGDaZQV5+cVweDPIfV5wPmMd/ifPzi9i7R40nzhJ+etC9NGDfMW9Vdw3tOra2NC+8ESONaLo/mGItaJh/dmphyukYixVL3j004WWb8JdTziN69w+cor0oR65pF8/piJJYaycQeouua8ecr5EmBKJXo8b5iCHxQPD/Oa+oEWeV8YITw3H18YyKA+fPHrnIjvlgTTjo4bg91uvrNkZwTrDWLpprTbr3lBhqZTxPnLNYfIamWmpR6kUyalBXRHTRjsTe7Ph1vKhCfQn6zK7Ae6PPm/nB4NGrLZ9y585wauAjQXTBXxvmFjST45BmANVpnr1isgJIYl+N8ca1Z0O6c57dKeWb3jNUIbMltBRYtXKUAew999mcOdie7jB0TTZmygUB9L9MCaAiLvVDUJgNq334cWj+7cCzVzMLAmwGnMpoDz7D36wNBTe8aom116mFr2BrBXCMCczQT47eYLd6zBjpZvUxVVp2GNd+XVmUytPIX3pM2q08ab8VwCfRqu/q4Eb0i3VHw+nWUI2bf5w/C+jBm9xKFdesTpzCd39cUyES0Xq1png1IhnILiTlrTieD2TzjkN/vw3XBAAV16Xcw3a+mcPZM1EXWWpO4tQ/8AXmXII+RFLzCykg+EbrCEEkXVbnhivPDm9MPftt7g8M9Nq/nOOaSNsUVCwl2bxWBfL353kQT89xYkDYe9e3D+MN6HF3J99h52mBZNEpq5qP7tdYQl1awK6lCHkB5csXUIQ2Y8Ac0LNH+cCNS6RTQPcuEn5YYTuhEn5cL1B4+soVWWlnfDOCq62bb7/GJJCO16a+u4nqBeTNqpedET+clco9GBDy1/Z6wH3TZ53swMih1oCHcilImia+KDJ6yaMta69rUMU9IHQdoYmtH6/q8wF/QwvX1gxxId6vTjSw227D6dYaF3dButQ/Oafr9lcFFnYb8uzERoC89JiPY8PDMcFlUfxu4AQiNP2P8AvECIndn64G2nQqGv0wVhHbTdY1qj5E/S8wFo3y4YP8vnUzcTnN3VyEBQ6knk7ht9NJ07j2s4+0vfX8YOm24qf3Lr+gjPlElcVUHNdn1k0hHxvbgSQtNLuZooXqI7MFJ/5+sS2kT9duEV4M3Lwi4p5CpO/r6caLDXYuxfVzUY8rsTWATpaLdflucIo0hTzzj3qADnzl1ekrp45zeOUvBN19OWmxPLswACPg/2EwE8ffyFfV5imnm42fqOy5PkALO/nFXR0AanzhOEdUKTHW78A6973lO+Pb73iN1r931hFSj1ez4jDpQQrpH4yILWvrxoJrKcdxcB9jPfMNgohTdwgN9hefsZ5Omzc/nzmwHfXvI2x6QibYZBEeS971yecUWhdaVHZjSGA0HA6N3GDax0b/hxkMmyFZqa/ulng4om/G/H1htCaBcCN76X33Nqp4G1/XBatT295hARO4HAwgOi/sZs328mA0C8f4zg8ml9fzcDdqNl3DBrgH5NWq7usTRrTqtX5MIiKdRdf6xOpPYs7mldVrWvGnG68bsrv1hik6goZ4X3iFJxoaP5KZEo3Nj+SkwdsQBsNJQyc/l4XOC3y+8AjtQi2zU1cqwYQ/4/cyJwPK2VribAW+d7vvOro0h1mAYsEsrkHBfspqZpA1uphFeFxoPeEYgH6CxBtXtNM9Z3Te5fWaBLa7I5xNtvo4wkR8TQlXnMdJIVZ2HeWrQd0FPvNKR3qTD+6cMKCvR8pkxNUpuYqCGwB4v64jvDRNPzZ9ZLB0d/J8+8ZAqIX0/XvGOENQ93BXHQGUVGt4YgN489v74BpVdrp1r88xDVV4/xvxnKBJubxdasVFX8N1lQhXz5xLhDlSzCsvnuzvbaYAXYX3vDi+VaIb8YsBUhlrmDtH39NfjmOZARA8HgMV2WLvxvGODQxWaT5xwoGXyHWZ6CvYuCXaIEge2SU073zeiF8Ymmbn8buHjXBRrbSIuyfPw4Gud8qfJpzinoJmj822mHs0GCnJ05oMERKyd/YvjLVBrc6U/jApUOpHgm8et+ia7+PnNQGjsuo3TMnUnDaW3xrfnIh9Pz/drDjXN4wh0Fxt9uMTCIsOEbkS1XBxbS108e+4oBQaE3o/F95QCiI6M3aReOdyRDFnaXx+cKbNDVyxjisIMbYOuGAI+uzuas+/WTVqaJdhZNZtaieTNU6depnIA/zvKW2CSD19OKTS9AT8ODxLsuBkSVp3Xxhh1rzjJsBVi7Bx/NdDD0wgHKLfkxdjehol7gh4Hy9H4d4yI8NygyrLNAP08pfxiVZoZs0fNc6PmlsyrBeJinwrk4LKisfJqmzDBauy6cfJB3L6+DJdH0JzOjKef9YUWnJLG4mzgVA7cBTF21Nl9s0QJNuRQTRMWbA32G0p6cAnD+6cE8Kl+nhnR3sHGpnM34bjuTZgLT85uL8jvWO9Hd079ZOCA8Xe09uNs9NgXi9xhzWU+dfbg6Ww1+TcVYpOva/O8YKEg7Wr65iVSNqnG+67UzW3wAdacS71Cv+BkAhqTUR8NTe8Qht3D5a5l4izWGt4tFQPnmW50NkxSfp3szfxbdDWnry6y7INHpDTZsx7tBKO27ICen5zbH5V6DimbZ4x0jzJsTVD28QmMsCfs6Z1kSD5M3AgLNi8w1tFGglfjGNrorrr83FbAEO3T5M5wOIafnF8EqbXjBfBwDN/RXdaoePlDmeU+CDzk+INqWBcaDNTrupg7HfudyO4f3Tn4q/wBnLFVOrxphW0G8DLKtAhGfLlhobd8xaNFFezeLWNqfLh0pOjfDmckYOeQl+sOyOkdb7MZVeAe0pkdtAVuiHy8xRPhBXZrhixBIf6Lm2ePZ7v8AgwKOndGnfvAjV9ncvz3majF81PXnN4On48Y7ej6uABkP2u3OHTndaeMVOHY8KHnfnIoQR9o5o+M2kRfD5+Z4zb+XmIjdIxbzJKRX4VMErQ8YqlRWNuNDaerbhvAp8P8AfAb5KwNKuteM3RTxF7Ce3+MiDxA7buORdOMtB/B8VxUGi/Oz6yV3sNjWsEHi6ps+r6njCZ7W+7M0a36w/vHcB3rZxJrTw3U5gkhSheY8zBPoPzhbNNgvvHbeHyNc64MQ+oll53kyje1NR97wFAA+Wpd5bXd3Zt1vE9IQzV24ut3t5JPjB7GkhdT6k5hHuCuktxwvAPg/P75an3+8BTavQ3r1haWmtd17v5csVhyhvDHDPu6xfeM6DcJ5cUPUcoGvkxab8J6wiD10esIUffijvAgCjsP9YGghwB33jdGihTJ1vbVF+JgiyIV7unEipaBuXFWxsF8Pzq7xM+wU58lxgMh5NlM6yTcLuaOj4yRsSqrrvocT1pQPXHHWEGnIJoxPjD/gcuH9lMH2GPNokDAJFe7m/cMIVHBOjvxhpNO1fWCoCmzc0SrDzV/04zqaEvwMWA0ljYX70zGveWqbaRc0OjaD83LGvupbTAdRQ3zWIICunymH1dUX6MOzloF5caI7Cg5ty5cTUofPivnLdc5DuZzJk6RfGDcenwnc5xLSvfrNBZeU8r5bipoH7WbH2eta3Ne8XvuuIes4x/C9zSMwSnBzdekLyS8bPWEPBbK+ca0/KmiuDdjPneCH2O+n3i06K2+33LfWTlumzTc7Y4MK00T71cbIQxTNB51cSGUpNcXWIkb03xrBDD/gmQ/tE1guLGUcM1JDa8dbmUZjtXEMqWo7JyfeXoobhpgrVNPkLggAOtkB9v3ibUsXgZQ6Xbrz2XPOBIgjx9O7mIwKfBae8cFd1HYSt4ClaUXXaXBjUL5fPm3B7h+XjuGskO3b6xVWPIB2T5Jcnk0WDpw4GgIqxAi4HYiEX/3ElFXoqK+QHBoELp7y2hCPPFPbDAo8QX2PnZcRA0VFs/HxmjPe1aHXuJkPS99cFXgfZjQBB2M/Ieey5VaD/D1lcIXV8C/WOIooXz/vx3IpoXTu9TJqWm7qXA597FE0/Qaw3RvyT1dYHu2wOTIDf9/szyxPZcbZs4iSP8THPbNiV1lAlBgt+rjU6D4a19ZKqe2r4yoSUPw2Y6t/ek57NmAXVB8lwwBsDu/gfRzWCpdFHTWJVmlKnt7us2oCOx5fH2+sR0WCg96jrHLZz3/jNYCm/wAGAe02jbPLQfCxRNHF+W5ua3hwOtsxiPr1gHaJV/kXe8LSIUYHMArxjItp+ZgnUjQtlbnVanWv0s38ZSD8wNbOvnd1cLnYgaB02zWMg0FMpdlmIIdsHi98mIYsU09NeZcfpAjpa1b9pj6SmvWEGxaPawQxRO9+y69ZFt86Jo84el0e1kcRF/DHxnP9+mWzY5GIWA1hWNtBDQ7DIALTWtIe5m+h2vTse7wTMHB7Tx8fnLtQduhXxhzqVrq/xmgG9deT3cmrLXbr9cHb154/bG0ZHR18m/EMqEkCOd02HyYuCtrfdEMPLCHfifrj6fY62DVwJNoBwwMIWmAaAm7pbJ3GYcV8Fn0U6Zak01+AeHRvWI4adpDZMFdknHkQxukR3or9Unw4OQ6KIe12Txresl7c16I+8Y/GGsoXgLCn1twzszWxr3ruMbJ1sD5wkrNQfB7wIbLGubc1oKgPCuCx6IPu6mALul9OKAB2K6MM5H0QxD0jvFT+/ceZu6wBKBUNTWT7TvmGufOKrQiOBL4yFKg2e0pliH03e5842RNo04LXWIxp561q+cbtBXe+An4HNckX4arjLKviEn0scLhAgy6r+zMgYg9tadfmzENIrpQH6eYU2mzAkKjCic0/WEAAnpNeMVjCnR15h20J7CNE5lNtrx3Gb0qboOGU6uALh7ZOcT16+NmLEY0NxHkuoKV2+cgBvuL0p7xsXQefTg1narXsxKSDfu36kxKEPL8mBqvcGcHgLN7uMyDV18YtJu3x7ZciNXcHxl0da4czn/oHJJ844SJsLt8ZqCgmjb1g7oUFrmvk84ibfw/xmvaIPodGMFj4X1swlfBRcFTQpJSK5aG9sA/duRmk5v1vmWGg1sZ7Y4l4sOkcQhQNaX1veXZnnb142mAzrOjQfjFwAtJpE+XOuGhnJ+XmP5g/DpHv3lhegzr59WftloNOiHn3mzXp84I1eE0mHQvdYv8AjEY1fEcOlSIW4N5JY8ezF58dCX4HEUu+lnxkHyY2XCTe37n33FL9Dz8srCE0nuPJjBQdHq4sYX7H64aemHjmc/8AQJljCHVdaa+R+MaM3T20Uy9C+31Dfc6QXhcDCr69D/eAPZYntMgoYO/j1JiAXSfJpcFNoS/KaxXb8AN7AwBDS0C2ykpMT0HYEXY/KYSe1I+TQydx0GzOGRk4EEsvcdtfOzW8Ww+RZ6+7go0fROTCDwXu+Zs4Ws9J6mNul8Hm+3ClgngPea4OxB8e7zFqe7unje8bh3Yokz1zweH68YHKDtuvPHB74PHSvWAHwNvlSaXCGh928CgtCXgvqTBwo6Ca3vHdqWkjZzFO2ubduTfg1epnP/QjNAHmNVDxaw3QtJ2YkZB13AKdJ2jIRgdWacJM0Ck4ybvafIcB6aFu97eUwjdQryni67Lmya+DVK6wBOtd+g5q+8RtpV9A6cBBq4s5jXapwfFHHJeBVb+TEA7d4jvXPasxNQp7d5AEJVpaZq6h7V86bMO4YQslg9y+80qE0bK+LDK4QBPCafrvcBrG0m+GRzeqY8bRFt079GRn2ptn7GDZWIh/0YKvISbRDVnszcdBdKfj36xRiVKqUYcwwBLI9j4n0ZYDLM4/6IlMBNmCMQis0/OFsM1JqGUqSLPZ+c0CmgFqhIYiZ7WkfpLiGBLYg3r6uQHqunn/APPGMIklpf5OABLfn4sGa/sJzeOCCXj5PWM7ppdZda6Fe244gymklfjCzpZkZrp3YnnIomnpUjjhhNfedZ2gWJ5d3oX3kgkoL49ZOhBgPHrBDv5nkjr7yFsk00oZ0gJ87uUnQfV0YyAoN1I1zCLpzdR+sK1TSDl/9xCBAHudXW+OXHw0p+Uy9R1XgIM5/wChcTEMcAiuNLREuLHyS6bMeBAlsVrZg4hNdqm/WMMF0FS/n53M1W2pT55+MfwL0s7vcwyYjNE9pfYOi4F7mAupcZDQT5nnva+cYxd7W+N+cgI6HU4Pu5vrOBLu5LSUbxsmIQBNwg7u6Txi+QiTzgg0bwSHS2LrNBp0ayumhoDP0xAKImk78YOHUIdxucNqTw68rjwGGgPrmFaJdX0/2ue2i3psmjt2mbYJoNzbZpc1m63wIV3sxVd6WptwaHJip/0Tif0THcwathx4DrznQ2sf1942wfKvQwIomi1u35wInV2GnfWUCosFJUwY2BT0ur5msDBirZeXdjhzGjYm9YVPmR6TRhYUfN0ob3VuCk2y/S+8ZZHrWz0PXcoqddmN9HxiDoFY33hAg3aUd3zmpvfjf8ZdNHPT9zBx3HQJ8vziNOSoo+7gKLA6G5o9BlTQ0+Liwyla+Z92ZKADVV6rigjwNqPoxjo9tPpeZzlIWevLlSgTUunZP3uIhADQcJhYU7g/9FMmN9Yaj4xJnrcs7m9YGfZ8YNIg3G5vN1LTT5/TAQ08GyPxbtueiD+I7yNiu0DQeOAA6hwfk6esIc73p4mtjjC7PfZXIwNp3XrF4sFtTevdzYp6aiVye7NXzX5s3iKtPiwVwA2NmvYQw6lvh/45MZJfBTfjGYRUjrbM5rVAEue7rcwGIPKGH6Yw7S/E4X1rLJPtZjjVxHClwRjPA3WeKYwhje54Lg+vevRMk4FoAb1fvFjBdqqH04SNnEB+pkDLveTYDlP+iTNGEQIkmRzt8wKD8BPrHm5RuhtjAYQPE6enqxwrkSjqbxzkXzIOAQEddb3hEDa2OhQO4t8A7Ht7c7oATSOXF6DZt1jdwTJQb3N4SD8+MThWtCWe/N/bmaCG/MYsNgB06UwUx526hmm6W/TWI68MT9ymSYQPUD3zzn7yFbdKPswIAEjvzcZaaC902O8E44Kr/wD0yLfp7fORsMqtnz+MQx1pFhvc85GTSIuKAST5F5x+kdYiGGB7w03gXDF/6BMHXFajeRV1Hp8Z4Mdk169YE6CRrmB/AInoH+3mUdAGt6+d8w0IEHw/OpvAcT5anPhxSlBslkpJDDeG7u/frHRDT2xMmRA702f6xXR22muazxVtj96+dY+MY3wAHcIF731gElsaM1wzYCJ2018E1i/h2X1g93vt1kNrkj4kyTb3a0pwLUH6snnEkOQK1/8A3B7RizeWMeB4J7yqpARENHi9WYLIvOoU1Em7hOuL8T1uenHVB8LP2st+slYvqhT061m8SPGl9y38GA7fAl1ZvE2FI/af0y+GT++OcYLlrMQlIm2+cB2Zo34aZ2QOgTTvdcSImu/Ganyg09bKONMvfnENMpo7qYaC15b5xWnlDPEydjR+PebDdZoXBQIiTzvBdeQTzrPMIu5U87ynkOJ4wV0TBr9xxuUR6viXAIweY+MZFLX4wQcH128x/MFS7chPEu9gbxIGDfAJfXc38JPguuXAonsp2d/PjGcShQqD4cvqHh/JgvIdif2YgVCnDe+T3+c9MOgWS+95ayi+ZB9bxzuuH8MSPwDco59sNP6L/driy4qAdfWM8ILfeXBs8mi+nDJ30Ned4vTobLovnXnL/pZL0C5AbjjYTcuASk9dzmJE/O8N149+fnNv2hDe4/eKhSHjzi70VLfn+cDdvAZ4BPT4Zd8PeW3e8jh1tUkmb2a4DnvxJgKFLhLRje4x+DeeAXtfv5xV/Lj5feElB1+XJV2IO5leJ10IYvSKbYo0rBi9g8G3SJt/QwvFMPCicdN4iXQNaCsKdoYRoLIL4dj58uKkLS0bMDQ9C+N+zL6AjKkW3LK0629auvJk+sQV96J8Mtk4EhNTo4cNCAG/X2y4SwL7fvWAgI8jcL84ymGReZGXL/y3/gX+jzCesTpHywj8a2BkQ0sAvK9Y+tXEZa1uePnXTFlyrJPhwoDor+nPvDyaLE6PZggmlq4IOz+Xs+3Ga2Hr41jDQDwjz93eD5DUuKQKl23gptamzx3AOhNO+8F9ppGnBJowUQAsT5wfRndmsDYuNtftlXHbg83GacPt85YRXzr3l9A6WGqBZjBAO/AodI5dQasSWmA8tF6K7qtzyZUNhD5HR8riltSC9AImheYJJtsUfm4eKviXn1jUU73meKsyifxBOLkZ422J1EMLrSEClj0csPesSwwS/L7AT4MTFa2j61xLkRgJeEp8DDNjOmzkjMJAoiAp+C4chuBDa9eeAiy6SFE+DeBAWiyL+jhC3By4uH9kcODquIr1zsy16oHbPzgQPQN0l3/u4EWHQHQ/z3GqaIEG9685FH5d33AKSTZdnN4kuTovxqf6xl7XyLsvnd85F87vfvNomptR84KVYqfXx+cVGR8l56wkDoPDh3AbADzaszdD687HzcAUq9g40hDrZcjtsd6OYwLCbjX/AJjA3p9FMrZda+sFF6BV/Wdy4KnbihIdhO+2CL19A8rLODmgDxzKTqdB6uJY2UIj2qeToOY+aUpslNvYYSWmggGk+2xxXWoin5S7wUUfdBJPW2sg10UFX9DgaM2FNfJJ+dZSsLspNfS55NobCa4z16zz7FEFHqGssnM2nyeXeC6OtGVfmzIVPY2+wXmAoHnTdSsIx6GuQN/RcAmJaLAvpY8whc4LNPUF/Uzdiixo1wqn4ZgqKNw2M0CZqjc6VN/MmLmpfDpwTiP/AD3FwunLBZ7rzLleR/k9YI+zfYHqFuXcAk32b4MJjR8I16xEXbkU9lYuCZRNifNlxhWqXRxuHLqiJ69f33M13usfc3MicdbHU9YtAGbN/M/OzEYpeD+F3NZAOiNKZngjxEdwMKQpPj7v6YIyFO8i+8NrUm2aT1ccZ4+NrcAywL3zhvUDTpy1Un38YibBBsd9YGI3ydd7XCKyrym8VD10YSxVFTUmIOVN9EFaDN+X3ibYFPu5XUMFoV7EYHn34cWxyD9Sul66jlUgiAeCDFGxyRIpAIhvlzYhEGhZqd1jjaGNC+SXzjE7IRfTivuWI14sXIqYkotfThvLFJxNPhuSdGMYIibAnbYYqFmwp+AeXzsxsLBUaHn297DNsnsHK/Kn6MmmqUftPE95BjZ7fB4i58PK+32ODA50RZr1izhNC7H8jXBTyGEQ8o/tgotxwad8U/eYdDtDyAem38ZpHCWo+Zs/5lxyoafbwxy3x9zzgJYk6BXxMABM760E0TWNpPNvj024+Q147N0Y7+MLQheyVnmzxiViQdbpX15wUQF7Ysm5YD5Ov6axdPvjwFzZHSfgYgNH3hz0+7kKkCUPx4wPSHV1PIe7nSknbxv16xb4XQRZ8g+nEgOHhVq31hMLnoLuurdYDYhTZP5xXm6BKdfRiiD8I+JildrrT7z/ADo918vMoBQ/NT7cRaeoL59ODL8Y9/RyuHuVb+n4wa5MmO3ptm8QMKA2adYUjtSoK1bWst1rFfgoNA+tnHXH5hE9/BI4GoFQ07AQ9ZvkQN00f+4su3YAZDU9yzbgEaQB7+n9nPBrhCfwsDJBGdh33DhlEx6667MelNfC3V+2Tusqpdm8mOxXUEH4wGF7gTW2mXfZi9SOwSbca4gzKUEkOsmNd/WNet5KHg0Xy7PGWFh5/kdmDro90N/WcIvI3T2GEBRsFQzEFVDofA1gWFHhT5C6/wCRccD94kpNo6MB1GwL1htQGyfBru+ZgYI8qBQNpM+0ZCnm5kKS3Y7hVUoKs6gup4w9ywKJPMfe80BdmkjR2k94bNI6V+juIPOTKCMi0/fIoeUup+t1haNrr0Pcs+Ua5NbTHSq29Se9/GbtfhSVrRV9XADV2G1p6L6x8UPmx87YhwGks6l1jaqJohR/8zaBKJph3tmORL8Dufn1iB0EpXVPeATui8/jxkgiMdI8n/WcBTprSYTuLdnocCADX7DDtB/L109Ytcq2enoM2FhM3nNDw7koBAsEvpkfOzeATYkQ6Og8es65nB2eVM0mfCBA9YumPT0n0ZBVjvwX/dzcuRSDLoM74PvwDrrA5DWXRG3yZ0IRR2MSSRxS5bD+AJcYOiTROfU96xxRb4lP3TOwD7tsF84lPDQVfo/kx47SqcarRXWR+22ipTc1lalTaXY4HJJ5d9Y9FLN+Lfck/GSwrHnyerS51O3QVeklxINPpIb+WFx3SLyw1/xXEGD02e/GV5cd/jPL9Zq7qKxQ5XFr5tjd4Rwqmk2ku+Zt3x1C0B/XNfwkveetGc4kOugm7qbzWrr6CBj7IDUeSvDBJo8jgPq4VNR0aNm8AwUr48HplPdCPsA2cgsJGNV61+2NvCX+EwQggh4A/WAAHw9eWhCbxnoIK5o3rhUv1KQad8OU3aZLtbI+8oBqU/U131c0SrffXv6ybfyh4xBtq6WWeO5GCVtmClarfcJ8BhcIuw6r8FxaR148J4wQTNuzcM1cU8I4FAPONYquALbiW7I9lAfT7yKaDpNj1PyyAjKst3DZPWibwI7GBGe6fNuEREmuhfSpk6mBigt3NzWFVgWFRGtulMs7EsFqDW4O/guLFQWou7C+OGUzswLGqvzvHKFQgCFJBFdTZjVMDIqt6MAJKpFCFnEWYLoiQb3ql9YYvl564Eqb+MQtB23rQzK0qR0Ch8r0x/iJC3rzEdPeLkLoFgDTrHxYRiMfvKpAbtU2sxsRNbaUO7kfnEOGBH29YH5I+S893DbB4so/s/8ABcEqzFbhiJUh5ciBsyNu8aBlQCC81hjMGVADncdQQhKUkJLq3Ko6ieCuzyfkwz7/ALB51iVKM69ZU6M1vWsd6O9+eeMahHJsYDgoLGABovqXpjNgB61z4M3O0Sn6u3EBNt1snjCEPYzUNU7PecJFxXkPAvBnISxnppPziZJB98P1usdkW4CpV5737MhKIHaXibwAchqA/Qt3gNycC8U1d5KNHVL59B5yoEXynl+7+2XgGlXz/vKhkcon7uaEtWp+HrjKh8kvk9rKbx2glfKUmE1wdNNzvE/TAC4Lt1Z6+cWhP15kuC/KDHz/ADrJRaqz77vyoAZpqfsi9b7xC8hd+Aa/ncyGsEBpDmPgA6mteV0yOLzVEBN+8uvIYpavAabbrs3+ubtzBJ4lg7miYshnvfu4KURDwVFs810esprV2Q2ZktrN3B5WTc3c8/XMQKSuQkG0Jj5To0ppTc/RwRKaBuLu+B9GJ4YAk3vLgKcezDzaPcE2Kuop9T6uJEIkGuo6Sb9XuAl0u9G+N71g/gPk7AeYLpRvz9SGTy6PBwxlQHnrfvRcQ7H1Av8A9rHD0TPCvcTLR8jhRTodNyDNKDStJ6DgiprtJN+oz1lh+0L/ACN4EsygegnnecZ9qu/bPDT4GuzmU2YBGavMR8g0Dy/jDVRaeZXNLVOES6dOIBHLwda8TCbyO0nk24xoKxs0N581y621PG/GI9gCcqg0D8y5AMCjhEBA371iwB08vvNgkOedmIKhANrortPVwjob4CaPa3OQeSLom7qlx+hKw0XANtCKbbXhhoWCKHb6uAW70o0Xks9Y8pi1H5yIu0hooOgzyVx3NMa7pdk+4ncYQ22aVeeXmQ0VtdNNMnjFVBBIIrpkm8ON3EoC8uprWb1oXZXqvpepkYINdqaifOaIS7oEj6fBgKWNAu487JZvERFoje91d6w6yo5HoB763j3fQhtaywip5aQyNTFV4TXhcUja4ldvg85CwQpNo0C/nKARWxTVnb7zVn3QEAie56xQV3FdAl8T8+MUCnkrYgHcHmHLtWeIfGFy1FruddfPh3kg5AhPh7M7ReT6eqiXLK7h8S86OORhIhdUuzzCI0aMaT2Vw/BHtvMAbj3gvA+H/wClwEcoElDwYiLUk1pd7ZcmqFJVFV+dZem9Ku9fLXF6FdV7+g/vgLfXezRPgx6wD4vV291umdJvJWbnc1hV59a0w7MizSqvyuqT1hrHDhNq4CSFIvrGkJKjsPw44Hb+U0uG7XIjHWozmWaBovyGBb8b84arzBB8CzfmhnVQbW26WvWWh3YaKcVaYmbRHwvwF3lQD11PqjnGrT2mCQ2CBfD4cv0AprX5YSgE063qNAbYuhrJPTxVzQxq3v5Kn1lJYaKAKbu7xyjqMUxuXEJtN7eE1sjg4zYF01wEtqUiafXMllR0LqP1P2xkdoWB2HMYSch6IJQscZdKrWwGwA+jms2IHjeutVvHhgPnBFUd9s8eseAAB5Q+oHDAAAhibDkwTLdleJCbykPl6pN1g4mrgpWTrleqpCq9bMLZO1Ggu4S4tNiGN+qH6J6y4HUxbuLS7LgMUJvR78mvn1hkEdtrB2/ODxDWtVDZrchj6os6hrTvrjVtJtx/V8+DFUbp4Bfacykr1twPYkwlOig237I5FSF1oX7YraYnE93OfwdFjuYLwaWhC+MqKnw5ZoHv3/8ALZQB5zX9namMUhQvdJgBVUhbguEajf4wqsANT3X4MntAeGDuwHHVuMsjU7OX5xcNd0XvrNGIp4L+XIdAc2XvtncKCa8qnfG/ZiqAKaO3HwhRrXlrqeMjTJX0/S+sd2AE33vMdb1rYU1hs3son75W55BdUyX6BnUnQZ65iPYtll8VL59cybejsCGhzrwJN7/YygD4QPDCsfJeBTI8SX/9fThqEK6XU1CJkZ3KFCAbCetmPDQQRt84QqnYC18+Zha8B62poADcaSi9qKjyXn2ZTyEV1fz6xdA1VDR3bowJNYNmWblTuaKA9wv4TmRTwirgiLX16uHb9KifrWNypOzaNIMAM2GViIIW8PGUp3meqgTIFJpAlR+V94pQI7PTaclyhw8J5D3kLA2VafVM8HawGPWKuhoDQGbwSDsYW+eNQwpAk2+HFB1gbC9hyJZgjfR8cFUrc0rp1tB1iOB12hx9POH2NSUJ4gfRcBXiEwvUaeemO003DYegu8oKaWVP1IwpKg9w35+WdriqUett6XNA1fBYuBtF57cXnOz0aUuF0RlC/wCHuAf7P/gUwBk1UFPId3NeMXsBnruLYvrPeriLpsr5vrAiDWpkoEB57/3gj0dnlXbrDarOtS4Bct/bz8buOWonAarxy6xLbjoJyawDEs4sCmv3ciAkOa/8wEqqc45sxgQbHepNeH55iayil7rTxzAJHOFIOWIIkLgRFgvUr5NUcF5BXCcyqIqRKHMJFo2nk4ZbLlphC8mPX3hGqO+8+Xj/ADgWgBpDW9ax1YpjU9hsHvCP5SKbRUQk9Z4Roqfa7xM1gI7jxGuULAKBAOnx8A5TIw4Aa90Txktor3oogwWT3kq0uldinXPz5wTSxpjF46lXCXaDxi8O+3uYKlQ0oN6QPOsEfDi0yRGY4EECyh2j12azWgUDVNa6+vtlYUcgFrzX4+dYsmqjPLe19YNit3s8lgmeRgbNEmwhdYJVIp0Qb4xyKwTeZfeQtmgl+SmGcmkAezy981T868cEHcOBTGks0HrK7/J2U7fB1gtisACxugLbgbArUOj4ZtlHMZkTxH7aMN+0X0gNljPbAuwAAUPVMVQTYSAgfOSIA3HdeobwUI6NNuvWnGtaptKfdZv1mhQ09jDs3kgPxYxdstHCM2e1N7yCYMoFTvg/f+iwxusZiPXfbWnrLSFuyW6xFoD6G8bTNCm1C4ayBt0kyVCrQ+efN/Lnxau03XAkUXQuu5srHO3ZmosNz6+C+cYgoQVSYqJsfj343hrbNXdSdwCCgTvLo7lAJHTGilzcC9T83GAfGbwLr8mbIReGtzIF3vzkwhjQB84saYXnaY6Y1SvQlHBZoSWpbQuTJIVj9Np84nQpUGg0biIWWfLDSrW6/H+MGgp4PwcMlhUmquMPsrTR+jLFSnhmz89+TLCp6dZvmDERvb6WBlIrSAXXv01+MNkZi4r4hmiIeDzD8TJsILSm/oRxapuPqGKJ5Ztx/gkYQ3YGafvJ9ALEk7iaNNo58ZdcxoEPap7+HNeLzGeGQRmy+0NYgAAHAr34JzI2I1rR1ony1vIgOXpvKmDwwFhN/qZHyGjHer8/jKSIa12F8PPF1mwwm/Cfh0cKrqmhLYInAvXDIwI+BtD0m6xXIATX4cF1PGCLeIulSbp3AqRVmKVnIZrCzSRXBoYu8WIMH4qQs96mahAlQcH3cCEVrc96mAKxOOm/uy3AEU0QcEREPDPGA1CnB5TC0UfN3gtfCzywD8GGbTFqszzoDoez/GCpCzT0egw2KpVbL50nvJ5LkChkIZjQt7N3NwxfPreLq7dxzTJnp+rnAVkPWBe2ovmt1rGp3rU+sGTVXg0szkNIrOfGIZKT9+4lQvg6HcfEtLT27yYAKujvm5mmV5AvfhLjciTPHTv8424jtfJfpwebiJfe93OBtuEMLq8VRjrzjROgEZKYETpMjdNTBfrxTbjXzMrDAruHFLSk0N3/ANTFlDkFi+8PPlfP7XJD7E7nOfmnZs7fXMtLbd0A0dcitjhPOJIwY/bqYJEOkB27twG4UAf3aH3mijaI/wA2zLGVPY3R+H1lA2Og2D695FE2YP1q39PGJaAVjrUu58OINdpEaddCXFU6+owGXxO4kanqq0E8Bov5z34oGpPW8EYCeM8mkyEBlWi4KsTpnm0Q9tdmJFbiaOp9GFXoyJ+bGzmS8kmxEaH55gdHqu1mnRa1kky/TT/Bvxn2OiAZGlxlpuNO0Gg/bubqceZ/o7s1rGdqFS79ncM9MpwZZ2PO4GEMVfP6SYaseWzO+vm6B94PODZXT9DAyX4GYDVJ4u8c2aoAfOKCZ4J+AwQhWAx4j8jA6hPnzuZu29B9eTHPgnn4+ZhBxhz85EUewfGFPWsukANpHrrLWoDyO5LQ3lvU8ZTWhr9MB8ngGDa1TWnLL35Jz6dYQeeZLs3cKegUG9nrJiUUJ8+K3zvEtihahpdGDNmPgWZ5YppfJ05MJXBNTKeRdGguBG3bk4/GMC2m76PU6YDunXPr054aH1PepvBCoBsCccBAVs3Jq6uGvqWnkwLpuqs54xjNj3TbNETGwTyB6/f8437Cm2/XXErZ+SVbgC23tu3nWUEBQN3whicLkCoPMXnR8ZUv0BAprnj9Vy/s2ytHVSFXAgVApzUOb1eYQtNAQn52bnrHzh2D405N+5hoA7B0eGpvHEBAnpy4a1gcZRvTxtwKfEOwj++WoIkK1mm6q+EPnN8BkvZb444xOxRPBHSfvhmFFW2Xg37Jh20QCn6EeVr4wpkiixerKdxml4S4QrD0GsCzrMe3d6eGyDo7cvoXBRvb47rAcswsALrUwVQE2Zr4cJYBwto/S4QVfBPH4wd8ge3CgzNGmehlVMoY14esNfQxxQl8tKbrnqNSnvXX7YxporfrmC0NuOSrr3YhxB1H1kMCHfMPzlVqmqecCQq2Fd/hZzZikKpddbrweLjPIa0fuwFh+p2c0YKTx+5duICFAYKBo+OSYdhx9o8ueTy5Dye82wRkLp9OAaqSvKcHyfrlzu494IC3Y3rJ/JsSA97V+ML0VFGlfC9uPoKth2tu4uLa1EN0G5U1mlpBs1xzjqmokk/yY70jb1fjBFjHdI4oUzdryZEdwJpeTzihsu6+Pvusm+eCaqfGJask1X8TJyjqmmrBwZWdgeh/05onB11+GYgaJUNUNNMPyGRGxUUaeFhjiDZxNYkQPdXfBv1jdJ2z59B/nVwxsyW0PlyGEUnrejKFpb+fCwusunW8UHzpcTtBePEe945vJuI7+Y5bLFo2jxzcgNY+j65husq9a/clhhi7ggJRpBIjR6YEFim7AQ/FmKjq8AdPk+TPDAHTZ/J2XEYZAXSgHhNfGC+PrS8EZW7o8nuwCbozCaI9Cnz7d5A6IxHusk2r6MVa3BPg/qn9N/EMuFgkwbJWaaQ+8NAC9/8AM3OqzbfWMu9wNel5HwHjPCtC3ovOYD+V+eYRugLT9MpgugMlkdwxdloBdsVv5MVkVD4U6wgvKhfJfO8rXb78/lyCF2dub7XkN61rNkShrTNesUolG99xhAl08d5voUpHvw4UvjB8GBCQgFHLjK0mgPK4IhMYNCfcM8OtPFKPq6+JgxQ1D2njlH1hKfQDB17Hxgp46jZWrqb+sAAJ1Vd7uCLrfQOPs7E624huiIlC6/GLejFek7zchKaDUPGCxMQt7PeUGQQD2mprz6uGJ7EM2Tzq3I3Zm+5b+xj2XCK69HyernbeoBPoWSsF0hbOgpx0XNxChN9H1N/HMdzlLWUug1NYgErPY5zeQgq1ozsHzlpAbQXS6mAQ2SpU8RabxbfBSHoysG5Ly02hYrEkXKm/DVf/AHBHjSx0auzWE2bUogdimz5yHVaWunRUVHuQBmXyejxPWE+wkCQF02f7MU395iAC0wokBLAdVb+2aV4FWKTY80xNFSKvmoxdecAIJfXvGqiEKkilNYOAyYORv9djEus8qnuIxF7D+MIMH+FXKCE/i+JfOA0jX41iGPBOm73r+2MhRiNDh/nA1ido8H0gb1ciELJb0SwnrxhigM0PCbhXCb3h+DZkXA8EYdROAPN9rjA2Hq9LnXgHRdfv4cM7olNcuLauvX4yZbWx9fExFGS3WLbhL1qmIbiaKF2HTiUUDZGov+stdIetwHr9zJ7jsRuBvXrKFXYPT+xlk6cJe/eTuY+Hr9DG0EPVq4QmosAZkyI/bVxqRSIymUaow31cvgukbHousqm7tSePhtxviAQ7IUe2IWoatnju6+cm6aJtXSvwcAerTa/APLnkm/SffJlahvgfQYaY1JtfWLrs0H26usbbXsqr8fmYpqlUylUI/jN9VGfKEurk5jfeJrGEfHjG41nmv4GTAQorZus83yubsFX0PlsX4Ybk3xPyH4tmWnAzPSnreV3CNHPThJCAmx6STx4whQRWbWB324HUpVdU+sqeQFeQ3wyEA9EsR+O53QNgH14vrCg/fxM6ZN5N8yf0P62DGm4hMBMtHJ3bIUNLhM7rtr5cDdR3rpCOscgVgWoPnLQVlXg2+B8ZujRQ2VewFwmBwX0fAYvtGs4XcwrHxBfS7mUOBtbwE3cts5IfMbeYYpT2vfdyw7bt+POpuZASq8NtH4xCoQDo3++XxbtNUx3Db3HGQvg7MVfR+m9YErIKHhMvBCiFvj3iF1PEvqb/AHxfTVw3J61k0ATuXp85YYW7XWgw7JptfJfGbwJcE/wlya14fu4L03vgdXPWls1xwwOAXkKbTXjC4rRe02p+WZVNkIRZ6LnE2XUga/LicQqAOGrjk7AKb3ZKSusVpZGvrnBMaohrQBNY6Gaa011xl77DQX+N4gBtZNlCKtNZoehkuTWkh4zvSPB2eaXftgtcUmkpttgvsHTaccw7pKFEDvgdMWAHUKk4r3rK+e270xBIg+GITRkvFbkbvKLAkb2Oo9YbdLmhkd+WspKIF3Z5T9d4omkTeneJ8YzV7k8ZN1C+sogJqLXBYbKMnr+ibwwwP6B/RP6JaDRiSnjCebgua3vCsFM2T0LhhFcC3prnonbhbgUL6DuRAgVgsXxzOUIdlvqWfvgfA2Q7/pijQ+o/qYRa2F9DCNoHggT1komruSJ9Lg0NrFLS79OB6g1BLfkY1BqoA+M21Yf1Ga0sIAJT7fWJQJs+BPrHsfinp+DExs2T4065VDA06EwwupwfP1brDQWzl7SDw6oTd3h/qKrx9XF7UhRe/hmU2/JaWyT89w601h5fdd/GUzceMUuefzY0E4F1kMqoqeRNy4wKsoIojNeN4WEEJi8vOZvOZ+W/X755Vh2ifqdwWLASu+hK5bqVX/wwfM47sPfzmniF1Fqqms0rNNLxubW2zGwgzUdEOdsXPoyp4B2bW3JENYweDhji9dbh11OGN3Abr2bwKFcErbjHN9t1a78OJaYg2TQaLZgqxGUsht/5g4CnwERrj7sditxDPRvGgYCXRCDIAFiX84dG5c4gq9dHDPgtxokL4/GKB94GTJ/8P9RruV1gKfGg9udfu1B5cghUCfIg75PWNAzQCeD/AHl8MVjTWulzVu8o7z3qmAMr+3LkAWWKnLmvXP1f9ZtWodVxncdXOGls/GEaCrHbduxMDt3rFU8gXpiwjVGo+rvf4wbiogVc/nAKoAPM6dm/d7iVilp62eqYTSar4MHkx+os3MXSK0os+Kzy5J1r5jKGavALZg+ovHQlw51AUO6/3jG4EWr4YbjpV7OD3vA0qUXXZ14840kWKPAV6rzh7Iuj4J9d/OLr2kPp79YwPIqoR+Yzbsaw5HsMkWm00ZIKjc3XyDIxAUBm0n5wUARHiL9G87mUxaH0QysAuKV1oYOEV1W1fWhwCDVQeFOjSauSDh0FaHyZdaxVFlagKhUuvOKST8SA7g097kQ2yi67TfrE68XhWP3JzxllbrYBD4ymhlVUGmmB05j4IUenDDEE3MQ+E/k8e4i/VXdhx8B4R8ZKoL90a54hjEDHCu1Nnv5yEaAi18n8ZL3GYEc2N6af6CL/AMXMxgK4pr6e+dY47qdkvcXohoW1/jvN7B/aPzqYnEsaNPoxNXQvoPTXcRJDaUS+w5KHpuRcD6a5+cUnE6lncivogrbvASoDZMN8697940sUnO5ypPeO30gZ5WJ4vMM12QnDw7lGgRaa2edyYEggpNhdcHBymg3mlw9gW+6OvnE2WyAcX4/zkGEqJdUVQ3d5pGyqojq9y/Pna3b94Ex/RcrUwNw6+IWYRaWulvph3NHSdD38v10YxufAa6j32uKaE3DzTb6XLMYqrNsABtYbU65O4lRK1TovnbKtxWJW5puSitw8wl6j9R8+fziv+BA5Pl8MVHSAuzrvr4wjFaqcPsxHDc5VbD9tuXeNaA82tmvjLUgyTE6D8aw5RDQa6svvuLtUjVDpmh+JXFkRvSdcG7GAYBgk1PPrGEct4mdeH9DJLSifXj8fMmQ5XWD5FfpzCshBYPS6vj24mxaD6Ba7+PxiKGUR4KJfyZqASgXag2/784RpZ5XuBEuGGi/J/Sf8T3DXy8/zhiku/bZi+CaDQroycJKC3ypfOIQLGlDr2/bG0a3Juy/jCyKIb3vFd0lT3eH69t4NYhqj8Y9TV4ezvVw09AKE204WV1fQFeU9YJ+pSG4/Nm8UaIA2CTa87iVKhCJjZs+O7yWSj8J8P4jgj1R0Fj98xQeDi70dmaCSbf7wNbO3XdpHu4hU/KOGGAMQKnlu4CxfAvQ6cCgDf1M2j6G2pi5NQDBH2YdmoSW74NvM1D0JTSouOoEkA11gbrV52acmueJ2B40mzG4AkSSTA1S1UD3o8Yt1I3waN7kmNihcNc/lwY6kJDZ2YoB3R+m9uBMJmRvY6LVvyFneYnRidCj04hlK4dClUAZkd3eJVNCQ18YLGhm2T6DI7Naq0FeU3kjQhNdJ6ZgM+N6GvSdxrqa1I2sLDfmK4kSfXqE2t3hAoVbDWvLaLg1MCqop8e8lENGrs04AnFRPeu540CH5MuV/owwv/Gc8YzAy0qWfWFExhW5frBXyWYIu733jdRqq6nDIAIq20e9DA8YYPiZ0CpPAt9YfqiYChojbY+kwnA3EF0/tggOG8O4/OsTII0psF2/cx84kfOH2sBpoab3d0DovOJnGAIjdxBLR53JUdNAddYRbTZTwE0uEaV7g3pqZbPgmnWKAB8Lb5wPAOxOl/wBZZWgo0Kd9axtF3Was/wBYfsF1ex5xw2pGPywh4zhYg2GrbB2uddJMdQ3zb7xyQ9oJsSoYWk0ABbbc3hfR5j848VKwGglsfZ8czTNoR6e8952fSr3fibwt9Gbw+W8McgWppJ/gvvDXQjqXu78ZDEWWDYHDEm20QIfnt5MpLW0jwot30c1gXyqlHJSLUwBuoYqoH37yEAAFzry9ti3JAAegKdbo/mdxGPA0B/IN4bZ5dD+kTeKuxEJQPh7cpmKrgYaOL8lzygd2NO9yrLo75vdbNOLIIO/p9YI1Enb4wiEgSj5YY4GqbJ5e44T5wyf8jjnXR9uHZRm+NepjVJUNJ6bpwv0O1vNYg/TrN1jCpbi7ps6+TTBg9uF8X1lpEXZ63hU1HWaW3R84W/dQF3ha5ANsd+MRU7YcAuTr42CVHXXBkDjBdjsu3NPjOqAgjspITe+3KyOADwfy4uKOeNJCtDxhghGzYQ6/D8ZDggBthO3XmzCJI7b09YtretbHzXW7kdA0+1R+pmmiqaikmFdEtJ4bWvguJ4OE3R7OHcdxktioR/c48QsHe2OhqL0yAdak+S+nY36xaiH6Wn2XLYRnDdGH5yrsOq1Jua7kQBAkFsbjOh4a0B1txyIqrriWHI3V0PNBXYa3ngFU7abQ9s84Jbww7i7FwLahtni8yS2ojUIShrFdQvCnrYvWkxZ5u+cHrdweMEc7Cvc1AqA3iysG0I142fG0y3hRc/U3XGJoSXBdr7bkt1NPfzL5coL8URi60/LeJORDbTrvEleUkIZZtnU58b8ZJRsr5OP64CyPrzzCl9Jjxr1hMenD/ltYeC/lxqHzb63iz0zyWVv73DHkYEWwEXGed4HoPTjs9BbvmMCreXN64pHkwOOgPQ/fvE706F0PpwscGnyEzAh5pftGSIAkqL42M3QEVS3ZduNGtU8Q4xxm1QfwH5uEC8IJ0OaTJQ3f1BGwXIzFvVCSsc32WyTVXc+7+cd9XVpqWVL7yq0UPgCqUMeA+p7MPWnQbjw326wHeCAcENXz4x9qZarz8GjAaySEUG+ZKILaGk368y7uJxdpJJ9yYATskia9IydzUB4ersnZreFOEqd6fWGXZHRlJFe8kbqeCN5KZRR7EtndMtqZNoSeZ9u7iPCH5XRmySQaRnCZVxFEbhnr41MAKKTTYXYFUTPzglW1OnX5bCYjQbYmxoS+OZ3sFlO08e1pjWGkl0fvDmm6kAvlx1bBro7ZrmeDhTwNNOEyRorUPjA6YXQ2/GvDhH4Z3zduIb+rr4cVwgE6YYIeN4evbgrh/wAiZusOMmm6mEJNE1zWEZM3F+n485Q17r9e5E3gQ10Ex1ppKw/jLQFHhvODhou5nmINvWly7lHYobwp6yts84RpJIyQ2DAGQpxUugpN4uAUwroZetZF4S6QdeqObtKqH4L6yEWqPACatOuUpAu44v8AvNKAAT2ncf8AEIeH4TCbs20k4BwaHTokm4/RlhSeWR9h5JiCtr45rVplLg0iD98m3OhurAvvmEIXDhWu2vNtwtOjybG4te3pN2bxZgQ1PkZswfu7oDiUjDKYr3kwEgjzXpcdI5DIAN/b2Z3kNp+PebI9xDZJruX0Gu7ZdhsY6RIYeD0NG/GTz7mXfYI4BT2ouiAR7s+M1cDLwHPZvKLqb+CNzcTZv5PWX9/lGIMSBqOdSbpfonD4MoasiIcXCMckYxxYj34xRSj++D/P/RP+d/o8wCQwnc1z84jdjCTlcxhpdFpv9MigDwZQzls168Y6ZNqUQWZNw7V297xUAAHxVhxyqBeDZ9kEhdZsMWejfBmWsj6+XHXVoEqFEsMKg55ptg9noxXCrRLb7y7nT4aOuaTp8Hk9e4r201x3XvzyYFhtVV7nNvcC2kKPE6uUSJHQaHCBYLu21Jg2hTQdj5Sd84OxfEJ3qRiBQBtTz+HNwpmo3Y4tLCE7c2a5Y47O6L4+K+80TLyaEnld7pvCAX6sQT5L5z5aINt2Lm/NuogDoe8RvUOpB/Nd3OARO4bbG7cQA1Q8UeNk3dzHQFBkNu/L6upiEAGyuv1J8OGrWwfhzHslVD4clHwwpe6jsfZ+sC4Q2ry01glzuS0SGw60bXENc/lawh29X1mowdA8YEv9k4izx5yOSKU01iVAHcyRgYmsrxtCfWJ/TYE1Jr7rjRjCIdsDj3CpXGugeMowHht54McCqroRSHbYbygunuzuwQw/CDolHU5Zjuin7KcPQDeRMYQS7f77gk60ythdkwrhAgAID+cNagNmtt2uWmAjvHnXqYo9ahiMe203jQ+flEW7HGa9u5Jd3NlaaHNEq4cbFrwFu7gUtiN3J55gvYBCOe1wGgKWXTXwesPB1t4XesaSWvkhyv7YEK8VFq9021lKSUNlvw7wJPLi2z3+XFUQj3Xr33zj8TGQbKlCzTmznmLxgsTd1jEyrZSn+uZ5ZD8busZO5D3AhdzDUcS4rdg8DzPdyx5hbnYobr3Z/kxrBNJUtM1MtN+sevQOPrKmtFqdmEhmi7/sn+hhhcAlcNTA3g/pxoy/UuB+uaH0u8JWC3px8hax9czUSyHsMeKDZZX0Jp9Z0AY1kCuy+8nyMSkNLo98XmLGFBQ9j+XWL5wtAsNOeAQt473++A6Tgh6SGeiig6bI6j8sdlgcjQcEhPmCYsnTKrp9Ytjd7NQ1cCIEa2mnfruNW+1R8hT1lLbxa0ge18YirHZJ31brIDXEb8Tck8uAU8KaQkBW8dYkDourvS+p74ZSdgGtl3LjyBHKBJfTNZY9ilpedxH5CJhiIIUYQN71PxjdoOOaaq3ZcDvRWOiJKExCqwfDDbCNHe4jto1zR587HIknzvcaYo1QVPeOPYJMkri1fC5v84R8Bg027rLnnD+0Dp48/wD0EpME1O35cp/iIXxj4Hle0MMNuWtvgs8BmgIod1tkOatCNjWj5aeYTM03ZISDYycwV0sJWXz9zPXL97gGsUTDz8e/nHqbYCa1nZwRRmofywULIt5Maw+CEz2RvjY5DDEV+Nj++MBOLRuxpjI6U0eTc1Lgi3NhiBoIX9MTgt1G2gbThhedl27Tp0yY2wBXRYaAmGVoTBc8DrEqrl8lqvjBuLXfJ9ADCSgNvn/HBMBnTZb1Sa29zIInNYO/VQv35x4FrG4rzGRKKPDdfDhUDm1jcFtxLT4uKbPFxgGFZ9vWEeMqCzHc8+QeXNKFd65huzjGWnzi6IKas94dH9T+1mBk/q620sbmFT8lauNYadAS1w+jCg2YeurQ54WI3h1ckUwdbrtip7tXt3uXCSNFHTf84mCjYmxV+HEimjs/jEUbLH0zIQhDawnqZOBAE4I+PUmCJoduarBON4X5n65AwLBdIDrHksdrw8y1rWznke3l/fGsMO018+/GsUU9ivl0QwAXdlKa9/h5MpEEgtAK9+HOmAg4vwvByhGhC7T4yRYTweJh80qjwmvHvHeikxoLNfnxcj8oNpP87yPDVBjE4NB704A1rNwaXf4MEEMmaCYqvpdXm8oeA7858YLAyEwP6T+9TQfaOuWUaxuJ8Ambi9B4ITbANYlglfmYxfm7ltWSlPN9YAa/+30YEUOokzUh7gvJ+XAk+utFNzI9R6PbMORTQQ87hggXHjYCMm7684paHzODsyE3l+oH5mISBfbS+8BpCO9ya3fOd/fiSXr/AO+MZ0IKsto6k7gwVGuYVDV34ycUmI4Y6EKWp4f7xBS0waHPUuQSm3XpBvMCA+R3eesJLJWjbtdBhAphppuJT5fOCO94T+iFXHUck2xPWAzeQv8AfiVZitQeDuPpJ+ZtCmG0EofHAvgx6ckgVp9wuaZGFbU9JiAt8o8T8YzBBZCz4x0jvte+McWoHTNt2xLys8V4PkjvAaC9H23itXaJ9uuONUTts1GYAD9TpAfMuaQm52T9nuJW0KUUH2pLsy2QFwAR3yenmWndQ4NAhvOZqCDnnAHcDDS5FfFkyWicSqbd7njCqcdb+cR8GaXlyA7RiV+MRJhDhTkP6B/0TfGBtdvtyyKRXfDhr24jQ2VzToMQ/AyQ32/Ae0xcUiigTQPFx3hkh2vrD+Oq8W63c7xSeoN3EQddG+/Oeba+Ks4D4xCjV0RP1bMoK4VaPhyheun9DDRUYxcNx9Yl4UrzE5J7wqBbL7Pgoes9hKRfZ6/1ixtFvCTm6wR1aCFTj8CGFtzyipvXouR6DDLSaTD3q7mt/wCN4LleN83JXQEMZ7YWDXNXOGLkMntxMDA/6RYVyQnUG8nswOYB8TA7Yx6PL8YUWmGsifxlFyUWtHg1uGM25IdL7DphqQWh3X3feIo42BDr3jUsJPqvr4PbilQdLNuv1OdctKFf/wCrjQOJwRPRlyiJCO6ZlPszc1sxAw4n1auanBFTwazniJE72Pshce5pNt6BK7c3HU/M+0M40gD4mNKCrtTEYzk0MGlj3vh+XBYgeCevONO/AIbyBvL8YDMccMn/AEyDea9Br/w25oXNEHQbs6wLLgAm6dcvoVqa75xd8HDl9uOWHknZfEyqtemonFtuHxIximrNYiPcMjWm1Zu5sJVp2aPpNYzXRoPN/wAbq4bsbL01yEQFU8brO8lxYoyi7pQcbWgJB6v8GN30c3QJBqYpuGntr7PWDGh0nm5AxnwZtgngPxq5KgkgTW8ZSr8jT8YAQP8A4mOH/TOGhrt3FMDRBh6a7wHpFPe+3NqdLw7idxeR9Y1LSTwnWKojd0JpdYBaBXU3usOSWfL5YviAk1tS4+C8d/nDROi+dFxQOgF74f5zmv8AIYq/Bc0aczRaAA+sAQj4v5zl0OTCK+dMS6ef+5+NgQ8BhPjCTjZhJ+sDWcX+h/U/uP/EABQRAQAAAAAAAAAAAAAAAAAAAKD/2gAIAQIBAT8ASV//xAAdEQACAgIDAQAAAAAAAAAAAAABEUBQAGAQIDCA/9oACAEDAQE/ANRXRcqjWLFHVEKIdVoAhmSfIzVPWLThhgCjFGKMWR1wUjpH7mKKR2i1Rb06I/WH/9k=;" vertex="1" parent="1">
          <mxGeometry x="-701.5299999999997" y="490" width="76.07" height="100" as="geometry" />
        </mxCell>
        <mxCell id="ZTzG8vazDqK2p4vOw7QZ-2" value="&lt;font style=&quot;font-size: 16px;&quot;&gt;bad image&lt;/font&gt;" style="text;strokeColor=none;align=center;fillColor=none;html=1;verticalAlign=middle;whiteSpace=wrap;rounded=0;" vertex="1" parent="1">
          <mxGeometry x="-710" y="372.01" width="93" height="30" as="geometry" />
        </mxCell>
        <mxCell id="ZTzG8vazDqK2p4vOw7QZ-3" value="&lt;font style=&quot;font-size: 16px;&quot;&gt;good image&lt;/font&gt;" style="text;strokeColor=none;align=center;fillColor=none;html=1;verticalAlign=middle;whiteSpace=wrap;rounded=0;" vertex="1" parent="1">
          <mxGeometry x="-710" y="590" width="93" height="30" as="geometry" />
        </mxCell>
        <mxCell id="ZTzG8vazDqK2p4vOw7QZ-4" value="" style="shape=image;verticalLabelPosition=bottom;labelBackgroundColor=default;verticalAlign=top;aspect=fixed;imageAspect=0;image=data:image/jpeg,/9j/4AAQSkZJRgABAQAAAQABAAD/2wBDAAgGBgcGBQgHBwcJCQgKDBQNDAsLDBkSEw8UHRofHh0aHBwgJC4nICIsIxwcKDcpLDAxNDQ0Hyc5PTgyPC4zNDL/2wBDAQgJCQwLDBgNDRgyIRwhMjIyMjIyMjIyMjIyMjIyMjIyMjIyMjIyMjIyMjIyMjIyMjIyMjIyMjIyMjIyMjIyMjL/wAARCALQAiADASIAAhEBAxEB/8QAHwAAAQUBAQEBAQEAAAAAAAAAAAECAwQFBgcICQoL/8QAtRAAAgEDAwIEAwUFBAQAAAF9AQIDAAQRBRIhMUEGE1FhByJxFDKBkaEII0KxwRVS0fAkM2JyggkKFhcYGRolJicoKSo0NTY3ODk6Q0RFRkdISUpTVFVWV1hZWmNkZWZnaGlqc3R1dnd4eXqDhIWGh4iJipKTlJWWl5iZmqKjpKWmp6ipqrKztLW2t7i5usLDxMXGx8jJytLT1NXW19jZ2uHi4+Tl5ufo6erx8vP09fb3+Pn6/8QAHwEAAwEBAQEBAQEBAQAAAAAAAAECAwQFBgcICQoL/8QAtREAAgECBAQDBAcFBAQAAQJ3AAECAxEEBSExBhJBUQdhcRMiMoEIFEKRobHBCSMzUvAVYnLRChYkNOEl8RcYGRomJygpKjU2Nzg5OkNERUZHSElKU1RVVldYWVpjZGVmZ2hpanN0dXZ3eHl6goOEhYaHiImKkpOUlZaXmJmaoqOkpaanqKmqsrO0tba3uLm6wsPExcbHyMnK0tPU1dbX2Nna4uPk5ebn6Onq8vP09fb3+Pn6/9oADAMBAAIRAxEAPwD3zNKKTFLTEFFFFIYUUUUAFFFFABRRRQAUUUUAFFFFABRRRQAUUUUAFFFFABRRS0AJRS0UAJRRRQAUUZozQAUUZozQAUUUUAFFBOKM0AFFAOaKACiiigAooooAKKKKACiiigAooooAKKKKACiiigAooooAKKKKACiiigAooooAKKKKACiiigAooooAKKKKACiiigAooopiCiiikAUUUUDCiiigAooooAKKKKACiiigAooooAKKKKBBRRRQAUUUnNAATjvTDKo4y35U+o5HVRyaBiGUYz8w+q1DJdogJJb/AL5x/Oq89wi5JyT6dapv8x8y4bavZc0gLjanGF4BaojqwzhUJPtmq7bHAG4KnYDvU8UMY5wKYEy39xJ92IAe/wD+upFu2A/ecf8AAabGkIHyhcVJsGPQe1AiSOeI9JB9M1YVwRxWXNaRuCR8pPcVQlS6tW3RSsB6k5FAHS9ab06flWNbawy4S6Tb6OOlagnVkDAgg9CKAJcg8r19KcDkVX37uQfmFSK+eR17igCSigHI4ooGFFFFAgooooAKKKKACiiigYUUUUAFFFFABRRRQAUUUUAFFFFABRRRQAUUUUAFFFFABRRRQAUUUUAFFFFABRRRTEFFFFIYUUUUAFFFFABRRRQAUUUUAFFFFABRRRQAUUUUAFFFFABTC3pUNxdRQKWdsdgO5NZL6pNLnYAqdifSgDWlmCjgis+4nAOXcKCOrHmsmfUpAjbXy3PPp9Ky5Xd3LOxJ45akBsy6jCg/dAuRzk9Kz3nmln3yPlR61BnGT34pX+chMYx1PpQMn83nlwD374qVLzaSDPyax58ovB2j8sms2WZySFLn6UAdab0bhuk568HFSjVnj6Px6NzXEGWX7pjbH1qeO4nRgPmA6+tArHeQ6qkijeNp/Q1dBWWPehBU9RXAR3rxkE5B+hrWtdUe3AbcB3IzwaAsa9yggf7pMTdv7tRR3X2OQ7HLRH7y+n0qSG9ttQgKFgHPbP8AKsySYQsyOwDL0PqKYHRJcZAdfTpUn2nBDL19KwYdRijjAaQY+vIFNudVCjMSMSSAD0oA66OUMgcH5TUmQR1rlbHVrjaybU69z0rXimnIBIUfQmgDRyy+4pQ6k4B59KqrLL3UH6GnGUEfOpFAi1RVQTlT13j9RU8c6SDhhQBJRRRQAUUUUAFFFFAwooooAKKKKACiiigAooooAKKKKACiiigAooooAKKKKACiiigAooooAKKKKYgooopDCiiigAooooAKKKKACiiigAooooAKKKKACiims+0fyFACswUZ/lWdqN89tbsdyoTwvcmrMsyQxtLK4AX1PAritS1T7ZdF9xwB8oH8I9aQFuS5klJkZskcFj/QVXkueCpOM9/T2rMm1Arwp46KuP1qs8ruRvbBY4C9zQM0J7xRxEQR6CoY5Gc7yM5/nTLe13nJIVF5du3FLJe26fcySOFA9PWgCYMSeP8AJqUzoF+Y4wc47k1lPdSydNqL2qIyru+eTOKANCWaNjxEGPq5qNvNI++qD0AxVM3kadATUb6xsXCRrn1xQA+4iZVLBmY/Sqn75MklgP8AeqGbVbuQHDgD/ZFZr3E0rgHcTn1oA1BPPvwWOO4zk1bhkwMEbif5VnxxMkCs4OR6daU3DNk7CCBjOKBm3DdKrAKcY6GpmnWRiuNw/velc9HKQM7sn+VWI7htvTgnJoEdFARIVVSDnkZFOnYxxnJHBH86xba9kiO5TtHuP5VNNMZsDzmz7CgDRt73ybjDc5z3HrWxDrMfTy5OK414Zeplzn14qF5bi2cMHcY9TwaYHoseuW4OGLJ9RV6DV7SQ7fOWvNINSnkVQ7B89u9TSXLsQ2znPrQKx6g0UUy7lI+qmqkkUsL7lbP171wltrFzavmOZ48dm5BrpLPxKJgI7pBk/wAS96AN63vd3ykHI6qeoq4sqt0IrCkljlQSIS2OjL1FTW80rEfMpPZumaBG1RVYXLoP3kR/3l5qwjrIMqwIoGLRRRQAUUUUAFFFFABRRRQAUUUUAFFFFABRRRQAUUUUAFFFFABRRRQAUUUUAFFFFAgooooGFFFFABRRRQAUUUUAFFFFABRRRQAUUVBc3C28LSMeAM0AOlmSJcswFYF54jhti7YLEZ2gelYOra5LcOxQny84A9axXkZzlyWJ4xSCxpahrt9frt4WI9QpxWdtbIXJdjyQPX0prndliSB3I7VXnuUiJ2rhj6GgZaljESZZ1DsO3aqZnKb2zyT8rHt71TaeSUkt1NBt5mUAng0DJLnUZbg+VCxWLdyo4yKikutpJB9qHjWPKqee1WrTSHlTzZTtTtxQBQFxKxz0H8q0I7d2hEjORzzVqLT4ozkqzY56cCp3YhAI4yzZwuRwPekBnvZDcoLHJ7Gqxg+dl/hHQetayo8eTtDue+aim06SKI3NxIF3D5UXqaYGPNgEIjZxwcVNbQRxL+8G5sZxUkdpuKsQS2crxVmCzZAZDlmU/LlcYJoAqSpJIf7ueg7imTRlEDliF7ZH3vXNacsYtVMkil3P3E7YrHYySyvLK2WboMcD6UAAIIyFyezZ4qZcM4DOq4xwpyfyqAld2W6Z/CneaqtkKAOOfWgDRzEoHG70DGpRMiAHGAe1Y8t6qL8pz2ye5ohu2eQHBz79KANsXa7QACST6/0qvezRuMKck9T2FV2mhZlAG0Y6dyfemNPA5Ck0CJYlhRtyZZj6mpo5GaQrnms17pVkypAAPSpVv0ErYB5XnFAzXMqcq+CMU+AQqO+70FZLXkTAKFKnHcVMpQkMC31FAjsdPkUBQGIHqDWkys0ZcMQRXFwPMD8kj/Qitu0vJioUz49QVoEdfpt158O1jll4NXPLQnOMH1HFc1YXE0Epf5ZFYdBxW1FqcTAeYGjJ7MKYF5RgdSfrS1Gk0cg+VwakoAKKM0UCCiiigYUUUUAFFFFABRRRQAUUUUAFFFFABRRRQAUUUUAFFFFABRRRTEFFFFIYUUUUAFFFFABRRRQAUUUUAFFFMkcIv40ANlkCKSTjiuJ8QapNO5gR8Jnt3rZ1fUdsbIrcn+VcTdzbnZgeTxSBEEjsRgdBSR4jLO+cDOAO9OQLjk4HU1Rup2nlEMZwDgNjtQMsyT5XzG4TsKojMrhz1zwPalkkaeQRJwinFaNpbEkHvwF9vegCpHaM3zADaFx09qkltSrOzKSeBgfToK3I4xnbtGxByfWpWt4ztyQTncaAMOy055XVnA254WujtrVWPzDheMds1XMyW6FsHk4WpHvhEqIB8xHQfzoAnktk5Xjrge9VbmID5VwDnk46VDLqccIXJ5zkt6Vnf2obibZCc/yzQBbkYbiwGSGIApptZ7pwzkhV59gKuW8EcMYlmOc8gHrU7TRuyoWwBztBx+dAEUGm78lQAOhJHap5LSOAFmGW7L1/E1MJ2gZFbBdudq9BUUrK2EVtzZyQDnnvk0AYtxBLKSx/AYrHntTG5BB3etdkYoYT5krguR8qLyfyqpJYecS7gKT0XpQByDwHacjFRPCwXcQeOn1rqWsYUTqCe5qlcmEIFUA880hmALHLhn4AApXKoCq4AqS8nIds5x6VlyzSE8dcdzTAnaZuoJVf51EZcZw5J9Kqgl+ufxp7D0x+FAEgcs/J6UlvKRKD1+tV2Jjkwe9JGSCQOtAzZlKkKxXOeetNMscTf6yVABnpkUyD97b4zyKJYyyDkkYwaBGxZTzXGDDKXOM4xWvbTTc+ZuyOM7a4uGSa3OYmZT6ita21nUwq7QrgdtooEdvb3ibVWRxk9DnFacM8kLKkhyD91vX61zdnOup2u2aJY5uhA6/Wrdlc3FpOtvO24A/IXHB9s0xHWxvGwHyYbvjirsbEjKPkHoDWYih8SAMCR19KlikYH5s4P8VAjU34+8KdmoIJd+BnJqboaAHUUZooGFFFFABRRRQAUUUUAFFFFABRRRQAUUUUAFFFFABRRRQAUUUUxBRRRSAKKKKBhRRRQAUUUUAFFFFACEgDJrBvtTIVyOmSF9x61f1i8js9Pd3bG75RzXD3d/5zEg4AHQdhSAbf3hlYjOSeax2IaXrwv86kYlmOTyTz7Cq7ScZHUnIoGQ3lyY4/kUsW6Cp9J09pMF87jk89elPt7YM4ZxnAzzWtb3EdtE0p4IXAz6n/ACKAK0GnpGWkYAAc59OamjVQAe7jkegqpe3+2ERbgCeTVa2vS8zyE/KowBQBvSOkMIQnDNyagW6UyhQMk9h2FY1zqO+4xkHbyfr2pj6gun6fLfNy+MRr6mgC3c3gkuiiviOM5OR/FWdd6oQxdWyTwo7mueXVHaNlJzu5Y5qE3LO2Ryx6e1AzRlu5ZX2FyWb+Edq19PEdoqu/HoPU1i6dbhMzSnn+E+tTXF/hymQT6jsPSgDenvZZXzv+cds9KhkvMgFWZj6jjNY0c7O4UZY9frVh7uG1TdIwL+g4oA3YtQeOPk4HPzZ5AqKTUjIADIQo64rk7nWmYkZwvpVb+1HY5BNAHcRXiK4ZAzyfwgHP61Ye+wf9JmA3cLEPvGuDTWblVKw4TPVupq/pMdy12LiRiSDnJ6nP1oA6+NZ7lsNlVxwtSSaeoQBunU5qW2Sc9FDDJ4Qf1qSRJSjM5AycYPr6UhGHdWMGG5HBxgHtWW+nWokLsxOeg9BW9c2ckuMbjk/QVQltcMCxxjse1MZz14ggl2xoAMc1BEhJ3bc+prVksHnkU8/MxFLeJDaIA5AC4yfWgDEv1AGQelRwNuUMOo60l3N57kjIT09ahsty3YU/dYcigDZtlZZQCODVxoxGfm655FKlqzhdpOUAwO1WdZt2h023nC5JJBoAriFXIYcr0+lTwQSKA0eRjsKztPvBv+dgUbgj0rpNPiAlaGQ9gUPqPagRPZ3nHzDa/wDex/StZ3S7gG8hjj16n+lVvs0Ug+ZRx3FQz2flJlWbB7nqKANzS9RktwEZjLCOM/xL9RXRDZIokiYYI7civNYp50mBVysw+6w6N7V0Gma+ocRy4il6Efwt+HamI7G2HI9fT0q2BxWdb3CsBIDWkrBlBByDQIOlLRRQMKKKKACiiigAooooAKKKKACiiigAooooAKKKKACiiigAooopiCiiikAUUUUAFFFFAwooooAKQmlrG8Q6oNP02QxkGZhtUZ5oA5Txpq4nvI7OJwUj5Pua57zsIQcgdzVMytLeu0jB2JySKjuJN7BQcDqeaQyaS6yjOoI46VLAhkdM/wAKBiazixfZGP43wB7VtIVRto6scfhQMsshW2JGBurLur0rKVH3I+MepPf8Kn1C8WKIYYbY88evH/6q5ZrougLNySSaALc920khYtz/AFqWKXyofvcDn8ayt/TPrzRNdZXaDxQBorMWKLn5nYk/T/P86o6/etcXEdpGcpGAOPWm20xMjS9lHSoYU3zSXL9F5/woAqiIg+WeMdavQhAd7nCrxx6e1Vh3cnk1DLMWwoPAoGaE9+0xGPkjjGAFqKOQvgKMZ61VTnntU6yCOJ3/AIjwKALEl+tmmI+WNZMtzLO5ZmOTSPzyaRRuYAUASQQPKc1ZFsUI38d6t21idqnktnoO1XblI0ZI9w3jk0AVbZLaLDSYyOxFbFvrNvCAsYclR1AA5/KsmQwR5woye55NRLC9wejbfQUCOwtPE7K21DjHd2Ax+nNaK+IpNiqqQuoJJcjAHGeK5GHRJNmdoHfk5qzb27yN5SOTjqx5ApAdEblp4wZJv3jjhUGMe9V7gWcTBpJsqvUs2c/SqzQlImVGbjqQeSfQVnNYtKxDBj67qALN1rcIQQafAXbGN56Vg3Ecs0he4YySH+HsK6BdNVMRAHzGxwKfPpf+jSKgyyjLsBwKAOPlhJViB1FJYxFdSTOcqAK1ngDEbfUDpSWdqTqUrj+EnH50wN/ToiwIclmJxn61L4iZf7HihB2soOT6ZOKsWilLlEx6H9KwvEE5nuPLJ49B9TQIwrRAJ2ickN2Nbel6mYbhLacH5D8rf7JrmpPMilDFjkHirN3NuijnRufWgD0yOaOJVRzjdyDTnYMpVju9D6iub03UhJoqyys2+B1VMdT/AJ5rWS4Etks2CpJxjNAFaVNjOvQodwPtW3badDrFmGBCzrwSO9YV7LtuFY4xyDVzQtRNjfCN2+U/L+HagRoLbatpWVidmjPYjIrX0nVrpofJKMzr124459624yksYYYINQyWCeYJoRtlXoRTESwTTXHAlK+oK81dWOQdZj/3yKgiAkUMRtcdfap1Zh94ZHqKAJFBAwWzS0gIIyKWgYUUUUAFFFFABRRRQAUUUUAFFFFABRRRQAUUUUAFAoopiCiiikAUUUUDCiiigAoopCaAGu6xozsQFUZJNeW69qr3l3M5PyAnbXb+JL8W2mOo+84xivLrxy/yg5+tIEV4yqlmPpVd2xk9W7CpmO1JT3GAKoyEsQoPGcE0FF/Thvvd7H5Yk3fjU0115eWBG5uF9qoxzmGGfjmRgAfYVVnkLycnheKAC/uTImCe5qhnHSpZcsmT0zUDUDBmquzZNSO2B1piLvYDuTSAuWqFoMD+Lk/SnXP7q3jiH3nOT9Kmt0Hl7UYZzt+gqjcP5lzIwPyrwOfSmBBNJg4HQVCuTT5EbPIxmnxpwDQAJknAofOMnp6VIkZ+bApJYiuFJyMcikBSd8tWhYW4RDLJ1xxVZYAjgsenNSSzsV2KePSgDQfVFgR9uDkYFZkdzNcz/LlmqARSXMwiQZJrrtF0QQhQR8xpgQ6do0tzhpMk9eRXU2mjpCu5hwBkk9BWpZww2lsZZSFTHU1zev8AiEvA9vbDZHjlscn6UCK2uayiD7JaNyeCRVWDUBa24Qn5j1I7VzfmP5plYMX96t20c075ZCTjp6UAdRa3jyBQCWlY4RBz171utpz2QiyA9xJ8xX0qLwvp4snMoj+0Xm3gfwx/U+tdTBY+UzPM3m3MhyXPOKBGCmnyQ9syScljWhc2AttCmAGSV5Na8NkJJ9x6A8/WnamgGmT4/u9KBHk8YOQuCCrd+4rSjtlgUSY5YM1TCz3+UeMk1X1q9SBgikHC7QBQMtw3QS88zIIUf0/+vWJqKFpTMwBFJCzNbhv4pGH4Ct5tIa4DArgMgwPwoA4+7twwMg6VT8ry4TG33QwOK6Keze2Mlu6njkE96yLqEqsmRyAMj05oGWYn8mwjHYvnrXSWMwfS3H8SH+YrkmLC2hUHg1t6fOVjK5BViR+QFAixdz79vTPFPjVrm3LIf3sfzD3FZt2zR3CA44Aq5pk32e+AJ6/yoA73wrqv2q2EDn5lHGa6ha8902MWHiKLBPlTHK46c16ADg5zTETCMEgjg0/BpIzkVJQIQCloooGFFFFABRRRQAUUUUAFFFFABRRRQAUUUUAFFFFABRRRTEFFFFIAooooGFFFFABTHbauTT6qahJ5dnI2ccUAcX4ruzK5TPA6Yrj5FActwOlbeqyNLKW65NY8sY+Unr1pDKVwB5cmOmRVE48xPQDNX7g5hf3IrPfgn6YoGQSSH5fqTUUknalkBDc9qbGhZwaQx0gCRDn6+9Vz61bnBKEelVtuMAnrQBWfNT2yZy2OgpsqAN2qzZryP1oAszRi1sExgSEEk98f5NZix4UE96s3lwbicr0UfKKrAmS5CjoopgPmwR7ngD0FPjhzKkYHPU1YiiABZ0JOeKv21sm8zDvxj0oApCExgnbkntVa4xHy2FOOFrYmdYYyqYMp56dK5+5wZupdz19BSAhLk896ZjapJqytu0hG1TgDNWbLSbi8cMkZZVYBvrQBd0KwEYEzrl2+bHoK6FLuC2ZTJINx/hU5P0p1t4Z1GWP95IIgeSqdvxq2ng5I3VhllxnNArlC91CW/UIGIiHRMY/OqqaSLgB5DnJ9OBW3JY2NkT/FJ/dBzSQW9xdS85jiHHA5+gpiKcGkWpJOxST8oGOuO9dHo3heFDJcXEShCmET3P8AET/SrVnp6xkN5WW9xWwkczAA5wO1AiWK3tbSFEhRY41XhQMUiAP0GM/rSi3O3JBOfWp4Yc4J4oAHQBAoBz7VS1V3GnyrtGNuCM1pFNgJJ5rD164+zWUjZG4jgGgDh/tXlIzv91CeK5aaV7+8L/wg/kKm1G8adhbQscZwxHc1eTTHtdLB2kyyHCgelBQWjfabhFAPlphV9Ca9BRPLdVI4aPg+9cz4b0xpJI5XXKrl+f0rrroMIkkXAKnigTMDW7ISwC4Xqp5+lcrfWjSRysVxuTI+lehNGlzaSYHyOOR1wa4+Rjh4WPCEgjHagDkELOlugHLdK2rdCkRbcCFbaPy5rLiUx3bqynEROB7f5NaVvII7ZN3ALbj9c/4UDHaq6tdAg8CmBz9ojdeflH51DcN5m5sc5zz2p6kbIS3IHHHegDs4X87ToLjq8DqfwzXoFviSJHBzlQa820iVWhnt2yvmIQK9A0JzLpkJJyQoFMlmooxUgpo6U6gAooooEFFFFAwooooAKKKKACiiigAooooAKKKKACiiigAooopiCiiikMKKKKACiiigBKx/EDlbFsHHGa2awfEmTaSY7JQBwNy+SreqEms2RixQ9j2qxJJnaD/cP86oGTcwx9KQyCUnyG571WxuZgemallz5WfbP61XXc0+O1AxXty2em4tToYFUEFecdasCInavRuppWACEKCQPypDKU8RX7x69qz7g7T1rTuGVfmfGSOB3NY0zmRy1AC53EAc1YjlVAMdRzVQNsG7vUTSYB96YEgkyzOx55NWNNTdKzMMnGaqQxh8buma0tMGJ5PYcUAa8KqUO4cU12EbfLkDHIoyAhLHFJskueFGF7mgRWdHlIVT97kmontoY7WRuw4yOpNX1s5EZE5+bp71ZureOJIbMMPNYgv32j/GgCppllNJGFRVyRg59+gr0LS9Oh06xjzGCx5Ygd6ydEsorIo7xZnI474FdFIrsq4yFwaBMtQyKy4Y8MMfhU7Qtd7kg2xqBjfjmsqONyD19AMdKv2QZpAuDgehoEWIvDtkjK7guR6960UsrWMbRCi49qnVSsYB6jvWf9sQvsJNMC2Yo0GdoApQUUgY69KavzRlQcgjrVaJzIoBJLI2DQIuMFdeOKhkkEKnPSnmQI4GeG71gazrSWEql/mjY7T7H1oGXbjUVh3F24UZrzfxN4h/tGWSO3l/dRDM0meFHpVfxDrs93M0Fk7FT8rn/wCvVDS9EfUJ/ID7bdzumOeTjtSHYm8PaQ99IL3Z+6HCKR+tdodKaRUTdyDlj356Cp1W1063jEW0RRLxz3rEvfECNISk3J67TQB01tDBp0SoJI0QIFJY0t/qNotuIo5Bv9QCSK4KXUrmaMbGLMOnOKfb+ItRsdqz+XIvTDx5x+NAWN5L2SJnkhnaQDqpXFZF9GzXhu4V/dsMOp7Gti08Q2E1oTdWJiDdSg4NR3ctj5Mk9s+V2YYHt7UAcbdKpuy8fy+aoB9uahe6WRhGnCKMCnassrxtKi7RjjHXHvWRCxA+UfNigZou5kdwD1NSR7igAOCOcVTif58Dk5wKsoxVxkEEdRQBs6bev5iFMb0ODxXqnh2dfIROm9Aw+vevKbOESM+MiQruUA9a7vw9ek2EcnRoHG4H0NBLO5opFYMoYdCM0tMAooooEFFFFAwooooAKKKKACiiigAooooAKKKKACiiigAooopiCiiikMKKKKACiiigBKxtaXzLW4/3cVs1l6ngWErHuCaAPH5n+c89ARVQSYb3q5d+Wl0/t2xWc/DYFIolk5BwOAKbAo+0Lu6mlLkqNvNNRiHUlSCOM0AXz87Eg/Jnt3ps6j7pGOM4z0pon2ZEbc+pFV5ZAwI6+ppAZ15JwRjBPH4VQ6mppiZJWJyBUYQ4JPSmMhfJOO1RkbiFFTnDHIGMdadbxbnDHoDQA+KIhQcVf0iPfGzE4YDH5VE21doC9TxU+iEeauSAC7DFAjSntvkHUjOM1u6Zp2YlBwEUZJqJ7cMEG3PNdHZ2qRWJlmOExubJ6e1AjndQZNLie/lAzjEMfc1Q8NWM9zK+p6ghYyN8oX0qR4m8Uaw00oK6db9AeBx2/wA/Slu9SZZiUgdooRhFX7oHr70AdrYqihdyqc/3e341phoYosO68ntXmbeIpUT/AFsicfxA01fE8cSj9+isB/eJoA9LeBZCrwsSO+KjW+htZDmRQ44OBXnUfjhLaFh9pyeioDx1qxZeMNOvVRLiIrKSQZBjmgVj1S01FLkbT8r4zg1zuoyeRqEo3YOcgVy9trjwyxm3nacKcFlHQelSarqn2qaC4+60w4UjB6UAdnp+pKYwGzvwcc96yZtSuLeaZ2GGz68EVzltqUg3jfhgy9+vrWhfzGaXzkOd64HtzmmB0Lais1mHiYEqASPeuc8QM1zauxI6Z47U3TZGVJAzZB4FLqE0UYZimflxg0hnK23l7QcbmLYwBntVq4Pk2a29tKUkQZY9KoHUUs5i20DJJA9Kqy3j30mVIG85IzQMglur6RmRp5HHThsUwSLb/NJIfpmrsNtcXzeRZRL/ALbsfu/U1uWngeLbHNeO0vGWJPyigDlYb+We4XyVYjPUdq7CwsXuLf8AejeAc/NwT+daMWh20ciLbxBOw4robPSUigO5M59eaBM4uXTbQ/NKBb7eN2QCPp61BCYJLtbfBjt4hkR+v1966PVtDaVtyYGBwuARXMX0MlhMjyAhnG1vTIpgbcwt5vOimiCrjj6Y61x93phtdRWIg7GwRxXQJcGV4QSMYw27uPSnapGAlrO2RtY5pAc8bURO2ByvSlukDRJMBjaQH4/I069uv3rbeh9qktish2EfJKNh+vY0DJLJmE0W0kSLgj3rv9GheZZDEuGdf3idN3uK4fTYwksiNw8ZPJ64Feg6OCfIaPgOvyjuG+tBLOrssi0jDdQMVYqOHJjBbqfapKYgooooAKKKKBhRRRQAUUUUAFFFFABRRRQAUUUUAFFFFABQKKKYgooopDCiiigAooooAQ9DWfqqZ06Qf7NaNUtS/wCPKX/doA8cv1C3bt7mqEseS+B0NampKwmduMbqqj55GAHJX1pFFOIlWxjikLEGpJWCkEjGO4qB5MOPrQA92OPl4xVaeQ7Sc/NQ8oBznJ75qrK+9jtpDIic5oYfuifbimnPTpSg4Q0wIhjJHvWpawqIxkdeay4f3kuPfmugt4m2g9iMAUCM+8Hl3EXPQZ/Kksw0BXjkANUtzGZ9TWIDnbt/Pr+laF1a+Vcxg8ZWgDorORZRAw+4ev5VvXyC6tFtSwVGGH57VyNjMbXgDcOMCppdcYShSMf3hQI6MWtpHZfZIh5VshAJA5fFZdzAqWzLHjH8Rx0z2HrUBv3kgG9iqg5we5/rVOa/JQog2KBggDk0AZmoxRKCI05xzk9K5G/gLycgAn0rtJ0knUiJccEnPpTbPwReajKHmVo1J6dSf8KBnCF4bVsYDnuRVuyurP7Qm8HGeh7e9ek6j4OtyoieBUKKAPeueu/BtvHhRuQ9ARmgDJkufsTgbjtblJo26irWk34fUgJ5pJECEjd2qne6Lc2EZhZmdFOVJxVCwM4njaSJ9rkhHxwfxoA652GXKN8oxgY61ox3Ky2yAMTtxn+tYESyuGDfdHJ9xWxpgQFlOSSOgFAGlb3HlbVUgtt5FRahPujbLjI5xxyacbbYGlIPPvzVKCL7VcsZAqovdjQIwtXs3jhEzEGSTt7Vn2djeJLvZvLQjg+grs5rG2uMbAXKDJyDyayZZo4ZirEk54wP0FAzb0cKpSLygkaDcBjGT6t9K6kSJJHyVRF5y2AK4wXh0yLzHwJGG7b/AI1hXuu32oEqgbYOT2UfWgR6JN4k0ywJWEG4m6FgePzrLufHsoyscUAPpuJrzVzd3UpRDI+OWK8KKWbQ79QpML/MQiknGSfqaB2O8b4gXCsBLFGo9drY/Om3+rWuraYzBUWZGDL6H1rza8e+0S7a1uQ6SoQHikIOM89Pxq9a3eCskeYz1ZO31FAjtLGMTqDgMVGA3t/+utm/txLo5+XleaxtH1CGWASQEcqA6+ldHBv8qSF8kEYAoA8/n/1oBbGemfWrdqoZXj/iKkqfcU3W7N7e4OB05/CksDuaMqc+vvQM0Ldy9/bSnhJl2H616V4ej/0UEgffYD8K83jhZQpI+WGXP4H/APXXrGkRIbGF4QApGfwxTJZqoPlHrUgpoGKdQAUUUUCCiiigYUUUUAFFFFABRRRQAUUUUAFFFFABRRRQAUUUUxBRRRSGFFFFABRRRQAlUtR+e0kX2q9VeePdC49RQB5DqkQWaYBcYbOKpgESKeuRWz4gi8u9l4xuXP61mqoaNTnnFAzOuO/X8aokZA4rRuxhs46+tZ7H5ifekMrbSZec1DvA3nNTSNtR2zWcXOMk96BkjuS+ajkfbHQoJGaY6kuqn1oAt6dGTIvGc4rp4xhAemKwrBMTLgV0KQtNEEU9epHYUCKuk2xnvZrthwW2p/n8K0NT2NcoQOgq7bWq2wjjUYC1QuwxuU4yePwoEKkUqjaF4PNUpkaGRmCZfPFbY3HYo6cVnzA/aGLdARQBlg3Msn7xySeODXUaJaWUWWu1LuFzg85qhiKzKE4LOflz2FbNjd28KiWQ/wC0wzyfQfSgDd0jRYxi4uYlBPzBccL6Vbn1S1tFLowKouMDqf8AOK5TVfG5jj8qE4wPmftXBar4snugLe23ADgY6mgLHZ+IPHVtbsyh/mJzsAyR6Csa18a2t+5S4jA9Gxj+dcKyzEzTLavcSRIZJSMtsUEDJ9ByOT60sV0lxHvVdjr94dseopDseivCl8GQMsqEcZHI+tV3062WyjihfAgZjgjgdOFH51h2moyW9sGhSQocFiDnBp0mtl2bDgrJwcDGaYGhC/lbhtyTxzVm0mENyGhBK9M5zk0mmW325JWydu3ioorizt7h0mjuEkDcFEyDQB2aRWxj82dwmBzzXP311a28zeUS4zk4NaVgbZ40ytxNk5xJCVNauoWVrHp7Nb2kYdx95hg0CMqxQz2klwygMQMH0rhdUujZ6zufGAcqD9a7+1uDZ6XJE68t/KuMutIk1G5uLpTv8kBiMds/0oAnsrO48Q3S+dJshHLsTwoH9aNRltbqRdL05FS2VR5suOW55qW8eeG1jtbceXbY+Zx1epLLS3bATau5cEk0Abej6faSRR28XlARgNg4wzfWrniFbFtHVA8T+SpVsAA/dIBz161Xg0F0CmG+TkcgkVbufDa3Fvma+QJjn5hzQB4xrULTakiGbziyofM654HU+tSPDLHBFKoIAUAMRwa7qPwrp9hd+bc3EXlgnAHuavaw9nfW8emafaAMUwzFegoAydAt3lsxKmHJbgdCfUfzrorGO6dnYqwZc8EUlp4eSG2jijLL5TKd44ye4/lXQ22jrCn/AB8TZJzt3etAHNa/pjz2DSqv7xFJxj865Cw3LIAv8XANev3FrGIQNnA45rzvU9IOm3juinyid6/T/wDXQBoW8DTQS45DAfyr0DwxNv0yJGPzAY/LiuK0oZibaADxXWeHzsAHY5piOnFLTUJKjNOoAKKKKACiiigAooooAKKKKACiiigAooooAKKKKACiiigAooopiCiiikMKKKKACiiigAprDKkU6kNAHnPi222t5mO5U/jXNQjMRyOhNd54pt91pKcdDmuJVditkUDRQvlB5HSsdwcnnitm6k3Kcd/Wsicn5vUmkUilMSYwB3NVZo9oHXNaJiP7setVLpSX4I5OBSAdBH+7XJxnrUM2FAfvu4A7VpQwhkVP9n9azL45vFiXscUwNLSlLleTk12NlCI13NXNaZGI5lHpg11kbDaigEknOKBDyeS3Gcjis+aI/aFx0GK0N2MhYxx796p3Upjkbai+/NAgaUoWORwKzpXYuSM4BBPFSPd5IBjB9jUkYnnzhFSMfxGgBk0Rup1+UkovftWLrOqCwj2iTdK/QZrWvNShtrZ5Mlixwq/3u3PtXIf2PeatdtcyyRCRjlVd+35UDHRR3OolEJJD9F/xrtNL8NWtnYNPJFukxwSOhqvp2jz2qRusUcr4IBSQV0kd7JFYi3ltzlgRjPA/GkB5lfQyWFzLEZHiV/kwpIV1yDg+2QKpR2CJc28UADyM247ewr0O70ua6zLJ9kRC3HmIWx9PWmW+iRWhMv71QRjJjEQY/jyaAucfNM/hrVnCuzRAglSuVK55FbcmkWGvWbXliFjuIxu8sD5W/Crl34TS4UYDRozfuRIdzyHHc9hnmrVtpf8AZuqQ+QTlgNyg8HB54piIfDWqWJgFtCMTKcFG4P5Vbv7WKVwwBRskHH+NYEuknT/Gd5HGMHzA429sjOK6/wCyME3bjJkA4PXNAFnQ7GRUSTz2k29BjJFdVdWyzWGAp5GckY/SsHTZWt5t235mwPrXYRbLm0OPTFAjz7U7FWPVhwAdveorIxWMnmRxgZ+WRSOoNdPeWiEEbsYbBrFmtVV13DIPyn6UDKd5pzRIbi1h8+2PJjIyyf4isV7q0d+ISH4+RWwa6fT55IJzC2SM7fqO1LruhWFyBJMiBzyHC4IP1oA51LXeqvDKyuT90sas/wBk3c8mwoxHoZCRUL6bcW8ZSKZXX0f/ABpss99bx7TG2AODvzQBtWXhLed9xIEUc4Tr+daVtpVlZBjEilj3I5P1rB03UNRl/dxFUU9S7EV0lpAyMrPIGc+nNAFuFFKAhOSc5Pb3q2sOcDZ75qaGHMPyDn3q6sYwCRzQIz54vkwxPI7VzPiGy+0aTKQMvECf+Anr/j+FdjMoKHHNZc0SlSjL8rDafxpgeb6Hfs0m0HPG0kdjXfaHKAeQeK8sd20HxPNDIMwB8fh616j4dCzATRvujYAgj0pDZ1cZyoxT6ij6VLTEFFFFABRRRQAUUUUAFFFFABRRRQAUUUUAFFFFABRRRQAUUUUxBRRRSGFFFFABRRRQAUhpaQ9KAOb8RYa1nA64rzuZypI9RnivQddZVilGeSCa84upt1wSMDjApDRVnclf0qsYfMXgD3q4UyuetQsjKCQAAO5pDK8qBF3H+EcCsjJkuR6A/lV29u8Aoij3OaoRnaGbqTQM2oSkdu8uRkcCubEm6/Dn+9mthmMOlhu5BOKw0P75T70wOq0zDzBxzmukgdlQ8cjpXN6Jlgpxnmumt32O2cZHPNAiYmXYXWHcT6VE0csqNm3Ab3NaFrvmC4YduBWmNLkkhwhA3ckntQI5Y20MYDsqbQSCcenXFZep391Inl2sDkMMAqvAFd6NGsrRAZf3jD+9S/Y45WG2MIh6DFAXPNINAvLuQyNwUHAParUmi3FkxfywxC/wnFeiT2ohjBRB05x3rGv4zNFn5d2ODigLnIy3M0UIRbeQADO7NQC+umiWKCF2JGAzc1s3qyeUUTaNw65qtpOwcOxRwedoBpAaXh/TtbeQGSUJEDyo5/Ouu+wQRMkpYSSkcvK2dtc82qfZotrTOxIwpVefxxUEmrXbptjVwrf3j1HvTA2b66t1IKZeTGF54q1plhtYXNzjcx3AEc4H8hxWJZXUIuVaU+bIeTj+I+ij0FXNZvbiaAwx/IHwGCnt6ZoEYUSS3viS61Jj/rZRs44wBgfyFdXaQIwVSMSY6k9/pWLap5RzwFRew6Vfju0s0UsQWI6+lAzSms1G5TwqAHp+tWNNuJE3QI4yM8E8nHSsWW7e6YRgv6cmrcSYZsHaw4B9aBGpNvJYTJ9/0PesyaPe3ygZAxjvV24mMwAd1GBxxmsi5R4iJIvmYf3QVP5nNAyvfKYrmGUL/rAR7Zq68gvrYRkbmxg5PSsdrqa4uEhkYxqjbvmOcn64FXdPmZrpA/392GoAR9Pmi4jY/wC6RkVBd28kSF54WRcffzkV2CRI67iBVhbFJUYOAQRjB6UCPNvtMK4Bk8z2wP6V0ukPcSFfJtSEP8ZJxW1Jo9gqYFrErjp8tPtz5OECBRjkUAaFtGUjG7qfSpZGCjriqi3KRpuL5qtPeGU7V+7QA+e5wxANU5Jz5W4njP50uxypzzkDtUF2jLEdwwOcEUAcH4xs4576K7CgFlwT7ir3g3WXsp1ticxvxyehzS61tlsxljlX449RWbY6ZLLF50LFJY2zkUDPXre6inXKOp/GrSnNcX4cllR8SRdTyx4IrsoxxmmIkooooEFFFFAwooooAKKKKACiiigAooooAKKKKACiiigAooopiCiiikMKKKKACiiigApp6U6mP900Acd4kf8A1h/2DXnL/wCtx15716P4gYG3dsc8iuAdQ0jEMM+9IaHIMRbmxgc4z1rF1K9ZyY8/gK1J5DHAxDAgD061zYdrhy+cFjxmkMgcyF/ubvUVZt4fNiJ27BnA9/YVcFkTGSFJJH+FPZZYmighQYA49jQMgvvlskjx0FYoZVmPBPpxXSXsTyqqBeMYU+9YG0LqckQHCtjFMDq/DkWVBPXk4roXQrIcdMVkaBmNI89WXNbbSZYnjv0oJL2lyFJgAuSO1dAkjFAzjAz0HYVyltKUkGMkdc100ckhgHzBcD0oEWZPKkQnYM9RnvToIWwpYfSogSJkTPB5rZhtwQD27UAZzxbkO4gHmqd1piXA+X5SMAMK2rm3LKQOay51nibKxvgHsaAOV1fRLxI2KQGYA/eUYOPpXLwwLFM2y3xIGwd4OB616a0rkZZpUP1qAaXDcPuYyM7decA0Bc4oxDYDhAOuSCAfoMVAkU91KIIFeRnz7D/6wr0ObRdPgHmywxk44AHWqds0TPtihWJBwAooAzLDSV0+IfxzsPnkx09hTruImPeByDgf410cNj+6GR1qK9tY0tSjcHGc/jQBy00v2OBUYjc2ST7f5Fc5qOrmSWNQ/wDEPypdZ1TFw6vzt+XAPFctPcqlwsksoU9dvf8AKgo7y21FRPzJhVxya6C3uYZmXa5569685spEu2QhmKZBJP8AQV2uk3NuEDJHIq/xbugoEdBEBluMjtxWhbWC3cD7xyBxWf59qqbFzu27s4/lVjTdbtraRoJXChuQx6UCMa+0xJdyMvGcccEGubl1OXTdQjgnyrjo56H0rqdW1S3S9aWOUNGeCoBOao3UGla9CILyAxt1Q8hlPqDQM19O1qG6KqjgnuPeuot5ldRg9q8ZvNNuvC0yzRXjXNqWA3sMFPTP+Ndx4e1z7RGGXkfxDPSmI666hEke4dRWRKZTyPvDtWykqtDuyMEVRCqTxjOaQFAEMucdOoPUU4MNoI7VaNqN5ZRz3qNosREkAUAOE3RSBjNUtSnByP4cZ60s0pTDZ4yf5Vj3F4ZCV5GeMGgDM1AK9nK2BkANUvh4sUYDH3h96o7uU/2ZOwG4Mu0DHfNGgwySyyW+7acccc5FAHfWNkqAPwCe2K01GBVDTRJ5O2Q/MvH1rQGcc0wFooooEFFFFAwooooAKKKKACiiigAooooAKKKKACiiigAooopiCiiikMKKKKACiiigAprdKdSHoaAOT8RRHyJQB2zXnEg2sQCORmvWtTtRNKB/eQ/0rzDWbM2d6yEcE5BpMaMq9cCzbHXGMVV0/TzJNHGABwCTVx1R12t1q3pBQXi7qBmqbOGKywo+YDHSs42aiWMFiflHUfnXROkQUY71SuVjQEoucCgRhXKIbkbBgKRXJxDzNXuGB53munupZ/tKkAbS3NcxYh3vZiPvbz3oGdtYZWWIZzlRxWlLw/A71iWUu2/UdegOTW9IGxx3NAiONmWTGeOMVuxXBZPm74HX3rn/AJo2weeeKniuiNm7jnJBoA6iCRTcIwI4FbMF9xgnFcfa34DjBHXArUW5EiHaQDmgR0vnIw+9UbtkcNxXP/aJHPDcAZwDU0N0xZVZto/iyaAJ5FkMmC45Pf0q3Cu3YBjJrOeZZJdw+YjHT61opccIAh5OM4oAZc2jzK2WJJptnpyIenTk1oBWKAetPwIoj6mgAKgMqgVzWuXiRW080hHCkKPoeK1bm9ZGO37x+UVx/iy6EWnyvOhMEQyQv8Z9KAOFitXvbkyPyC2fX3rci8HWGoqnnRsrZ5ZDhs0zRHWb986bAwyQOgHYfpW/b65bW5TeRvTJ9j+PrigZkf8ACNf2TcbQxlUYPPBFV59dtLa6MUyGN84Mh6Hn0rQ1vxTYXCO0bMpAGXLYArjL3UrPUEMPnRTZOQwbODQB1iaipjw0ivtP3lyu0VHMTK5cSnlum7g5zXKwTyW4EcgYFm+/nIIqpLrDi9ZM528YPagLHo1pp0txGWafCKOBGaxNR1tLTUvsyyb2XoWJ4PpVeLX207RHmfgBSevtXmFzrLz3zzMSzuST6UAexX2uWl9pbQTQukki7Mvwv581j6Lqctu3JxtO18VxenatPGwyr7G5ILZH69K9Aj8PzwaHY6gynM6nzvbJyp/pQB22n6y9zGqRzKRjIz3NbMM0isFKgknPFeV6bK1veiOSQgDp6Gu+0+4d4UyxwBng0COpiG5NxFNnVFgYnGAKjguVZQpIGBzTbgxzQlGbAJ7UwMm62sgKk4B6VgX24ZJyDkity6CRjYjFh6VhXy7gOenOKQFKJJJ2VdxK7gMH61t6TavFq4bbgFj/AC/+tVfRoN95AhXqSa6y0sgLzzPTmmBpW6FefXrVgcikUYGKdQIKKKKACiiigYUUUUAFFFFABRRRQAUUUUAFFFFABRRRQAUUUUxBRRRSGFFFFABRRRQAUhpaKAKs0e6ZT6A1w3iyxDv05PSvQSKwNesftCgheRigDyGRXRsdCvB4q1Cvl+VPkEA810eu+H3RjdQqMEfMuKwoLZk8yLkAjOD2pDOrWJJLZZFxyM1mXxwCFwPfFWdHYyWRjLZKcVQ1MN5mA2KAMS5CkFju+U9e1Y1pbFbp2QZKyZP0IrbmQNGEzl8/1rO1lZNKu47yEFtuNydiKBljUkktZvPj+9jev5gV1NhOt7YxTJ9D9e9c/LMuraPFdQYBVcMMdD6Vc8OOYhsGdjHp6GgRqXUeGDZxzVUuqSFOcmtG6jyFPbNVJoQrM+DnHUUARJJjKqcEGplvJUt2wfmAqhP8nRjhiO1KqMeA2Q2P50AbC3hEhUtjcPWtK3lQldyj8D1rBC9SeSGA+mTWhZyBG+bnHSgR0lntfB6Z5x7VqKBgEVjW8qRBSWBz2FXzcqEIDY/pQBqJIuOOlQ3UoUAE1BHPlFI6Hmqt5cZQtn2FAFOW4zdbv4V5+tef+PNVMk1vpm/DSOCyjuBXU3N06FWK4UkknHYDP868a1TU5dR8VfaGJ2pJtH0oGdbFdC3jlCMNmcH6egqnquuBo33qFUKN8g4J9qfI8T20iHqR8rL3zXK6haz3Xm26HI4460DMbUtUOoyMu5lg7Ip6/WqtupSZSkbBfftWzaaTDZ/NcAPIGxtrQzbpMd0P0wKAIYFuFnt2aZmTevB9M1r6jZxDWpUjxhWP86yHvpbQqyQ+YmeKil1S8uXZgAm7qc5NAE+vyy3gSygP7pPvHtVKy0aOL5pMZAySegrpvDvhmXUgrSzFIzzkLkn6V24+HmmzoqG7uUJHcCgVzgfCmjf214htrVRmJm3SFv7or3u40uO4tZLbgwsgQKBwuK5rSPB1joDlrZ5ZJpMDzHPKj0ArpbNjEdqM7A8fNzTEeZavp5sLvLqf3bbX7fQ/SujspSIkZO6c81r+IdI+3sJIU/eqMFT/ABCuYQy2rGLnKjBVuopDOnjnYAkkngd6f9oyAN5I3d65+K/dUKtw317VaF/iMfMpwaBFq4mXqMZzVGQCSRVOM0ya5OQeOuarrMWuByD6gdqBm1oi/wDE7VP7kZP8q7CEEMzYrgtAmkGqXMmOEjwPxNegR8IvqaYiVTkU6kHSloEFFFFABRRRQMKKKKACiiigAooooAKKKKACiiigAooooAKKKKBBRRRQMKKKKACiiigAooooASoZog45qekNAGdLaBkKnkEdK43XtMitZopEByTivQCtc54otd9l5g4KEGgDjtJmMV88LcAjj3qLV5GEx+XkdKLiQ217FMDhcjPHapddUMqTKeCuRikBxs+oY1OGMnGZAK3daiiltOCGPfI61x9358OqwyGCVlRsnapORW7/AMJBZPKI38+GRuNskZAz68igoxtHvn0jUWgkDC2lOCMfdPrXZWjRQXIZXUoTn8O1cpq1phY3PLZ4I9DWjpReJVR14HNAjvZ1UoCCOeRTGiBU4weOlQ2sjGNecjAxV4rjJPoKBGTc2uQMKOoNRwwESRj3BrVYq3UZGRxilFuA4b3oAx538t3yerio/tBE/DYNXru0WRGPctkfhWPLG8chZ1I9aBnRadcKWLlskc1qLdAAjHytznPT61x9pd+S4zwCK1DemRfw7d6AOie7ZiqLgkDsap3VwzL6j+tZnny5GMYNTxK0kZZ/u9AKAMPWJZbe2lJuXOVKgY4Y/wD1q8wFmY3dsZfecn0r1bWrOZLYyzpjcpVEHavP5rZknkiXOWG45Hc0DRXW8ukGQN49TQ15PEzSCNQzdWrRh0+aZBGq8ADkVZbQ7ieVhtCgcDNAHOwQvNMXZizMcnPatkaVK6sMAgrV+38PmNiG3A9yB1rbg0zKKJAcr0zQBxt7ZokSKIzu4zii00qS4nixGQgGdvU12kmjo0io2Mnoa3dP8PWscgmiLMwxkE9PegVyhoNo1p5PmRiP/eHUe1d7abHgQgdaytVto105JgBmM5pPD12ZoSh5UdKBHQpHGh4G7txUyNHGQqoAa5zU79rF9rByCMjHrS2Wsg7cvkehFAG1dkKS6gAjrmuV1u3jugJQV81ejbevtWhd36lWIck+9UBcCRgMdeaAOaliYHG0rg9D1FMDvtHHOelbt2sMM8YG3y5flxkdfaqEliRJyTkHtQMqSu+1flqa1gbzHcqehzWiloCqkqM9+KtJbgIwHHHFAEWlqtvYzyfdLPiu6hcPGhHcZrgBK0QNsvUvXe2cZSBcj5sc0xFsUUUUCCiiigAooooGFFFFABRRRQAUUUUAFFFFABRRRQIKKKKBhRRRQIKKKKBhRRRQAUUUUAFFFFABRRRQA3HNVdQg+0Wjx4zuGKuU1hxQB5Xe2xNs6t96NtpqK0L3NoIXGSvQ+1dPrmnCLUTIB+6nHPs1Y1nEqzkhTj19aAKkulA7Sq/N9KwL7RJp7wvIgYgYHtivQYgnlbmGCKxLy/YzOAgHOOOtIZy1xZTS2zLKBuXB9auG0xZwXAGdg2uB1x61JIzSXLpu5I6VpWMTiHAzzwaALdoM26sncd6tmQK2GPUZwfaoY4gijngcdKllh3FWXORwKBEcUgJKsV6/lUoO4JyMZyaoSo2SyZ65yTTopnV1RgDnGCvegZYOGDIDzxjIrPvICELDaflzy3BOa1CMH7pALCoSgJAK8cj2oA566gIcHBBycjNW7f5Y1yOD71PdwLuwOMdSe9RRkAD+7QBcR9zhQvfqfWtKxkWS7jBB2r2NYP2rYw9e9akVwotwckO3LEd6ALPiBftXz4x8p2DNcgNNU3b7uWFdYyNcYZiQWGAuOgrPmjBuH2jbkYoAmsNIjjuPuDgLxWv/AGWnnPwML2AqnDM+5+MEIMn8atpcvHdybm+Vow2fTFAEE1vCkMm2PLA9PU0yNInLRqn71VyQaWSaS4VmGED/AHMdfrVH+0PsbxyyENj5CcjL0ASXduGj3r1PTHY0um6gbZ4w7luwxVbVvENtDAq7Qblzu8pRlhx3rnjNqeoF5II1t44wTvcYzQB6Os63ltLESGcrwp75rL022ewme9mmEdoOpPA/D8a4ax8VXOm3SrO4lUEbiozxWzc+LbTWtU8qSRY9NhXlSPvHHNArHV3Wt2eoQF0hMkJ43ZxVaGC2m2vbkoT61xWo+KtPbZ5UTZjBEcR4RR6+9Yk3i29eQMkYUjhcNtoGehXkxtCyzggf3qqW99tdlXlBgjPvXNweKl1CBoLrnIA+bqPxp0l1i3Xa3yhgcg9RQB19+d1pAwYZMoxWtZwLMM8HKg/iK43SNWa/yWOEjxsB+tdnpZCSpHu3YQ/N68igQogUPj9KXy0QZHXNSyACU89O1Qk5UnPemA/TtPhl1gSuudgyB711MRzmsTTDi6Zv9mtmHrQBYooooAKKKKACiiigAooooAKKKKACiiigAooooAKKKKACiiigAooooEFFFFAwooooAKKKKACiiigAooooAKaelOpD0oAydWiE1m4PUciuQsD8xOdxz09q7u4j8yJl9QRXml1LPpeoSx7cHccZ70gR06W3nKBnIPast9Pj+2SR4Bz2IqC38QOqYVRn9TTvtru3ntwxPAoGZuqWRtL1WCnbxzUlg+0sD06/rVi7uftBEUz89Rx0rKinaK9Me8begPrQB0KED7uTk5qwVbIGBjNUoHLAY98irgPPHselAFZoCi4B6tz+dU3z9ozgYBrUfOzj35PrVVowGA6kdT70ASxszjt9KgmOxsZ4znFWo4yozge9VbrBOM4IPWgRm3k3yjnp+tZ/2g7wCpXPerVxHukIORzSJblj1GQB1oGSwWrSKrk53HsKu2dupujuyAtaNtbRxWS5+8aoG5FvdOW49KANeRkhgyPvhfl9fesC8uVZwqDng5P1pL3Ucxly3OKwpbhyWO7LsQoFAGvJqQUPtbggg1HHq5+8zHAXBWsxLdXwGccjJ571SuJoo+Bk9lxQM6mOZTA11dXCwW/1xxXOat4oiuP3ViqiFRgMep96564+03UhEk7SL2XJwKib7LZ7hPOpYjhR60ATPq4iBMS4P8T5yfzp8evXjqAAZlPSNsfrVEajbtDLElvG6S4xIw+ZMdwafBrA06ZZLOGHzVXAkddx9zg0gGXVzJGhkmVY5HP+rGOPwFUgs77pGLIvHtmrXn3d5NuS3V5WPDLCAc10Ol+AtX1dhLeOYY2PVzz+VMDlPtEMeyISZwcu+K1D9imQEDbIerN3r0W0+HOjabCGmHmN3ZzWXqfh3TYNxhdS/QKAM0CucBfLaQHfBMRIOe+KspqrX1t5YzHIOg7N9K6C08J2+pS4lmECnvtya0tR+HtjaW6yWkryk8knHHpQBz+gzshID9Sc/WvT9Aulku40B/5ZnNeZWtjNaTsr9M/e967zw+fI1WBWzlkIz+FAM3r65EMzAjJPYd6qrMWjz09qW9IMsjs3IqlDJ8hJPGaAOm0ch52weMdK3oxg1z2iSBrlgv8Adro0HNMRLRRRQIKKKKBhRRRQAUUUUAFFFFABRRRQAUUUUAFFFFABRRRQAUUUUxBRRRSGFFFFABRRRQAUUUUAFFFFABQaKKAImHFc34h0aO/QNtKyr91xXTsKjkXIHGaBHkN1az6bMDcwuq/38Eg0DVreNPlOT2r1O7topYyskKuD1BFc3L4O024uvOFuEPXilYq55/eajIpJz8zCseS7ma7SSNvlibJPr7V0fijRDaX7Lhth+4aw1hYJt2gc96Bnb2NwJY1YDgqK1FJPpXH6LdG3nW3dvvfdzXUwyM0eCOQeuaBE0jDZ3qsMbj2xxUkr8DB4FQg4HuTQBoRj92AMcmqM69fTPNTJMcYH161XlLHccjpQBWktdzZP4YpyxAfXaKmUsMHg8/0qBnAXIbkUAWw7tGD2ArHnLFy2cEVorLiHOf4eazrl1EfOD+FAGNe3Hkq7MwP0rDk1RLcNNI2Dj5RnpVvW5l27QMY7VwV3FdX1weSIQfzoGdIfEqyHaH4zzg9Khn1+CQ9fbPpWRbWIQbQh9yRW3YaMLjYAq4agDPu9Ze6iNvYQkIfvSngn/Cm2OlTXM3lqjTSN2B4/OuutPC/TzcLHnjaQM10NjYpaSRoiwRhGJy7HnigDmNK8JNNexxzFcbsN83A9q7NvD2gQW6wiNVu0zvJ5JrP3xpJMC2CrF0Zf50qa5BHPNJncHAw+OfWgRpjT9Os7VJIogJCAQoPTnrUst4DGswkuEjRth29FxWJF4njU/OoaU99vbNJc+IN9mY4YSrsxJ9OaAOsm1PTprbEjNIFTcM9zVfdYO6YVGJUEgkVx8OsXSQlZdo+XbgDkin2euCKYbyOB270BY7JI7NlX5AjL0HpU5lSOEpIuVb+Vc/BrMEqjewU+ue1Sy6ujxkA7iOM0AZ2qW6iVscDdwccVJZ3L293bzZztz+oqW4Xz7U4XkcVBHGVSM9OOR6cUAXbnUmkLbVwx9aZbu8gByep4FVGCge/U+9XInCxruBQ/XqKAOr8IxsxuJWOeQorrFFYfhqDyNNUkcsdxrdWmIdRRRQIKKKKBhRRRQAUUUUAFFFFABRRRQAUUUUAFFFFABRRRQAUUUUxBRRRSGFFFFABRRRQAUUUUAFFFFABRRRQAhFGKWigBhHFRMvpU+KQigDF1XSodStykijd2NcPe+HWtGIdcr616eVFZOqQiSIkp9M0AeR3ULW22VG+aNs/iK6+ymW5iRwRh1B/xrn9dtmjlddoCnmpNEuwifZSORyhJ656ikM6KQBRnAwtVjMAM4pdxY4Yc9OtQzblyMcdBQALJlvvEU5jtjGBk1nFnDHA74q0jkR5JycUAMe58tsFskdhVeSckY3cdBxUcww2eveq5fDH2OaALqXGIypxVWeVlhxjJxmoWk2vx3bmiafzIgFIL/TNAHO3cbXc+05A6k1pWekQzIAignjIxU32Ygg4AOee+amSfZ/qmIbOOaBla70WHLGJdjDgiqiQzQOse3BXkY/rWk9y7RMspJ3ZbI9qrPLM0mUVn46HjFAC293lRhVJ3cgnAFXDfRSSKwURuBgrjoayJEYNI20bjgkZ5qtO8w5AHsQDxQBsX1/G8sdxEUQkbZFx3rFnmhjZi8hJxnpWbPdSQAiRsZ561WhL3bc7jn170gNA35U/IoI96uQ6j50QRxsbsauaR4Ye9VZJJAqkcL6V09v4Ot4tvy+Zx1xQFzhp1lbJiY578darJZTyPiTeXPavSf7FSA5jgAxyV60NpcEkokWLaT1HvTC5yWnWrRpyu0j1rpLS2a4fBYD0AHSrB0/YTmMAnn8qu2MOyd1K4B6cUCD7Jsi29MjJzVWeNY2APcdvetq9ba3ABUpWJO24nJ5J5HoKAKscRaUHHHf25qwI/tOpW9so6nJ+lPjTYqkLknnFafhq3+0atJO3Ij+UGgDtLZBDFHGo4Aq6lVQcHip4zTES0UUUCCiiigYUUUUAFFFFABRRRQAUUUUAFFFFABRRRQAUUUUAFFFFMQUUUUhhRRRQAUUUUAFFFFABRRRQAUUUUAFFFFABRRRQA01Vu4hJHirZFRyDKmgDhNf09GQuRjBx061zj2otolZByBmu/1iya4tyR25rkby3dZDERg4oAbZ3Ik27zj3qzOrcrkY681hSwz2kwO3KnqDV+C+3x7e69QeuKQxSueoGe9LtIG0D60PLzyeOKY84Rc9fp3oAR0x0XJNUp4ME7cjFakbLMgI4PcelQ3S5zjoRxigDGliYkEetLDEI23DvzVh4znGOhzxUe0gigYHY7ZOBnr71WkcH1z2qwIyTg1Nb2qyN0zz+VAFFIZDGvGT0qb7P+8ZxwSO1aMkIij3AHIqGKRWU4wD0NAGU2nE72bLZOcntVL7CgVtysRnjBrpvLyDtO72qS200Snc3APSgDi5dAW7YBEYZ6ZBrb0/QLa3uctt+UZHFdWttBbqVK8etZskeyQkYxQI1bIWkbIxQggYCgda37dIZoj5T4Yj7vpWBYspA3uNoHJ70seqeTOTFIAOmDzmgDbe2UHBIDe5qMWqMCo61UF/LO6l2jHfAHOKlS9CjzBzzgUCJWsQq8elUlKwSqSGJ28Yqcagrxt1BzUWAXLFxwMZ/CgCPULgOhl2gYUisBpgHO7p1OKs6lc+VCTnjHArlJ755JHwfl3AfWgZt3WqPAuY1yznCAck11nhKVY4MPw7HJz61x3h7S7nVtRWf/AJZw889j6V2MenS20u9cIx6jPBNAM6tTk561YjrnIdcFvKlvdpsLdG7GtrzvkDK2R2piNAHilqrDPkc1OJAe9AD6KQHNLQAUUUUAFFFFABRRRQAUUUUAFFFFABRRRQAUUUUAFFFFAgooooGFFFFABRRRQAUUUUAFFFFABRRRQAUUUUAFFFFAgppFOooGVpog0ZUDrWLqOkLM/mKPmFdCRUbKDQI5qbS454SrqOg5rmdZ0V7OA3EA5iOCPVa9CeAHI9ao31qstnIrY6EHjtQM8287zIhJjHrUTyMFUA+mDUojEU81v/camS2ZZcxna3TB5FIY2C4McpOScnFXywddwOR7GsBopkJZso/QjtVyymcEoxIzQBcZQXOQc1F5fIHvxVhwwHOTjvUOSBmgYnlHIx3q1as8TrxnJ54qAMOOSPpQ1yEyN7A/QUgNSXySxU/ebtism6s2im3JxnkinxXmZFLMMK2SSKtSXCTkMCMYpiGWz+Wrblz9aDMw3EZxjgVHlQcA85zQTwQMEUDBr1mHzqeOOTStOnkAEcnr6VSeQIfmGQBkCqr6psQKyq6gnigRpi4QRsN4A9AaWJ43+YFeK52e+DvkDbn0qNdSMZxg7qBnapIsbqSy8jpTbm/Q2qgELg9K5BtRurnop9sUk1xchAXBK+goEdELtkQkNnL8VONVCrIrHOeBXJjUnAPyE45x6Uv2h5jhhgAZNAy/qmomcBU/CqOm2T6hdi2iyCoy7f3c/wBaZaRvf3awwDfKT1xwK9L8P6BDp1sFKDd95mPVm9TQIk020bTrOOK3RVUDK+p+tWTdyyDazfNnGBSX90ttBuU/OfuisFLyZpgY4zk9/SgRPqwM7wjd86An6VbsNaNvAsM24p69xVeW0cCORssx5aq6xLGw3D5SSOfagDrYNVtZEG2ZQT2NWhPuOUcEexrl4bbzVyFicdfSnmBg/Csn+41MDro7hscirCzA9a5OGa4tyPLuCw/uvzWpDqqHi4iMZHftQBuBwe9LmqkUscqgowP41ODQBLRTA1OzQAtFJmloAKKKKACiiigAooooEFFFFAwooooEFFFFAwooooAKKKKACiiigAooooAKKKKACiiigAooooAKKKKAEppp1MZscDk0AMIrNvrqKLcjHHBqa+v4rGIySuAMdTXCahqz30pK8KOg9qAMHWZ/K1XzeSr9cVet5FdFIP1FZOrqTsLeh/CjTbgvCuTg4pDNa5RSPmXIFZXl7JMDI5rZVxKoxg9iKp3dttJZRjFACrcExAMhI9qheYZ+635URswGAM5qULlFyPxoArecAxAyPrTZpVbacVLJEWyRiojF0GR9KBlKS52E8GpYr0jHP1FTCBcEYBIpxtYXwCMHuRxigB0V0Sucgn09KmR2JP07Vmy27xZZDuGcUiXEyAhc9O/agCa5m+Vs89uKxpYnZt2auyLLJweMnFMW3jUNvbn3oAZbW4P3sZIqWPTzI3HAz3qwkhjIURqw28N0pou3jUgsq5PWgCU2YjXaCQaYyldsYbI7mq1zdtI4EbtI3tUDSz/xKFPsaAJbpooUbIJIPGO9Zcj3FxIBgojdh1NW2JyoY5b3p9qiyXTjgiFev+0aAOz8B2EETMxX94vTiuyupTBIMDO7Oaw/C1qlvZiYYzIMfgKtX10odm35C8DFBJVuWNxcMWbIHygetaUFgkRRSAc4PSsy2t3uLqKNTkj5mzXQtiEHccFehNAGdfLsLKT8uBWbqsHl2jM3ABBBHfOK0L+VnkMSkAspbIGcVnzPHLBbw3DhWPzFT+lMCtp93IJdqnIFb4AljDEYNULWxtw+4SLj61sxJHgZK4+tIDPYSITt5HoaQ3QAAeI46ZrVks0lXK+naqLwMjkH9aAI4p1Uh4pWiPoav2+vtEwS5j3Kf+Wif4VV4IAMYbFOaxhcE7NpxnINMDore7gukDwyK49jyKmyD3rklsJ4GEkMhyOeDir8Grzo3lzRliOvy8igDfBp2ay4dXtj8rsY29GBFXI7qGQZSVG+hoEWRS1HuGOtAfigZJRTQ1KDmgBaKKKACiiigAooooEFFFFAwooooAKKKKACiiigAooooAKKKKACiiigAoopCRQAU1mxQXAHWs291GKDIzlvQUAX9+elZmqazbadExZt0nZR1NZNzrFy4KxYQeveufuRuZndi7Hv1oAqalqN3qdyZJThB0QHgUxEIT6dPWkfCpyQCTUcE6zDK5wG25NIZS1WEvAh/utz+NZ+nZTzI/Q5Ga2JYy9nceuNwrCs5ANUZT0dQRQBuxOUkX+4etaLRZiIbn0qnDGCn44rQjAkXrhwPzoAzVh2selIVIYD2q1NGQd2MjFRAEjIxx2xQBSmDYPb3qFYi0gYEkfWtJ4NwORwfaq6WzKOnTpQAwQPnClR1PWoZEYMA7D86ueUx4Kmo3h3tkKcgYoGUGcrnDHGe1VpZmBJAZvWrVxGV+XgfU1TkIyQDk+1ACGXIXCEAd81FJchTgAbvSht7Y6ACkWAedvPUjrQAwPNJxv2g9hyanhtVL5YE+7VatrVW7CrywgD7tAGeoVbjKqAAOlQS4kc4HPc1anG05weeKjUpBE0shAUDvQBl3b/AGOBpTyf4R6mpNDt3kVA7Es75PqayLu5fUbwMMiFThR612vhW0ZpvOwCEHC0AdvGVtrCOCNhuCgCo3QTtsYAooHI7mkncRRBWYF26kAfKKn0y33ATN82T0P6UEmpptvFY2rSOP3knzE+g7CobtmmjJBB3cDIpN7yu4LYwBkHoKjL5YFWHljoMcmmBmSl5JVSdjFICNmB94ZrMlWKW4keUEnO38vSuiuRHJb+dOAoQEgiubScOM71znoe1IBfLTGY3kX6Gmi6nhztnfjv2qYyKUx374NU5AFYtnHH96gZp2viCWHCvKM+44rTj1pJsElMeu4Vx0sIYltzMfQcik+yKi87Rk4yfWgDtRcQOhxtB5PWrUC+YSUcke1cgmmTQqHJCDGc7jWhY3txbyoHVtnruoEdC8zwJl3de2agFw275XVyT3qKbUoZ0VdwGDgk0iGLcPk3D1AzQBbZppSAyjHtSC0LHO0rxxjj+VOiMJwFJB96uxgD+IkUwKAkvoGAQyFO43Zq7BqkwA81QMccirSrGw6YpfsankfyoAli1BHOCpH0qzHPE/3XGfQ1nGzA6KPqBUfkMuQCSPTpQBt5orJV5I/uSMp9GqxFfE/K4GfUUCL1FQrcKw708Sp60DJKKKKBBRRRQMKKKKACiiigAooooAKKKKACiikJxQAtITimF+OKqXV0sClmPzdhQBaaQCq019FEOXGfQVgXepyyNtDYB7CqDTnJOR9TSA2bjUpJ8qmUX171kXMq9M89/WojM+MKzH6Cq0gk7kf1oAbNOMEevvWZdXLFcZwDxiprssIlAPJbBNZ8ynngD3NAyKT5lJRcEDIJ602xcjO45Pmd6VyNj55wOtR2jABzngOKANZdrZXswrjLlTb61DGcjDFa637Qqtyc4XHHfmsDxLAVlhvY+xBP8qAOkhwYwB16mnqzIybSMDrVawmEsEbg53KKvMobjtjmgBZeW6DB6jHWoTCFJCnHrUqgMSQegqRVyM9PrQBCUZlAzj0p0duMAnp6mrXkjIJxj6U5lAHAxigCo0ChTzzVCRdpwGxWm4XngZ9etZ8yFwSVBAoAyLk4bAG7FUmRyc4ArTuI+SApxjqKp7FHJz+dIZXCcfMfrViO2LAelCqFXPAFSowAHXB9KYFy0jC43MOOuBU82zb8uAOxJqiH2kBevvVe5u2BChiz/oKAFuyi/M7gge9YGoTS3fyg7YvT1q48ck7ksSW9KGtNy4YdOuKAMu1tGeQL0GcD1NegeH7c2ls0hYqTxn29q5mztgkyhQ4wRXWQAi3js1bIUZZj696BFpF+0zpw3zt39K35ZBbxARtnaMKo71lwkAZUAKOFbHU1ZQqpZj8znhQfagCxEkiqxkf53PTqRVlIVlJjH3EGSc85qixEe6QNvPQnPU+g9qkuLlbHTQitiZxk/U0xGRq97JKTbKNq5xwapRRqAoCbue1TLAzy7mJP1q0YkC+vbg0hlFrYtkhQv4U0wL0Z/bHU1oC3Zvv/ACr6CnKipwoHpmgDOIVVwS/16VVhRLzUYEydsT7zz2Ht+NXL5WKsU6gVf0DTA1vJcMOWG0GgC3LbK0TZXovQ1n3KNd2zW6MYyvIK8muhWEAkFeGGKy44xDfNknAOD9KYjnodPulcq0kjkdMpg1oxWVzAAXhuBnsDkH+dbsy+W5K8nscU0XrBdobHrSAqJcQWy75YJoyP7zcfrVmHV7IkCOcfiwqxDBbSMHeKIk9eKu/YbORBm3i9vlFAEEN+G55I9qvxXqH2+tVU021Rty26L67RUwtol42DFMC+lypFKT5gyFFUxBGOmQfY1IqtHyoyPc0ASNHgYAB/CmGAHgoBjuKmS4B4ZSKlypoAqCMr905qRWPQ5qcqD0ppj/zigC3RRRQIKKKKBhRRRQAUUUUAFFFFABRTSwpCT9KAHZprEYqJ50jGWYAe9Y99r0UQZYAZH6cdKALuo6hFYQGRyAew9a5i51BrhiwyzenYVWuWmvJvNuWLf3V7CpIFVANqk57DtSAYIZZD8x4qxHaKvJ596mUng4xTicDnrQAwxAAACqdyMHANXsN1zWfcnBOTTAyrxsKpwfvVnSZ6k8Veu8Mg7nOapld4b5gPpSGR8YIJ7cZqvbqSsuOuf6VaUKPnycA96sRWqIr54yTzQBSIDE8DIHFSNEt/prW7H5gOKWSDlyuRx6dqLQBJt3QgdO1AEGis8KmCTnacYrfUc4x1FZk8SW94sqj5ZB196uxSszYYe3WgCeIABhjHNTHao5wQRUahjkgZpzE7eh9eKAH+a56DAPHWmM646HrnrUTEk9COePeoQ7CYqSMUATu77MqoHGcVTlywwPXmpGLFc7s8EZqvMD2bqOtAFK5Gwk9SOlUHJIPy4A7tV2cbSSFYjHXFZjeWq/Md7EZyaQwMobKgl8+lKZNpA6KBgDuahzLI22MYz0FXoLARspmbe5GcZoAbGskgGMqv86ka3WMjcAce9WdhADYK8Z561G5VSOVz3PpTArOuMnjpwKZgmVgOWI4IFSO0atkjPtUMkxXJAC5HOKAJIGe3nWQyZI524roLG8MrEFRvPVs1zlnFNezeXCvuWPQV1dpZRWaCNTucjLM1AifzzG4UHIxzmla+QogEL7e+AageHnoUJB2+9SZ8uBHZwoJJL8YAoAvW8yyEyM5WOPliTVTz2vpHlf7v8IPpVW7u1eAW8RPkof3h/vmiHcmEGFzyaAL6rlwTxxgCp0iyfl5J6YqrGQzENJnA5NTveqq4jI29j60APfYj/M2SB0HSq7uBwn5f41DLc4BJ5J6Uy3DTuqqeM8mgCe3t/OmQOMlmwc966WGBLTT0jTj5QarafZhG3kAEDoe1Wbt9u0Zx0GMUxChxt+hrNulH2jIx7HNWxINrAkGqk7ZYNkcYIz60AWeJYUbhuxxVCeF92R2q7akyJJGc5I3ZY0rRhkwHGQcUgM6K6lt5Pu5x7VoxakJcEowx6iojCpJGQfaoltiHLLuwP4SeKANaHUVYgEEA9M8VcSaKYAqRn0rnJI33Hkg9eTmmJJJCw2lhjmgDpxszgkZqQKmM5rHtrx5WAYj8uautJs7HFMCwTtfCnFTIW+tUo5OQe3vVxJOOlAE+eOlKMev50wOD3qQYIoES0tFFABRRRQMKKKKACikNNZuKAFLelITnqaheeOJSXYCsu81tY1IhGT6t0pAak9xFboWkcKB61z994id5BDZpnPG81mXV29wxaVy38qrJ5gYGNDxnqKALTS3E5/fMWyfXimMoBzkAUMG4Yjk0gwVPTFACHYCfmyfSpYx0AHaoGZSwAqdGAGc8UxlgNgAhR7U1XLNyfwqIuSM5pd2BSAlkcBeuKybyUKjEn1qe5lO0DPNZlwzOduO9AFeRiYgB065qtEfkOTgd8VZn2gMD0A6VTjYEsABn6UARs5KNyRwcCtWLDRQOfulcms1xh8evFXNJIlhMLdY3xg+hoAlWJmZ2IA3JwKzBuinBI4zj3ropVKygDB6mse9tv3pIIJ3Ej2oAmkTzYDE/XqpNRW1wS5VhiROCKRC0kQ5wwXiqWoM6It5EPnT/AFi+ooA6CKUEEA/41I0ny55wB1rnotTEkCTr0PX2q6l8siDac8etAGg7nrnI7cVAWXO7PbpiomlVlAB/SpIwGxxkmgBQu4cflUEr7TtUDrgZFTgkZAxWfdXOH2ocuc4FABdgBSZZO2ABWWloZDnKgepFXhbuzZkO4+lTiHygD5Z69KBlSKw2urGRiM8FRU8ipGpYISMYGeSatGbZbZkG1BwSO9UJbpnViGAU8KooAazs7HB59zTZIt2R29R60lsoDZzuHt3NXipKjAC47nr+FAGa8XzYPTvmi1099RuVhU/Ln5mHpU8sTTTIilhzhj2A/wAa6jS7KK3t41VCCOhFAhlvpsNsFjWPaF446nirL27tlFHXrk81dcYPGGb0x3pArbTkbR6DqaBFJrZC/JxsHrn/APVXN3dzPe3zoMLbjjAPofStXWL1dv2eFz6MV5Cj+tZQUrtXASMDJ45JoGSAbnAAACgmrQcBgGxjv71SiU9c8sOAOT1qwDgMc89KAJ/OXgA9OnpTDOFHJ69M9f8A61VXlwQCM+gpqbS2XOQORk4BNIZZ+aT5m4XsO5rqNKsBFErsMM3OPSsnSbb7bc5blYuWPYnsK6uKMbueM0xMew2RZ9aoXb5K9wG7mrdzIFOM4xWXO2Sp3HBNMQ6NmD8tkGo5MAE5PQc5oQcZB5C1HOQhJPPy0gJIW2Shw2DnHarqJI4A2gc96zEl3kY9BnK8Vu22TbIeCRigCJbbLbyc+2KbIgUnacexq2q7l+lNaIgHnP1FMCoUOMkEfrSPb56rjipGRgNwyfUVPCfl68Hp7UgKCweUwdODV2OfcAswAPrUjRqMDg/zpVsy4OflWmAeSMZU4z+NPUupwz05YzbEAnKH9KlZPNIwMLQA9EXj5sVOhK8dRUaLtO1hUuwdjQIsUUUtACUUUUDCmswUZJxTJp1hXLGsi4upLhiqnC0AXLjUY0yFOTWfLqUrE7BioHQZxnpUZHHSkBHKzycu5JqpMAOg6mrjAntiqkv3uTQBWJOetSxRuxHzYA7U0oMZIPNWUwkYOKAI5AAfpUKDIOByafK/H1phAC/hQBHJt8zk9OTTo2yfWmoFAJI5zTjyflpjJd3HH4UhJJAP1pi544xSOxANICvcYLKAagVPvOT3xSzSYlBHbtVcM5ifJ6k8UAVLxiRgdzWerbJiPXgVfnXK7j+VZ06FSG96ALR+YZznHpUdvOINQI3cSr+dJHJuBzxxWfczGOaF1PKmgDsJHJj3q2ABjgZqrcRlhuA6nv8ASqsF3GRtbJL8jFWWlwXUrt20AZkUkwkbcOF+Xgdqnkj8qbYw+SVdppyI0rttbBz09afewu1gJMHenP60AcjBHKt1PCj4w5FaEUki7S3AHX3qoJMahdbWHLnFWkZjEQSpoGX47lh948Doa2YpQ1upVhnFc2rhgAqL0xjNaNi7LGIxyzeh4AoEW5pnG9YwcqMmqllGjEzsxeRjgACtSCB5coo3EnLFeB9KlOmpE+6Sb5lHRRxQBXwAuVA3H26UyXCqCzKPXnmklnjjU4jbrwGNVZpXbcfsyck4yaAK804uZAoyEH3QDSrAZW5UEDj2oV3TBJjjTH8I5p4kJYDzvmAJ4HegZaitvLJ6DA5JpdmWIQ8Z7g8moEeQNzGxU9eetW4Q6Kjnbt3fzoAsW8CJ94Bj7eta1swTrkg8YqqCDtC4JHXjvU8eZX2DgryzHotAi/5iLhVUhu2T3rGvLqSZ2ijkJI4LYx/k0XOoGTNvZZ29Gl9fpUUeIlARSWBxn1oAikt1ht2GzewGc/1rPNtICS5I9EU8D2rZdZmUkgD1GOfzqq8TlyxRTnj1xnFAGeqMM7VNOZJN3zED8auSRhZMM4CrzgVXZkU8jce2aQFeQNyqjg+vU1Lb25Zl2AkscAdzSxxPKWLr9fYV0vh/TwLhbiYYA+5nv70wNWxsBYWaR4yx5ZvU1ehQDJz9KdKTGSTyh6+1VWdl+6CUA+9mmIq3rqAcg5rLabMkfqWx1rQvnCw7ievQVhxktcQE9pM9frSA2EGWb6GkuoQwDFcntU0aE54wCf6U+ePdEnpmmBQtlUSsD7E5rTsJgX2nlWX9RWeo2TM3BJX8+antHP2vI4CdaQGxETkgjAJzTnIGWOcfShk25bvxzUixgrknI7UwKRkw4G35T04oKJu3LIV55HrVwwK5zikFqijqaQDI3iGdi4b1NPG9+c4oWJIycAU/PHpTAesQf3zViOLyxgciqyEgjFWkZiccfWgBSARSqpHanbe+eaeCe4/KgQtLRSE4oGFV7i6WBM9T2FE0+0HHJrPdWY7m5Y/pQBWleady7njsPSmBW9ePQVZZQBmkCE8/w/zpARbAKYy8VY2/rTWX2pgUZBjJqoVyelXpVbkmoo4smkBCY8gCmynbH0q20eKqXJwOvFMCpnMgHpzSSMOgpF5YnI/CjA38YpDFVM4xU6J3oiXPNTBcCgRGUBBquycEVaJ9qgkBIOPSgDMljDSEenNQ7cB16c1KCy3eSPanFAZCAc5FAzPlXORnp0xVG5jPl5J6GtSWEqST9KpSrmNlA5oAziArFSeAMis67VQx+Y5HIrSdGyu7AG2qcu3crBdxweKBlmyuiY4mX7yttNbOWO1mcYYDIxiuYtklCsAwUM3THSte3vHSEoy52nklsdKBFxYyJX/ebR14q/HGTAVaVW3DpWUkzsVz5QBHPHNakYVoQDCM/wALA0AcNJbhb+UFejkGp1AUMMdOlLfL5eqXCA5IO4e4Ip6A7uRkMtAxFb5hjoQBV+wd5ZPJhGVH3j/jWY7gFePbrVzR71Eee26Ow3A/0oA660kUxrGoAAPap7h1SPbjP17ms7SgpAJZQB3Jq1dtH5YKkHA4oEZV1NtbEa/OT1qKSFYyPNJLFe59akGVfO4HBJ49ahllVnc7STzkk/yoGROFc7ljxk4HfgVCj/I3ygA8Djk+9NmlLA5ZVyoHXoO9U/tKqeCAD6nnFIDUQhGB3Hd1PPAFaFqWCeYWzt5H+e1YMN0C2VUEk9+aka6ZO5bnGB3pgdGtyzSCJCqlRueTPCD19zT57p7yMRQEpbdz0L1hWhuAC0rYLEFhjj2HWt22hJGA2Tjjn8zQIntoAigcAAduxqaMorkkgDv7VMkAEW0fiaYIYY2wSGJ7ZoAje6UgqqFhUMhmlHQKM1ZZok/iCgdcVC93D91X59OtAFb7Krk8lvepPskZIwg6daUXaMMBsZPpWnpVibu5B52DrQBNpWi+diWUYh6j/aNbzW+EwB8o6YqyIxgLwqgYAFMlUonykmmIpid48hkLqPTrVNb1RJuRWEecFSOPwq2jKGY7SCazpHVDg8HeSD+NAFTUp0kgd0xgjIUjoazoCplgbGB5u7HerGorsTeoB3dj71FapukiyOBg/wD66AOkiaMByRyOlNCtNCB0BPXFTCACIgY6ZpxBWzjI5Hr+NAFG5tVSRdp5OV/Sp4YUijKDOduSfU0+blQxU7gQc0qkbgQfl6ZNAFhT5sR46Dmra7VQE8cdKoq+1iFycripFEjzLkfKenPSgC1vJ6DikwccmpwqIMd6aRzzQBCsRb6VMsKqOeaUMB0qRQTyenpQAwR7jwOKnRQBgUDFGcHjkUCHdKTJPTp60nXk/lTgRQAM2OnWq8knX/OaexOePvH9KicdBQMhPzNk9aZgk5x9KmK5+UUFSSFWgCukZkbJHAp7oM4HQVYKhVAFRMD19aAIWGTTCKlIxTG4WkBWlUEUJEEXOOtOVDJJk9BU0gwAKYFSYYBrJuyCdv41o3MgAJzWS53Pk+lAEONq9KdAhY04rk4q5awYHvSAckWFxRs5zirOwgdBTSpx0oAgI/CoZF56VaxxUUnGDQBkzRfvycYquxZGXIGe/FaMo/fZqndwlcvyO9MYyTyijEketZlw6HOxT92tEsmORkY6VSmk3MdsZGRikBkmPO35SeD1NV5UwAcDPtVydnGBsO3GKctnIQBtA7/WgZlhTk7jtxzketMmmw5AcMCKuXFpICRt79u9U3s9gztYEnrQBGty6dMflVmPXJo0CtHwOQabHahwQ2APepVsCedy4+tAGTf6is+orc7doOFYVoQndCJAQVByR3xUv9lREHfsIOetU3tPsmUjlYD0FADrpAsecDI5rJFwYb6KY8ANgn2qxN5p485j6cVTdcrg4PNAHX2d6FZlzgfWrc9yDAuHAz+Fcpa3oTkkZxg1qmTfArbWYDk0AWpNjhnaThenNUJZ4Ff5ctjqc8UjzFlHCqnHHc1nT3G59o/EUgLMksfLYXHqf5VbsdMN/MpnkEUOck5wSKyYLd5HVix56CtJIlWMI0srHHKrTA0rxrFQttZqMD7z5/wqzZ2Gz95Ioc4/75FUbePaAzEHsATWpHvYhQxCd1XGPzoAsR2iNIr4+73JrQtY40Tquc5JHQVkxEBmwXY56k8fhU32lydpJAzx0z9aBG75i4zuHtg0CGOToV6fnWIkoUjDcnqQa07C1aR/MZmC9evagB0lsH+U7QR044qnJpvzEtK2B14rTvLiG2AaQ4VOAO5rOgttS19tsaG2tc/eJ5IoER2yxyXSwWqGSQnnHb8a7vTrJbO3VP4urGoNJ0W10iHES5bqznqauPLuJC/jQA933MB1A60xnRhgNilQAL71DtDSf4UwCSIeWSGrKnRooiGGVJJBrWkQ/dU5+tU73It2Y+nAoA5/UQTHCoPVgAM9akVVideOeMj8qz5pna9t7cgBFO4Zq/MpKgD196AN1H3wKVPy4PFEMjCJk2k/Pj2plqc26gjjBq1bhSCO2elAEVx+8JQqMHjg0yEb1QHAC8HPtV11HAAxk0xEVSwH1oABHjtnjIqcNiNWA+7TS27aQML0zSxLwyE5DAYzQItIOMscmlZM802BWPynHymrATjnmgCuAq0/zB25NSFUH8IpNpPTgUDIyXY4A/8ArVIIz3NPVQowKdQA0Lj1paWkxQBHjAJ7moyDgmpyuaRlyDQBW+6u485pyrsBLfePWnKpxlh06UD5j7CgQ3BP401hU2KjlOBQMrP+tRNk1NjmowNz8euKQDo02pk1DO2PrircmEUCs+flWPfFMDMuSTxiqqqSSRVmcfP+FOji4JpAQxx5OMVoQJgAYqKKLOKvxR8UARlM9qYy8Grhj4qvMAo5pgVMYqKVdwqdhzTSvBoAoumGzSyRLJGQRwRU8i55pqjjrQBghGRiCMYOKrXOVcP68fSte9i2yZx1rNmXfGQTwKQzNlyyEDI61LAjhDuctxzUcmd2BwRnipoSSCPpmgCFrdiQQxwD+dRG3PYn73c1b3sFGO5xTHKlTu6+lAzPlj7Hbxxk0xrcY+U/rVmQD++uOgBHSosls7plAxjikBWNq/ILE+wGartHsbbgA+h61fDhAQkjEdzUEmwL0Bz+tMCH7KjhsyDGOvbNUJbZfMbuo7irbkgkAc+lNypTDkAE0AZcqKhQY4PBx2q3BM6W7xMzLhgD9KjulSRht6A1Z1q1aK1tbhMASoFP196AKd7dIF+XsMCorWPeASTknkiiLTy7bpGJOOBW1aaaiMvbn73rQAlrbZRiwOAMe+avGAxxoqqzeu2rkNmRkniQDCnsRV2KBAAqkg9xjgmgDOtbeVdu1CGx1c1e+zcKryKD1IUVbS0dlYg/ifSmzRxoioGZm7mgRQkVUOFJZh+lNW2lYgSNt/SrSqCcRqAg7d2NEsR5aSXBPRRQAWUKmXA+dVPXNbLXK2luZWYbuwHT/wCvWVBKsCgAHHcgVRmvH1K+jgh+bkLgdAKANjTbGXV7wSzf6tTwvYD/ABrtINtvGFRQEHHHeqmm2cdlZqmRkDk+tX1kYAO0RCfrQIWaZimcYUcnNQLdwiPPT1p1zd2zAJnI/SqTvZk9QFA60ATXF8rHCkhcfeFV4r8RkjJ56c1RdkP+rbC9ueTTVjgkPP3u+KANyCSWY7tyke1Vb67GGhZeo69qLYLEv7iQ8DkHpUcn7990mOBwQOtMDEOf7UVyp2hetWGyWIBPynPNSeVucMD/AAnnHOagz+8lI25wByc0AbNo+beIHqVJq1GrAcD+IVVs0xFEevyHjFaNsDkjH8VAD3TIwB+NDIVUMB3/AEqf0HfPAp5i3DnpQBWCkL+dTIgXB9DQB8uKegyjDvQImXAkB9RTycdOtRx/OBntUuKAEC85PWlpaKACiiigYUUUUAJS9qSloEMYZGKRE2ripKSgBpqu/wAzZ7Cp36VEw7UDK8h2oT3p1vHtUE0jLvlCjoKmc7EoArTNluDVOfhDU7t1OKqyknj+VAFJlJl5+tSooEfXigJ87HmnhTtBP5UgJIgOB3q9Gu0Cq8K54q1jpTAGUkVUnGGAPNXA2T7VRnO6WgCu/EntQR1NK3+s4pSOM0AVyCQaUL14p3TPPenAZ59aAKd7Fuhz1I5rBmBUE44rqZE+UgnisC/i2FhnrQBkzQ9WHXGRVYSGNhnhccmrhcsQCOnFVJkyCpHHApDF+0cnPTdVd5iXAHRjVWZXjlynQepqMSlgp6Hrg0DLrMpZtw+XGeagZlOG8sAHpSCUKpJ5pnzyEEFSM54oACeTsUDnFIS23G1Qaa8wGcY4pGchML94jk+lAFe4ZQSBy1VHVicMeavFMDOMt1qFIjMSFBLMcD3oAq7CR04zitjU4ZF8MOz4KwYkH+fwq1a6UFjAYZIwf5Vq6hp5/s6+s1HEkGF/KhA2cZYqZpFcHHy8e9dNZ2nypnr12+lZXh22LW0e8YxgEH1rpoY1iZQOrNz9KAHCJSVDdP4OOlWYY06Md57nFKoRCqKpbJ/KpyobjAUA8mgQyRuozxVWYY/hBPqatSEIpwc+xqv5MkmS3APQUAVSyxAEDJHQe9JHA0ztLM22NRkljxVmaW2soi0oyc8eprnNT1CXUQYsmKAdVHGfrQBFq+vrM5tNP4j+68uOv0rrfB2h/ZLRbuZMzSHIB61x+iaZ/aWqJAke2FMM7Y/SvY7KCGxt0J7DC/8A1qAZNDb+V+8l5Pp6VHdysYSEOPpTXneWQE/d67faqtxLIwIXjdzQIqTEq2CM4GPrVSRSRkgYA5q24IBxxx0qEq3fABHX8aAKgWNVGWOfSp4WUptCnJPT19qm8pQNznlucDqatxQSMgZFUHPGaAFhkZItqx59iOlQASyy52BAOBWmARAxkGPUiqnlhynzfhQBXmjWKVBkZ25YgVSWNQJD39xzWlcKftrEgD5apxrkuccmmBesSWRAOy+laFuCGk7kHis7TgzCNV6BR/OtK24kmXHXmgRbRfmB9asYGKijHyg+lTCgCuV2t+NOQfOwp0i5570qDLA+ooARPkcipqjYY57ipAcigAooooAKKKKBhRRRQAlLSUtAgpKWkNAxjVG+FUk1LioJfmcIPxoENhTALHqabK25iB0FTOQiVVYcYPU0DIXAxVR+h6/WrcvA+vSqzL0HrQAxVxk47U85CrTtgyPr1pzkeYq9cDP0oAkiQgY9an20yMFunSptnFAEbMB0qjI2XJ71dcBVJqk4B60AQEktnv8AShgfUml4GQaeMc4PGKQERjXPI796dj5OKWRflGe1MD4yAM0wI5CcDFZt+mVJP51fnDY44HeqOCyNuOTnvSA5t2KtjPQ1EzZ5z+dXtSsmR/NTkVmsCVPf0oGQyxjOScljnFV5UAJOMnoParTB1IxyWNMlTHrwaBlKUDhfSmZ2cDv71bMH7hnbqapHkZz+FAEscbTuEjXrWoumxCMmSVtx6YFLp1qY7VZW+9KN34dqszyRwRKXPzk8IOpoEZWpQC0CFJN24gFSOak02Ebo3HZQcfjUciTXkmMbmPJ46DjitS3hWNCAMcYoGWYv9Wd3B4P6VozHMkcxwQq5PuKy/NUKykgN0B/CoNQ1IrhF4IAWgQ63tUs9RuIl5G7cPbP+TWgg3AYwCDVGzlE8izFgWKbT+B/+vV0A9FJXnmmBaUrGflIA7mpHk+TPQfzqKKFmIUDcR096ux2OzMs7cDkCkBXjhGPPlGB2U1QvNQRWIjbLe3SotT1aS4ka3hGEHBI/pVERgAH7z46CgCtOJp+XJZj2qobN3O2FC8np2roLfTJJTvkGFrd07TEt8AIAfX3oAPDGlJpdmrSKDK3LHHeug2vIdzHnsKbFB5WS35elPLH049KBAdqoSpyxGM1XuGKueBwuOKmeVYl9SDnjpWa4kZizZy2SQP8AP0oAGYk+3SmlS7ADk9qcsar1YjB/pSogXBXJYigB+xEIZm+YetWIpyQNq1UEZL8+vU1ooIlUAkD6UATCUPCSwxVcAGRSepOABUkvzRgAcE1JaQ7pNzDAXgUAU5wPtMhI6DkiqluMh8mrk7BbiY59gKrwggnPcUwLWmjbtwP4auWwzMWJyaq6e2Qvf5KtwAhwT3agC8gwhFSAZGajTqwqRDlaBARTYxjI9DUlNxh8+vFACkUg4OKdRQAUUUUAFFFFAwooooAKKKKBBSGlpKAGscA1FGuWLGnyHtSfcjoAilOTjsKhIyOOpp75PHrTlXnPYUDKdwCW244FRFPnUCp3+aQ5ojUZLUAMSPc/TpTti72wOgqZQAPfvUajhm9TQBYjXCCnmhFOOTSSAbf5UAV5yNtUTycgVYnUgDFQ+V8pPNAEYA5zzSk4GccUqqFXPrTmJxxjigCFkJUc8VEAFJqZmAXk1AxL55xSADhgcVl3hKMrp1HUetag6mqNygZScUAZ32lWJRxwT0NZuoWexfOQ8DrU1yu1zjtRFdF0Nu/JIwDQMzFXKx7uWqVYht6cjuaneD7OwAJZT39DSYZUwQOTQBTkjURFVORnJzWbNAOAO9bTxhomHHNZVyx2gLjI4oAuQ6sqWMUKBVljUKzP0GO49adY2MmoSkrkqfvSv1P0qvpmlefIss/CjrmuneZLK1URKAT0HrQBTuzBZQi1t1G9sb3PWqsXEYP+0O1IxMjDPLHk5ok+WNQf74oAgZvlkPG4NVHUP3kG7rgfrUskn+tGep/rVQzAbkYfKRjn1oAn0a7EbPE4+YjKj3HauusWW6hWVRlWHT0NefxlkuAy5yDwa6qx1Zra3eRVLIwyVHVW/wAKAOlkmhsotzEBh71gX2q3WpoYrf5Y+7Gsx9Ta/lBmPynt04pXumKEJhYlOMDvQA9LdIAUyXc9TWtpunh3DY4HTPNQabZPdSZZSFHWunt4FhQFR9KAEW3DuoIxitK0h3OfRev1qGJCwJPUnArThiEMQHfvQIjmbaPb+dUwHlyWHuAD0FWLkpJIAedvNReZsTco5boKAIW3MfRV6fWoShZi2fXBNSFXPGeD2pNoBwewxTAaEX1zzzmnBD24FKNoYYHJGeKnQHAAXn19KQDPIz1zn1qeC03AHHHbPepoIDKQSMKP1q07LEoUDLdgKAKzoA21e1SxsFTYvLDk+1V5TIOSBubr7VZRFhtuep6mmBjuh3uxO5mNPjjyPwqWWIhh79KmVAsfI7UAR6ZH8hOO5H61eAww+tR2K4h4HcmpyMDJ9aAJl/1n1FSJ0P1qP+JTUi9TQIdSNS0hANAxaKQDFLQIKKKKBhRRRQAUUUUAFFFLQISkPSlprdhQBGeW6daSQ9BnpTlHJao8bnoAQJxnuadLhI/wqRRk59KimUs4HagCnj2PPpT1TOMcAVNt5+lIBxQMbtwtCLkCnE5X2p0Y+YUCJOgzURBzuI+gqRuWC446mjG4+1AyrMCeT2qFsBOtWLnqBVNjlfxoAZK6x4B6ngVESX6nv6U6TLv8uPQGhYiCOMDuTQBGyhuSKjKYxxx0q2U/CkCggUgK3GMDr61XmX92TVqQHzwi8Z68U2ZNyiIdT19hQByl0TI52jGe9RwxhMDH1NXtTi23OBwMcVVjHLEEEjpQMne2aS0d8khRkD3qlMf3ee2Aa37aPGnMxPDZ/KuaaUlPLGSQxH1FAEbvtgO09qqWlk80u5xwOcEVrwWJkILLx6VadI0TaowRQBCgWKIbfQ8Duaq+aZnZiSQO3rT7mQyMBECMcE1VRfnZfToc96AJULH95jPJ4HbimTghF+YEhuanKGM4X5iRkg/Sq1zInlBcYfdQBmSykg9Rnj9ahaNnJypIIzUk0ZBKjr1HPvREkmBhz2zQMYLclx2GO9WrWSS1fDZI6Eeop0XmnBXJB46d6tR2gkwzDBwOfWgRHPp6X0HnW52zKclRxmpND02fUbryWUoiDc+f6VZgszAR5bsCeDWpaSPbyeanDdwO4oA3ILRIf3UeAqjmrAjyiqo+Zh+QptrGp3Ts2S4yBWhbxqil+pPAoELbwhPl/ujrUjyhYtx6+lSfdT3NVmXzZgMEBOppgRBSRlhy3P0ppwTn149sVPLtETOp9h7mq+Qse4ZyenFIBj98np0qJhztAyOnWpcZXk9aeihSuQRimBXcOCBnk8cVo20KnHPB6Y6VBHH51wA2Nq1pDlgi9cflSAfnaAkYyT+lAiCAknLHqTT1VY144AqvLI042r8qevrTAgdlEueuDkCp3DeVlup6Co0iHmIAvy+tSy/OwA6UAVpPmmC9hT3T5DShD5+cdqlK9RQIfbqBAv0pSvymnwjEQpQMqaAFx8q048NmgfdFBoAfSUdqKBhRRRQAUUUUAFFFFABRRRQAlKKSloEFMJ5J9KfTdueM8UDFUfLTBHjOKkooEJjAqKTk4HWpqiUZJY0AQyDauB9KAmBT3GXHtS4oAYy8U8AKuaQ8DNKBuGTQAKD+J708javFKq45p2OKBmfcKWcetRPDtVRjrV2RcyCq8rKjYdsUCKxt1wfmI9xRuCLt6mnHzJs7FKqe5oMYReTkk96BkJDE7ieT0FOIwQAMk/pRyfm/p1qSNMDJPJ60AMcrtwBiqkceCz+tXmUMPaovLYgqo6UAc1qxXzlOOSdo+tU7aESFFUYBP5+9aGuokaw4ySrgk461T8w28ZK43HgDPSgCzqd6kcItoz91cHFZmnRK4ZmXkHvUMxLYJOSec1NpsoS52NxuXI5pDL8jBFyOwyBVOQ7we5zSTzM1wQBhfSnMVxtJwcdaAKtxtAUqRnP51mpJiUtnirs2E5ByO4zVQqokLAcGgCcyDy9u/DGoJzgKw/j4wacu4g713Y6YqfYJtrMhCjnJoApSwl23sOR1A7URoqttdeRyKtyLhRt4/rURj3Tqdv1oAEVd23Bxn+lakMA8vB5AHSqsSc4PJArVgQ45/u0AQ+WRjY3Hoaa0xiblePapJxIrfIRj0NVmeQcnYRjtxQBv6TeLLEIt/Q5/CugR1Cqf4R0rz5WlhkVowQR3zXRaVq6TuqzkRAdQxoEdMzYiLGoAX2qo+8/J9qGuIp2REcFOpx6URH7854zwoPpTAjuxuAQDCjv70x0UbVDnA680FjJL1yF5/wDr06RNqKCMknmgBAvy7h+APel8snJJINSY6ADPvTpARt65YgUAJbRsPlA5PX2q8qLEPfuaRQFwB9KesRLEt0oAaQXyT0PQUqpzk9BwBUvAGe1REmQcZCfqaAI93znHJ6Z9KUrgH1p8agDjpSkZzQIjRf3jH0pWHWpIxjcfU0x+n40ASRHMYpyjrUduML7VKOpoAUCjFLRQAYooooAKKKKBhRRRQAUUUUAFFFFABRRQKYgopaSkMKKKKACmngU6kxnmgRHjHNN61KRTGGeKAGbd3HapVXAxTQvNS0AGKKKQ8DNAEWMux/CoJIkeUOwBK9KsHCJk1UVnkzhcc0AEjhV5qvsllOXGFxwKsBN74xwtPlwFoGVNoyAKczBQSacVK4Hc1GSpcA9jQAhY7QQPbFSsuyEL/GaZHtdwx4C80OS+WPQjCikBhamoPJAIHCg9z61g3JGduOnH1rc1KYeYUBzt6/WsKU7m60DISpC5z71DvKSpIvGDViQYJxgccGoJ4twwD8p4yD3oAm1GQCZGzhXHUVHuDxHc3OMYFUHuJf3cDjIVsA+1SIx37T36EUAF5JhVGfxpE+97HiiVPMUg9jRCM4yMZNADgSvA4XPPtUwkLMFUZB6n0pmNw6fWrSRBUB4AAoAgIXcBjoCOaBGCwK5PFPK5Geu44qaOM7zjGB1oAfECCoABzV2PJBycDGOaq/cG/rTZ5n3Y5CgdBQAtxIBIAGzzg4ppCl25PvmoVIVvlRj71OBx0PPqetAEigHBxkdsCra2yS28iNjBHX0quZI403SsF9u5+lZ91qzzIbeEGONjgnPzMKANDwhcSteTW8js8f8ACxNdnck4WJDjjn2rlvCln5CyXTKU3jCJjnFdOkfmTZPXALUxEkcYUKvUnmlkUDL+nAqZVySQMds1ENrykdl7UAPhjY4J781KYU3B2ySDkUoOFzT8Z256dTQAkY3TA+gyas4qOEcM3rTz8xwOlAiN8scY+X+dK+AlObsKjlJ4HqaAFQcClx1pQMdPSlxgUAIv3ajfhQfQ1KOlRfeVvrQBLF9wGnAfNQowoApaACiiigAooooGFFFFABRRRQAUUUUAFFFFABQKKKYgooopAFFFFABRRRQA1ulIBge9OxS0ANAp1FFAwpCMjFLRQBCw3P7CmyYReOp6ClRgAdxwSTxTlTLb2/AUCIo4/LX9SajZt74HIFTSjAP8qSGEImT1PNAys6lAZDyewquctj0q7cNgbVwSeMVTkTyxk5yeooATdldo6fzqG6nKwnb9M9qtR25Iy/A64rP1BgW2jgCgDImiBBz1I5rNYb9xCkY7kVrSc5qpMBsOaAM9lO0jHOKY8e5SpHFWimR9aMAISeg60hmNqMHk23mn74bcDSMd4Djjoc1dmT7e7IeUAIFVrdG8hVI5Q4NMBkZ+Vcnr/OpoIcw726g5FRmMBsY6VcsRklD2PSkA0RlCE7t6VM0RwBk4HBFW3iVShxyDTSvbPJ55oAqrE5TPrgcU4DY/XIPVfSpyOTjJPoKPLB6jHINAFZ2PygkcnOKjaQs5zwKkkbYTt2knPJqvCTjJGT1oAsKCWHoBk1I5Ea5/iPQUyAbjjBLd8d62rLStzh5Rkk5x6UAZEWk3F5+8c7EPUnqa1LHQ7eGXOzc3qetbhiVVACj6VNHEFUMetMRDbwqjgbcBf1q8qBYye7VBGd8u3b15NXcbpFAPA7UAKq4AApvl8lgOfWpscbqcicUCI0QkgHtTpODgdSMVNjFRuu5h7GgByjChR0FPGAKFGBQaAGnkimkBn+lPpqcsTQA8CkPSl60tADD90+tNjX5AD1qQUDrQAo4ooooAKKKKBhRRRQAUUUUAFFFFABRRRQAUUUUAFFFFMQUUUUgCiiigAooooAKKKKACiiigYUUUUCDHsKDRSMwUZJoAYw3ED86ZLIqDqM+lPBAUueM1GsZlbe4wOwoAiCH72MsaUQHdvfk/yq1gAVFIwAoGVrmURxnpWFM245NXr2fe20HgdaolcgmkBVZflNV5V+U1cdcConj+RvpTAoOCAKimwIwvcmrbqAcngCqu4yTZPc4FIYQ24iIIqvNbeVdOv8Mg3CtcR7unpTLu38yAMOXQ5FMRjmHgMO3FJF+7uRxwau+XuQ9MH+dQyRkFT6Uhl8jdF06iolTp3OakjLGIY9KkQAAEj2oAgZQhwOe+PWo5FLKMHaTz06CrLxqiOzcs3p/Kq4VvLJPPqCOaAKci7l+XlAfTqaLe0eYZ+6M1ZNs0m3bx3/8A11saVZtMoyMQqev940ALpmmBFErryegrXjQLz0qUqAvHAFJtB4PSmIQDdJ7CrBT92ajhXliOhq0BgDigCpABHuJGO1XIY2OWbqe1KkYLBjU4FADdvQU4cUuKMUCA8CmqvOafRQAUUUUANbhTSIPl5pxGRiloAKKMUUAAooooAKKKKACiiigYUUUUAFFFFABRRRQAUUUUAFFFFACUooopiCiiikAUUUUAFFFFABRRRQAUUUUDCgkDqaKKAEyT0496jkxt2jqe9S1WckyOfTigQozI4T+EcmrFRwx7EyfvNyabPMI/l7mgY93C9TWReXhJKJ19aW4uiF2g5Y/pVNULHnt60gGhSR83em7ODx3qwFyeOgpuzj8aAKjIN2MU9ogIm+lOxh89hTbhiyYAxnv60wMi7bZG2MkdyKr2/wA5ULz/AEq/cKCNmKp2RCMUAxgnJoA0IgVGCBk8VZhQdTTBlsbRVlQVUL+JpAZM0P2e6KdEflaryQ5OK1tSg3wh1++hyKq7DIgcUwK8a7VK08rtU4HJqYIVI44oMWQee3SkBGo3p3ApzIjAELwORQpyoGTjuavWdkbiQE/6sdfegY2ysmuSGkBWIf8Aj3/1q20jCKFUAKOgFSpEFAAHA6UpXApiIWHH40h9vxqTHzU7y+560AEKYUVYRM8mmxrke1TDk4HQdaAADJxTsUtFAgooooGFFFFABRRRQIKKKKACiiigYUUUUCCiiigAooooAKKKKACiiigAooooAKKKKACiiigYUtFFAhKKKKBhRRRQIWkoooGLSUUUAFLSUUALRRRQAlMES7ieeTnFSUx32AnBJ9BQAk0qwxtI5wAKwpbpmJkYYLdB7VPdNJczbZBiNece9RbCz5I4HQUgIkU53Nyx7VPtxwPvGlRCuFHLGpSuxc8k0AQtjAUccc1UmuVU7QM4/Klup9o2hstVeCFpSCQdtAEkfzgs3A70jq0hBIwvYVaESnAx8opShJ6fSgDMliI7cmqIHlXW0jBcZH1rohCqjJGWqhLbqX+Ycg5FMCO3QgEEnPc1ahP7sg9c4qvCCrc8VYjGQ2fXNIB8ozHnrVZUCsw9easSA+VVeXKqsgHTrTASWL5VI9agu5UijKg/ORinvK5ibHXtTdO0iS8mMkuREP1pAO06zefBI+Qc5NdJBGoUAKBinJAkaBVXAFSRpg9KYC7MU0rUxFRsM8UARqOc4pygufYU8rxinAYGAKBAB2FSgYFIq4FOoASilpKBhRRRQAUUUUAFFFFAC0UlFAC0lFFAC0UlFAC0UlFAC0lFFABRS0UAFJS0UAJRRS0AJS0lLQAUlFFAH//Z;" vertex="1" parent="1">
          <mxGeometry x="-701.54" y="270" width="75.56" height="100" as="geometry" />
        </mxCell>
        <mxCell id="ZTzG8vazDqK2p4vOw7QZ-5" value="" style="shape=trapezoid;perimeter=trapezoidPerimeter;whiteSpace=wrap;html=1;fixedSize=1;direction=south;fillColor=#fff2cc;strokeColor=#d6b656;" vertex="1" parent="1">
          <mxGeometry x="-150" y="390" width="143" height="120" as="geometry" />
        </mxCell>
        <mxCell id="ZTzG8vazDqK2p4vOw7QZ-6" value="&lt;font style=&quot;font-size: 16px;&quot;&gt;Discriminator&lt;/font&gt;" style="text;strokeColor=none;align=center;fillColor=none;html=1;verticalAlign=middle;whiteSpace=wrap;rounded=0;" vertex="1" parent="1">
          <mxGeometry x="-130" y="435" width="93" height="30" as="geometry" />
        </mxCell>
        <mxCell id="ZTzG8vazDqK2p4vOw7QZ-7" value="" style="shape=trapezoid;perimeter=trapezoidPerimeter;whiteSpace=wrap;html=1;fixedSize=1;fillColor=#dae8fc;strokeColor=#6c8ebf;direction=south;" vertex="1" parent="1">
          <mxGeometry x="-530" y="390" width="83" height="120" as="geometry" />
        </mxCell>
        <mxCell id="ZTzG8vazDqK2p4vOw7QZ-8" value="&lt;span style=&quot;font-size: 16px;&quot;&gt;VAE encoder&lt;/span&gt;" style="text;strokeColor=none;align=center;fillColor=none;html=1;verticalAlign=middle;whiteSpace=wrap;rounded=0;" vertex="1" parent="1">
          <mxGeometry x="-535" y="435" width="93" height="30" as="geometry" />
        </mxCell>
        <mxCell id="ZTzG8vazDqK2p4vOw7QZ-9" value="" style="endArrow=classic;html=1;rounded=0;exitX=1;exitY=0.5;exitDx=0;exitDy=0;entryX=0;entryY=0;entryDx=0;entryDy=0;" edge="1" parent="1" source="ZTzG8vazDqK2p4vOw7QZ-4" target="ZTzG8vazDqK2p4vOw7QZ-8">
          <mxGeometry width="50" height="50" relative="1" as="geometry">
            <mxPoint x="-410" y="650" as="sourcePoint" />
            <mxPoint x="-360" y="600" as="targetPoint" />
            <Array as="points">
              <mxPoint x="-590" y="320" />
              <mxPoint x="-590" y="435" />
            </Array>
          </mxGeometry>
        </mxCell>
        <mxCell id="ZTzG8vazDqK2p4vOw7QZ-10" value="" style="endArrow=classic;html=1;rounded=0;entryX=0;entryY=0.75;entryDx=0;entryDy=0;exitX=1;exitY=0.5;exitDx=0;exitDy=0;" edge="1" parent="1" source="ZTzG8vazDqK2p4vOw7QZ-1" target="ZTzG8vazDqK2p4vOw7QZ-8">
          <mxGeometry width="50" height="50" relative="1" as="geometry">
            <mxPoint x="-500" y="640" as="sourcePoint" />
            <mxPoint x="-450" y="590" as="targetPoint" />
            <Array as="points">
              <mxPoint x="-590" y="540" />
              <mxPoint x="-590" y="458" />
            </Array>
          </mxGeometry>
        </mxCell>
        <mxCell id="ZTzG8vazDqK2p4vOw7QZ-13" value="" style="rounded=1;whiteSpace=wrap;html=1;fillColor=#f8cecc;strokeColor=#b85450;" vertex="1" parent="1">
          <mxGeometry x="-360" y="300" width="70" height="70" as="geometry" />
        </mxCell>
        <mxCell id="ZTzG8vazDqK2p4vOw7QZ-14" value="&lt;font style=&quot;font-size: 18px;&quot;&gt;Latent&amp;nbsp;&lt;/font&gt;" style="text;strokeColor=none;align=center;fillColor=none;html=1;verticalAlign=middle;whiteSpace=wrap;rounded=0;" vertex="1" parent="1">
          <mxGeometry x="-370" y="354.34000000000003" width="90" height="70" as="geometry" />
        </mxCell>
        <mxCell id="ZTzG8vazDqK2p4vOw7QZ-15" value="" style="rounded=1;whiteSpace=wrap;html=1;fillColor=#d5e8d4;strokeColor=#82b366;" vertex="1" parent="1">
          <mxGeometry x="-360" y="542.83" width="70" height="70" as="geometry" />
        </mxCell>
        <mxCell id="ZTzG8vazDqK2p4vOw7QZ-16" value="&lt;font style=&quot;font-size: 18px;&quot;&gt;Latent&amp;nbsp;&lt;/font&gt;" style="text;strokeColor=none;align=center;fillColor=none;html=1;verticalAlign=middle;whiteSpace=wrap;rounded=0;" vertex="1" parent="1">
          <mxGeometry x="-370" y="597.1700000000001" width="90" height="70" as="geometry" />
        </mxCell>
        <mxCell id="ZTzG8vazDqK2p4vOw7QZ-17" value="" style="endArrow=classic;html=1;rounded=0;exitX=1;exitY=0;exitDx=0;exitDy=0;entryX=0;entryY=0.5;entryDx=0;entryDy=0;" edge="1" parent="1" source="ZTzG8vazDqK2p4vOw7QZ-8" target="ZTzG8vazDqK2p4vOw7QZ-13">
          <mxGeometry width="50" height="50" relative="1" as="geometry">
            <mxPoint x="-310" y="500" as="sourcePoint" />
            <mxPoint x="-260" y="450" as="targetPoint" />
            <Array as="points">
              <mxPoint x="-400" y="435" />
              <mxPoint x="-400" y="335" />
            </Array>
          </mxGeometry>
        </mxCell>
        <mxCell id="ZTzG8vazDqK2p4vOw7QZ-18" value="" style="endArrow=classic;html=1;rounded=0;exitX=1;exitY=1;exitDx=0;exitDy=0;entryX=0;entryY=0.5;entryDx=0;entryDy=0;" edge="1" parent="1" source="ZTzG8vazDqK2p4vOw7QZ-8" target="ZTzG8vazDqK2p4vOw7QZ-15">
          <mxGeometry width="50" height="50" relative="1" as="geometry">
            <mxPoint x="-470" y="660" as="sourcePoint" />
            <mxPoint x="-420" y="610" as="targetPoint" />
            <Array as="points">
              <mxPoint x="-400" y="465" />
              <mxPoint x="-400" y="578" />
            </Array>
          </mxGeometry>
        </mxCell>
        <mxCell id="ZTzG8vazDqK2p4vOw7QZ-19" value="" style="endArrow=classic;html=1;rounded=0;exitX=1;exitY=0.5;exitDx=0;exitDy=0;entryX=0.339;entryY=1.005;entryDx=0;entryDy=0;entryPerimeter=0;" edge="1" parent="1" source="ZTzG8vazDqK2p4vOw7QZ-13" target="ZTzG8vazDqK2p4vOw7QZ-5">
          <mxGeometry width="50" height="50" relative="1" as="geometry">
            <mxPoint x="-270" y="234.51" as="sourcePoint" />
            <mxPoint x="-160" y="539.51" as="targetPoint" />
            <Array as="points">
              <mxPoint x="-250" y="335" />
              <mxPoint x="-250" y="431" />
            </Array>
          </mxGeometry>
        </mxCell>
        <mxCell id="ZTzG8vazDqK2p4vOw7QZ-20" value="" style="endArrow=classic;html=1;rounded=0;entryX=0.583;entryY=1;entryDx=0;entryDy=0;entryPerimeter=0;exitX=1.029;exitY=0.607;exitDx=0;exitDy=0;exitPerimeter=0;" edge="1" parent="1" source="ZTzG8vazDqK2p4vOw7QZ-15" target="ZTzG8vazDqK2p4vOw7QZ-5">
          <mxGeometry width="50" height="50" relative="1" as="geometry">
            <mxPoint x="-240" y="540" as="sourcePoint" />
            <mxPoint x="-190" y="490" as="targetPoint" />
            <Array as="points">
              <mxPoint x="-250" y="585" />
              <mxPoint x="-250" y="460" />
            </Array>
          </mxGeometry>
        </mxCell>
        <mxCell id="ZTzG8vazDqK2p4vOw7QZ-21" value="&lt;span style=&quot;font-size: 16px;&quot;&gt;Real or Fake？&lt;/span&gt;" style="text;strokeColor=none;align=center;fillColor=none;html=1;verticalAlign=middle;whiteSpace=wrap;rounded=0;" vertex="1" parent="1">
          <mxGeometry x="-7" y="435.00000000000006" width="93" height="30" as="geometry" />
        </mxCell>
        <mxCell id="ZTzG8vazDqK2p4vOw7QZ-22" value="" style="shape=image;verticalLabelPosition=bottom;labelBackgroundColor=default;verticalAlign=top;aspect=fixed;imageAspect=0;image=data:image/png,iVBORw0KGgoAAAANSUhEUgAAAMgAAADICAYAAACtWK6eAAAAAXNSR0IArs4c6QAADqZJREFUeF7tnel52zgQhkE3kuSfnSasVGKnEseV2KlkmSbW+hdvI9EGFBXTiigBg8EcwKfn2TM4qJl5NQcODgEfSAASWJXAANlAApDAugQACKwDEjgjAQAC84AEAAhsABKgSQAehCY39OpEAgCkE0Xja9IkAEBockOvTiQAQDpRNL4mTQIAhCY39OpEAgCkE0Xja9IkAEBockOvTiQAQAiK3m2uP4YQ4l+3IVzFf4YQfr2GEP4LIbwO43YkDIsuBiUAQDKUsgfj6iGE3f2Fbq8h7J6HcfuYMTyaGpQAAElQyuwx7kIYviU0XzaJoHwZxm30Lvg4lAAAuaC03eZ6E8LwT4Fu4U0KhKfdFYCc0QADHIvRd98Qcmmbe/78AGRFZrvN9X0Iw1O+SFd7RE/yFQk8o0QFhgIgJ4S821w/EPKNFHW9DuPLp5SGaGNDAgDkSA+7zeenhCpVgfYmL/JcMAC6CkoAgCyzhM1NTMY3leUPL1JZwJzDA5AQwr6MO+UbteGYdTeVfrGYyGnJlcbqHpAZjug55hXxSpJ+NyzCLAkpc8zRNSC8ZdwcdQzPw/jv15weaKsjgW4B0YMjKhqA6Jh7/qxdAlJhjSNT8lg0zBSYWvPuAKm4xpGhRACSISzVpl0BUn+NI1WXSNJTJaXdrhtAbHiOg7oBiLbhp87fBSD6OcexOnafsAU+1UR12zUPiG616rRyh/GlebnrmjXf7E0ryiIcU5EXgPBZcOWRmgXEKhy/t7OMw/jypbJeMTyTBJoExDAcUW0AhMl4JYZpDpB5b9VPCeHR5sAqOk1uOr2aAkRn42Gu4gBIrsQ02zcGiMh5jkJ9AZBCAYp2bwaQncxhJwblYJsJgxDFhmgCED9wRL0CEDHrZpjIPSC+4AAgDDYrOoRrQGztr0rVG3KQVElZaOcWEONrHWd0C0AsGH7qM7gExP5axznxA5BU47TQzikgHsq5q+rFSroFy098BneA+Mw73mkDgCQap4VmrgDxm3e8UzUujrNg+YnP4AyQm7jHSvD+qkQp5jUDIHnyUm3tBhB/6x3resV5EFWbz5rcBSAN5B1HSsHVo1lWqtjYPCCN5B0ARNHIS6Z2AEgTeccxIHjbVInVCvY1DUhLecd7nWKxUNDGi6YyC4i9q3qK5HzcGWshrOKsN5hJQNrMO7AWUs+M641sFBDXW0kStYVKVqKgVJuZA6Tx0GqhbACiavmJkxsEpMWq1Slt4GRhoo2qNjMFSHsLgmd1iy0nqqafNrkxQG52aY/dRCsA4kCNZgCx8+4OSa0hD5GUNmUuE4B0UNZd0Q0WDClGK9nHCCA9lHVPqhVhlqS1E+ZSB6Sfsu6adhBmEexWrIsBQHop664Cgo2LYuaeP5EqIJ2Vdde0gzAr327FeigD0lVZ94xSEWaJWXzmRGqA9FnWXdMOqlmZdivWXAWQfsu6q3rtJszaX/r3dvHGMG5HMWsnTKQEyOenEHb3hOdtuEu7706fc83N79fPxb9OfV5D2D2HEL5bez22EiDIPU5YSXNehFDCn0AZxu2jlV9CcUBQuTqn+naS9cLj0hGULxa8iQIgva97nP1tbMKLFMJxEFCE5Kt2jiIKCMHlWvG0gs/h24swwbGERNWTCAPS7Z6rHMDcepFKP4CqF1yIAYLSbg4j/ipadd/ZoicPQUBQ2s1AxJ0XYQ6tjkWlJg9BQFDazQAkhOBndb1SaHUkLh15iAAiI8A88/PR2n7CXje0eqcllaqWECAo7RKBVAstUp+3cmh1/BjiCXt1QOA9Uk1trZ1OaJHy1DqLvrJeVQAQlHZTjO18G3t3aClWJUW9qgQgPV3lU87C+ma+x2Hcxg196h/BvGPlu8qVfasCgjMfrLZsYn/SDMc/yu+KFPMilQFBcs6KSAjqkAgn5WfEJ+NFagOC8IqZkLCHRGUTnx04JqGKeJFqgKB6xU/GYkTxcxPG4JhFUb/CVxEQbC2pisjek1Q/XDTnHE9nTgNW/ppnh6/uRSoCgvxDyHLGOeR65Z7PSEJ+4WvV9SJVAEF4xW2qF8dj9yY6i4AXv+epBlW9CAAh6cRsp2JQjIdUa+si1W6nrAQIVs+VETrcEvIj9cjqHoyrB6e3zVTzIrUAQXlXmZD3Fa+Y0A+vIfz6Mf//mK/E+6k+7P97+GbncalPUmddhB0Q5B9UBaNfoQSqeJEKgKC8W6hodCdLgH+nbwVAUN4l6xcdSyXAfl6kBiDIP0rVjP4FEuD1IqyAIP8o0Cu6MkmA9+wMMyDIP5i0jGHoEmBN1pkBQf5B1yt68kmAL8ziBgT5B5+WMRJZAnz7s9gA0T+GSZYmOrYnAbYwixOQ+xCGuC0aH0jAgAR4wixOQB7a2LJgQLd4BA4JsKyJMAKCChaHVjEGmwRYwixGQFDBYlMtBmKSQHmYBUCYVIFhTEqgOMziBAQlXpM20vVDFYdZLIAoXkPZtfbx5VMkUBZmcQGCEm+KrtBGQQJle7O4AEGJV0H1mDJJAkV5CBMgKPEmqQqNNCRQlIcwAYISr4bmMWeqBOh5CBcgqGCl6grtFCRAz0MAyHSF53TDBz7tSoCchxQD0sAu3tHovbPtmqv8NyPnIQAkDM+/L4GOHmQjrzfMKCeB3adh3GbfX8wByCaEIb5xyOlnN1+a1sLlaU5VIPLYtEQdgITd19/eYwxh+CmiJ0yiJAFaog5A9m9rerb5ghglW2pyWgBCVOve9eLKIqL4/HQjVbI4PIjzfVh/APmIMMuPtROelFTJAiDhrboBL0IwOz9dAAhNV+8AgRehCdFJr/xSLzzIwoNELTt69ZgTo7T0mPmlXgDyNyDRi8R1HWw/sWTbLM+iA4jzsyB/u13kIizWaHAQAJKtlGF8OelFsS6SLUoHHfJf08YRYrn2IOuAxJdaYnXdgdVnPCIAyRDWvukaIHPC7nyNJ1scjXfIX02HB1kJsQ6WgqpWS8wAEII2z9fG5/Mu8VJubIcnSNdWFwBC0MflxaMZEpR+CdK11UUnB/F+HiTpIA0gsWXqtKcBIAS5pdfGGzheTJBPS110AHFeDk0HZK5sYaXdLTN5up6qnKXf1f+var7QEG6VWo1W/8v55vGTFQOy/1W9cXwvVr7bffMk4Q5v1dIydsq8eoDECo/TMmh+6W+pGqyTUAxVq48aINeOt5uUAbLIS7BWomX3ifOe2zWxNgRTiHXtuNTL907teRfwA7bKJ1qsaDOanrkA8VzJIh3mX9PtPoGP4eZw5zfsFLVcoclokQILIHOi7jUPIZ1VTtHq/s1bV3ch7O5T2qNNTQnQijGMgLjNQ6oBclD37FU+zrDgmtOaHKyOnZ+gs6yDLIzAcR5CE16Jnt9CsWmUD/uxrhbHfKf7gg+f+O84AlwgcEqCzg2I4zwkf7GwQFfkrjNUsX8M3W5x6XaqKGkJOisgvvMQWnyaqp6a7d480QQMcp2Twqbrly0H2QPitdxLq3DUNHzK2DMscXU/goKQ7I8Q6SE0NyBeN/Kxlnopxs3ZZwHK/GoHztH9jUXNP9hDrNmLeFxVr17J0jArnIacTPx5GP+Nr7ggfVg9yAyI02Sd7oZJkhfqBG9SVoBhB8Rvsl4mSCF7J03TMyQl4VWVEMtvst5Gon6OoP4uwysLr6oB4tSLNJmHLIHxf7gt14GWh81VQiyvuUipO85Vn0b7fu4dLvceVT2ITy/Sbh5ygLGfyhaPLqt5EKdepKn1kDUP1cMpSK5ooCoge0g+PznaAtF8HuL0hyszGqVvLTmeSAAQb7ek87jmTI2KN2+5osXlParnIIu419Mt6QizxHHlnJDPe4gB4izU6iXM8rgl6BJJ7LqrHmIdVU+cXADN+yt0Sasaf95muZc/PBYDxNkKO/svkQYE51fVrz2FvSniqxIaiwLiK9Ti/zVK0bJUG2fVxQSx1NGXAiBTVctDqFXlFylB0yJNdpubn+0cquJZNT8leHFAFnV4B5DU+VUSIeDCJL7vU3735aqGwyqAOFqsatKLtJWg1/0RUwNkhsRBotheRaudRcL6RxRUAZkhsV6Pr+rCpcMtvxdr/CUpEe+uDogPSOolgfKA3Hi9IvZIVOVnPVJkbwWQeEWN8ZfR+A+12vEedfOOJTgmAHlL2k1D8hrCpJjXlF8ei23aKO3KwRF1aAYQL5AM48sni8Z/6ZnaSMzrJ+XHcjQFCCC5ZOa0P29k1VwkKTcPyOEBbZ9685O025ZjMvAqcJgLsY7FZVy55su/xuWXSocaHOYBcbCYaDZxbyPnCKpwuABksS3F6t6tCMnzMG4fU38Sa7abS7nxjbveb3dXh8MNIG+QXD0YvgAigvJ1GLdjTQDWxm7selETcLgCxEmFa7pNPIRf36VAaQyM4tvYuX+czJV5U76gk+QzepTHYdw+p3yn3DZ7GcR3Grb0Vin5dY5LcncJiB9vMok/rrxHWL7Hf1I8y+LdhHE7zqbB96+rhqfnIHELiI/1klXRz9AM87aVX0fbVw5vu53edBuBaPljthLoLgc5n6AOsXLTujE1Bor9BVf3HmThSRzsCG7Mvou+jo/d0c0AAlCKrFWy8ziXw13sim4OkPegIOyStPwLc5laUE2VS7OALECJ594fGlhZTtWpxXZmFv5yhdM8IM5Kwrn6s97ebPk2VXBdAHIiP7mHR0k1EVI7l+HUqW/aFSBHoGwQepGM/1ynZsA4fMkuATkByh3WUIpgaQ4MAHJkD/vtHKZ3CxdZcKXOzYIBQFYsZt73FMMveJV1qqpuxKwEM2nYrkOsSxJbbCVHUr/fcBl3Jset/C4W+S7pN+XPAUiKlKa39cYQbLq3q8XdtGtSOEDxg7ILOVG0ppsBEIJ63sKwq9u2zmNMwugeiqVJABACIMsuMyzRu9w69S6H8yrxqHBX4VOK6gFIipQy2xx5GGtnOg4eIli5aCJTvKLNAYiAuBcnAiMssZx8u5+22oGopVeIE/2If+s1jyhRMQApkR5T3yOADqMur+35cDTVf4v//lNRAgBMClkM8z9FlFwjP9+rlQAAAABJRU5ErkJggg==;" vertex="1" parent="1">
          <mxGeometry x="-30" y="470" width="20" height="20" as="geometry" />
        </mxCell>
      </root>
    </mxGraphModel>
  </diagram>
</mxfile>
